SolveigBold-Italic.ufo
<glyph name="exclam" format="1">
  <advance width="251"/>
  <unicode hex="0021"/>
  <outline>
    <contour>
      <point x="132" y="161" type="curve"/>
      <point x="87" y="156" type="line"/>
      <point x="105" y="300"/>
      <point x="115" y="511"/>
      <point x="114" y="578" type="curve"/>
      <point x="141" y="579"/>
      <point x="231" y="583"/>
      <point x="261" y="588" type="curve"/>
      <point x="225" y="502"/>
      <point x="148" y="252"/>
    </contour>
    <contour>
      <point x="99" y="95" type="curve" smooth="yes"/>
      <point x="138" y="95"/>
      <point x="158" y="76"/>
      <point x="158" y="48" type="curve" smooth="yes"/>
      <point x="158" y="14"/>
      <point x="119" y="-7"/>
      <point x="79" y="-7" type="curve" smooth="yes"/>
      <point x="47" y="-7"/>
      <point x="25" y="10"/>
      <point x="25" y="34" type="curve" smooth="yes"/>
      <point x="25" y="65"/>
      <point x="60" y="95"/>
    </contour>
  </outline>
</glyph>
<glyph name="quotedbl" format="1">
  <advance width="367"/>
  <unicode hex="0022"/>
  <outline>
    <contour>
      <point x="135" y="350" type="curve"/>
      <point x="93" y="349" type="line"/>
      <point x="102" y="424"/>
      <point x="98" y="546"/>
      <point x="92" y="581" type="curve"/>
      <point x="119" y="579"/>
      <point x="196" y="581"/>
      <point x="226" y="587" type="curve"/>
      <point x="203" y="542"/>
      <point x="144" y="393"/>
    </contour>
    <contour>
      <point x="306" y="350" type="curve"/>
      <point x="264" y="349" type="line"/>
      <point x="273" y="424"/>
      <point x="268" y="546"/>
      <point x="263" y="581" type="curve"/>
      <point x="290" y="579"/>
      <point x="366" y="581"/>
      <point x="396" y="587" type="curve"/>
      <point x="374" y="542"/>
      <point x="315" y="393"/>
    </contour>
  </outline>
</glyph>
<glyph name="numbersign" format="1">
  <advance width="385"/>
  <unicode hex="0023"/>
  <outline>
    <contour>
      <point x="340" y="582" type="curve"/>
      <point x="331" y="524"/>
      <point x="322" y="476"/>
      <point x="315" y="427" type="curve"/>
      <point x="340" y="427"/>
      <point x="367" y="428"/>
      <point x="386" y="428" type="curve"/>
      <point x="385" y="417"/>
      <point x="380" y="397"/>
      <point x="373" y="387" type="curve"/>
      <point x="352" y="387"/>
      <point x="331" y="387"/>
      <point x="309" y="388" type="curve"/>
      <point x="298" y="325"/>
      <point x="290" y="273"/>
      <point x="281" y="210" type="curve"/>
      <point x="306" y="210"/>
      <point x="333" y="211"/>
      <point x="352" y="211" type="curve"/>
      <point x="352" y="200"/>
      <point x="347" y="179"/>
      <point x="341" y="169" type="curve"/>
      <point x="318" y="169"/>
      <point x="297" y="170"/>
      <point x="275" y="171" type="curve"/>
      <point x="251" y="2" type="line"/>
      <point x="239" y="-2"/>
      <point x="217" y="-6"/>
      <point x="206" y="-3" type="curve"/>
      <point x="235" y="171" type="line"/>
      <point x="130" y="171" type="line"/>
      <point x="106" y="2" type="line"/>
      <point x="94" y="-2"/>
      <point x="72" y="-6"/>
      <point x="61" y="-3" type="curve"/>
      <point x="90" y="171" type="line"/>
      <point x="23" y="171" type="line"/>
      <point x="21" y="180"/>
      <point x="29" y="207"/>
      <point x="32" y="213" type="curve"/>
      <point x="96" y="211" type="line"/>
      <point x="124" y="389" type="line"/>
      <point x="56" y="389" type="line"/>
      <point x="54" y="397"/>
      <point x="62" y="424"/>
      <point x="66" y="430" type="curve"/>
      <point x="131" y="428" type="line"/>
      <point x="154" y="581" type="line"/>
      <point x="163" y="584"/>
      <point x="191" y="584"/>
      <point x="196" y="582" type="curve"/>
      <point x="171" y="428" type="line"/>
      <point x="212" y="427"/>
      <point x="236" y="427"/>
      <point x="275" y="427" type="curve"/>
      <point x="299" y="581" type="line"/>
      <point x="308" y="584"/>
      <point x="335" y="584"/>
    </contour>
    <contour>
      <point x="136" y="211" type="line"/>
      <point x="179" y="210"/>
      <point x="201" y="210"/>
      <point x="241" y="210" type="curve"/>
      <point x="269" y="388" type="line"/>
      <point x="232" y="389"/>
      <point x="207" y="389"/>
      <point x="164" y="389" type="curve"/>
    </contour>
  </outline>
</glyph>
<glyph name="dollar" format="1">
  <advance width="395"/>
  <unicode hex="0024"/>
  <outline>
    <contour>
      <point x="139" y="-11" type="curve"/>
      <point x="144" y="25"/>
      <point x="152" y="72"/>
      <point x="152" y="82" type="curve"/>
      <point x="119" y="83"/>
      <point x="53" y="99"/>
      <point x="30" y="107" type="curve"/>
      <point x="31" y="117"/>
      <point x="36" y="141"/>
      <point x="41" y="148" type="curve"/>
      <point x="101" y="133"/>
      <point x="139" y="128"/>
      <point x="176" y="128" type="curve" smooth="yes"/>
      <point x="225" y="128"/>
      <point x="242" y="154"/>
      <point x="242" y="184" type="curve" smooth="yes"/>
      <point x="242" y="223"/>
      <point x="208" y="256"/>
      <point x="170" y="283" type="curve" smooth="yes"/>
      <point x="110" y="325"/>
      <point x="88" y="367"/>
      <point x="88" y="398" type="curve" smooth="yes"/>
      <point x="88" y="456"/>
      <point x="147" y="502"/>
      <point x="231" y="513" type="curve"/>
      <point x="238" y="539"/>
      <point x="247" y="578"/>
      <point x="250" y="597" type="curve"/>
      <point x="263" y="597"/>
      <point x="280" y="596"/>
      <point x="286" y="594" type="curve"/>
      <point x="275" y="513" type="line"/>
      <point x="293" y="513"/>
      <point x="326" y="507"/>
      <point x="353" y="500" type="curve"/>
      <point x="354" y="491"/>
      <point x="348" y="469"/>
      <point x="346" y="462" type="curve"/>
      <point x="303" y="469"/>
      <point x="270" y="471"/>
      <point x="247" y="471" type="curve" smooth="yes"/>
      <point x="206" y="471"/>
      <point x="190" y="443"/>
      <point x="191" y="420" type="curve" smooth="yes"/>
      <point x="192" y="400"/>
      <point x="207" y="390"/>
      <point x="250" y="362" type="curve" smooth="yes"/>
      <point x="305" y="326"/>
      <point x="347" y="289"/>
      <point x="347" y="222" type="curve" smooth="yes"/>
      <point x="347" y="170"/>
      <point x="311" y="94"/>
      <point x="200" y="82" type="curve"/>
      <point x="195" y="65"/>
      <point x="179" y="3"/>
      <point x="176" y="-16" type="curve"/>
      <point x="169" y="-18"/>
      <point x="146" y="-14"/>
    </contour>
  </outline>
</glyph>
<glyph name="ampersand" format="1">
  <advance width="664"/>
  <unicode hex="0026"/>
  <outline>
    <contour>
      <point x="419" y="600" type="curve"/>
      <point x="427" y="593"/>
      <point x="436" y="578"/>
      <point x="440" y="571" type="curve"/>
      <point x="365" y="525"/>
      <point x="335" y="494"/>
      <point x="335" y="429" type="curve" smooth="yes"/>
      <point x="335" y="356"/>
      <point x="390" y="239"/>
      <point x="434" y="176" type="curve"/>
      <point x="478" y="207"/>
      <point x="509" y="236"/>
      <point x="532" y="270" type="curve"/>
      <point x="568" y="275"/>
      <point x="621" y="288"/>
      <point x="665" y="300" type="curve"/>
      <point x="663" y="294" type="line"/>
      <point x="602" y="243"/>
      <point x="541" y="194"/>
      <point x="458" y="139" type="curve"/>
      <point x="486" y="99"/>
      <point x="538" y="40"/>
      <point x="613" y="4" type="curve"/>
      <point x="614" y="0" type="line"/>
      <point x="571" y="2"/>
      <point x="471" y="2"/>
      <point x="429" y="0" type="curve"/>
      <point x="404" y="23"/>
      <point x="375" y="64"/>
      <point x="360" y="87" type="curve"/>
      <point x="288" y="43"/>
      <point x="191" y="-6"/>
      <point x="130" y="-6" type="curve" smooth="yes"/>
      <point x="77" y="-6"/>
      <point x="2" y="66"/>
      <point x="25" y="172" type="curve" smooth="yes"/>
      <point x="47" y="276"/>
      <point x="146" y="315"/>
      <point x="237" y="361" type="curve"/>
      <point x="231" y="390"/>
      <point x="228" y="402"/>
      <point x="228" y="430" type="curve" smooth="yes"/>
      <point x="228" y="490"/>
      <point x="322" y="556"/>
    </contour>
    <contour>
      <point x="248" y="317" type="curve"/>
      <point x="188" y="288"/>
      <point x="155" y="268"/>
      <point x="139" y="211" type="curve"/>
      <point x="124" y="152"/>
      <point x="151" y="79"/>
      <point x="208" y="79" type="curve" smooth="yes"/>
      <point x="240" y="79"/>
      <point x="283" y="92"/>
      <point x="338" y="124" type="curve"/>
      <point x="318" y="154"/>
      <point x="273" y="235"/>
    </contour>
  </outline>
</glyph>
<glyph name="parenleft" format="1">
  <advance width="273"/>
  <unicode hex="0028"/>
  <outline>
    <contour>
      <point x="258" y="617" type="curve"/>
      <point x="268" y="618"/>
      <point x="288" y="609"/>
      <point x="294" y="604" type="curve"/>
      <point x="245" y="508"/>
      <point x="207" y="444"/>
      <point x="183" y="304" type="curve" smooth="yes"/>
      <point x="166" y="206"/>
      <point x="163" y="55"/>
      <point x="183" y="-89" type="curve"/>
      <point x="175" y="-94"/>
      <point x="158" y="-97"/>
      <point x="146" y="-97" type="curve"/>
      <point x="89" y="51"/>
      <point x="57" y="192"/>
      <point x="71" y="306" type="curve" smooth="yes"/>
      <point x="83" y="405"/>
      <point x="166" y="507"/>
    </contour>
  </outline>
</glyph>
<glyph name="parenright" format="1">
  <advance width="273"/>
  <unicode hex="0029"/>
  <outline>
    <contour>
      <point x="30" y="-97" type="curve"/>
      <point x="20" y="-98"/>
      <point x="1" y="-90"/>
      <point x="-5" y="-85" type="curve"/>
      <point x="64" y="57"/>
      <point x="95" y="156"/>
      <point x="118" y="296" type="curve" smooth="yes"/>
      <point x="134" y="394"/>
      <point x="124" y="501"/>
      <point x="101" y="606" type="curve"/>
      <point x="109" y="611"/>
      <point x="124" y="615"/>
      <point x="136" y="616" type="curve"/>
      <point x="203" y="502"/>
      <point x="242" y="394"/>
      <point x="230" y="300" type="curve" smooth="yes"/>
      <point x="217" y="194"/>
      <point x="146" y="64"/>
    </contour>
  </outline>
</glyph>
<glyph name="asterisk" format="1">
  <advance width="416"/>
  <unicode hex="002A"/>
  <outline>
    <contour>
      <point x="333" y="495" type="curve"/>
      <point x="337" y="486"/>
      <point x="337" y="466"/>
      <point x="335" y="459" type="curve"/>
      <point x="319" y="458"/>
      <point x="258" y="448"/>
      <point x="233" y="443" type="curve"/>
      <point x="243" y="414"/>
      <point x="273" y="352"/>
      <point x="280" y="336" type="curve"/>
      <point x="273" y="329"/>
      <point x="253" y="321"/>
      <point x="246" y="321" type="curve"/>
      <point x="241" y="336"/>
      <point x="207" y="402"/>
      <point x="195" y="424" type="curve"/>
      <point x="171" y="406"/>
      <point x="119" y="358"/>
      <point x="107" y="347" type="curve"/>
      <point x="98" y="353"/>
      <point x="86" y="367"/>
      <point x="83" y="373" type="curve"/>
      <point x="95" y="383"/>
      <point x="148" y="436"/>
      <point x="165" y="454" type="curve"/>
      <point x="140" y="472"/>
      <point x="94" y="502"/>
      <point x="79" y="510" type="curve"/>
      <point x="82" y="520"/>
      <point x="92" y="539"/>
      <point x="97" y="543" type="curve"/>
      <point x="110" y="535"/>
      <point x="164" y="505"/>
      <point x="186" y="493" type="curve"/>
      <point x="193" y="523"/>
      <point x="209" y="586"/>
      <point x="212" y="602" type="curve"/>
      <point x="223" y="603"/>
      <point x="241" y="598"/>
      <point x="247" y="596" type="curve"/>
      <point x="243" y="580"/>
      <point x="234" y="508"/>
      <point x="231" y="484" type="curve"/>
      <point x="261" y="485"/>
      <point x="316" y="492"/>
    </contour>
  </outline>
</glyph>
<glyph name="comma" format="1">
  <advance width="225"/>
  <unicode hex="002C"/>
  <outline>
    <contour>
      <point x="89" y="94" type="curve" smooth="yes"/>
      <point x="117" y="94"/>
      <point x="146" y="70"/>
      <point x="140" y="28" type="curve" smooth="yes"/>
      <point x="133" y="-26"/>
      <point x="55" y="-118"/>
      <point x="-2" y="-180" type="curve"/>
      <point x="-14" y="-176"/>
      <point x="-26" y="-166"/>
      <point x="-32" y="-157" type="curve"/>
      <point x="17" y="-99"/>
      <point x="31" y="-55"/>
      <point x="31" y="-26" type="curve" smooth="yes"/>
      <point x="31" y="-5"/>
      <point x="20" y="19"/>
      <point x="20" y="39" type="curve" smooth="yes"/>
      <point x="20" y="64"/>
      <point x="45" y="94"/>
    </contour>
  </outline>
</glyph>
<glyph name="hyphen" format="1">
  <advance width="283"/>
  <unicode hex="002D"/>
  <outline>
    <contour>
      <point x="47" y="271" type="curve"/>
      <point x="77" y="274"/>
      <point x="212" y="293"/>
      <point x="234" y="298" type="curve"/>
      <point x="236" y="286"/>
      <point x="240" y="260"/>
      <point x="234" y="241" type="curve"/>
      <point x="210" y="239"/>
      <point x="77" y="222"/>
      <point x="49" y="216" type="curve"/>
      <point x="46" y="226"/>
      <point x="46" y="260"/>
    </contour>
  </outline>
</glyph>
<glyph name="period" format="1">
  <advance width="243"/>
  <unicode hex="002E"/>
  <outline>
    <contour>
      <point x="88" y="95" type="curve" smooth="yes"/>
      <point x="127" y="95"/>
      <point x="147" y="76"/>
      <point x="147" y="48" type="curve" smooth="yes"/>
      <point x="147" y="14"/>
      <point x="108" y="-7"/>
      <point x="68" y="-7" type="curve" smooth="yes"/>
      <point x="36" y="-7"/>
      <point x="15" y="10"/>
      <point x="15" y="34" type="curve" smooth="yes"/>
      <point x="15" y="65"/>
      <point x="49" y="95"/>
    </contour>
  </outline>
</glyph>
<glyph name="slash" format="1">
  <advance width="297"/>
  <unicode hex="002F"/>
  <outline>
    <contour>
      <point x="313" y="596" type="curve"/>
      <point x="39" y="-51" type="line"/>
      <point x="28" y="-50"/>
      <point x="3" y="-50"/>
      <point x="-7" y="-43" type="curve"/>
      <point x="269" y="605" type="line"/>
      <point x="278" y="605"/>
      <point x="308" y="600"/>
    </contour>
  </outline>
</glyph>
<glyph name="zero" format="1">
  <advance width="480"/>
  <unicode hex="0030"/>
  <outline>
    <contour>
      <point x="327" y="592" type="curve" smooth="yes"/>
      <point x="395" y="592"/>
      <point x="468" y="550"/>
      <point x="460" y="357" type="curve" smooth="yes"/>
      <point x="458" y="293"/>
      <point x="438" y="166"/>
      <point x="342" y="58" type="curve" smooth="yes"/>
      <point x="326" y="40"/>
      <point x="246" y="-12"/>
      <point x="193" y="-12" type="curve" smooth="yes"/>
      <point x="60" y="-12"/>
      <point x="33" y="127"/>
      <point x="40" y="215" type="curve" smooth="yes"/>
      <point x="50" y="348"/>
      <point x="99" y="469"/>
      <point x="171" y="534" type="curve" smooth="yes"/>
      <point x="210" y="568"/>
      <point x="285" y="592"/>
    </contour>
    <contour>
      <point x="281" y="531" type="curve" smooth="yes"/>
      <point x="250" y="531"/>
      <point x="177" y="451"/>
      <point x="158" y="225" type="curve" smooth="yes"/>
      <point x="149" y="109"/>
      <point x="182" y="50"/>
      <point x="230" y="50" type="curve" smooth="yes"/>
      <point x="284" y="50"/>
      <point x="324" y="167"/>
      <point x="343" y="335" type="curve"/>
      <point x="361" y="484"/>
      <point x="317" y="531"/>
    </contour>
  </outline>
</glyph>
<glyph name="one" format="1">
  <advance width="384"/>
  <unicode hex="0031"/>
  <outline>
    <contour>
      <point x="97" y="-7" type="curve"/>
      <point x="148" y="147"/>
      <point x="189" y="379"/>
      <point x="206" y="495" type="curve"/>
      <point x="157" y="492"/>
      <point x="122" y="486"/>
      <point x="75" y="476" type="curve"/>
      <point x="71" y="480"/>
      <point x="67" y="509"/>
      <point x="67" y="516" type="curve"/>
      <point x="150" y="535"/>
      <point x="266" y="566"/>
      <point x="328" y="593" type="curve"/>
      <point x="338" y="590"/>
      <point x="337" y="590"/>
      <point x="346" y="581" type="curve"/>
      <point x="311" y="477"/>
      <point x="261" y="209"/>
      <point x="248" y="3" type="curve"/>
      <point x="209" y="4"/>
      <point x="136" y="3"/>
    </contour>
  </outline>
</glyph>
<glyph name="two" format="1">
  <advance width="439"/>
  <unicode hex="0032"/>
  <outline>
    <contour>
      <point x="97" y="552" type="curve"/>
      <point x="158" y="572"/>
      <point x="248" y="591"/>
      <point x="293" y="591" type="curve"/>
      <point x="354" y="594"/>
      <point x="416" y="568"/>
      <point x="416" y="492" type="curve" smooth="yes"/>
      <point x="416" y="400"/>
      <point x="316" y="263"/>
      <point x="170" y="128" type="curve"/>
      <point x="235" y="105"/>
      <point x="340" y="99"/>
      <point x="403" y="114" type="curve"/>
      <point x="382" y="82"/>
      <point x="367" y="18"/>
      <point x="366" y="-9" type="curve"/>
      <point x="268" y="-12"/>
      <point x="167" y="1"/>
      <point x="87" y="39" type="curve"/>
      <point x="55" y="20"/>
      <point x="36" y="4"/>
      <point x="12" y="-17" type="curve"/>
      <point x="0" y="-13"/>
      <point x="-16" y="-2"/>
      <point x="-22" y="7" type="curve"/>
      <point x="33" y="54"/>
      <point x="94" y="108"/>
      <point x="154" y="178" type="curve" smooth="yes"/>
      <point x="237" y="275"/>
      <point x="293" y="379"/>
      <point x="293" y="476" type="curve" smooth="yes"/>
      <point x="293" y="513"/>
      <point x="269" y="528"/>
      <point x="211" y="528" type="curve" smooth="yes"/>
      <point x="181" y="528"/>
      <point x="143" y="521"/>
      <point x="108" y="511" type="curve"/>
      <point x="102" y="517"/>
      <point x="97" y="543"/>
    </contour>
  </outline>
</glyph>
<glyph name="three" format="1">
  <advance width="417"/>
  <unicode hex="0033"/>
  <outline>
    <contour>
      <point x="80" y="560" type="curve"/>
      <point x="126" y="574"/>
      <point x="201" y="590"/>
      <point x="236" y="590" type="curve" smooth="yes"/>
      <point x="318" y="590"/>
      <point x="380" y="575"/>
      <point x="380" y="505" type="curve" smooth="yes"/>
      <point x="380" y="460"/>
      <point x="338" y="411"/>
      <point x="237" y="372" type="curve"/>
      <point x="238" y="367" type="line"/>
      <point x="340" y="370"/>
      <point x="381" y="330"/>
      <point x="381" y="254" type="curve" smooth="yes"/>
      <point x="381" y="142"/>
      <point x="233" y="22"/>
      <point x="5" y="-28" type="curve"/>
      <point x="-4" y="-20"/>
      <point x="-14" y="-4"/>
      <point x="-17" y="9" type="curve"/>
      <point x="95" y="28"/>
      <point x="257" y="117"/>
      <point x="257" y="245" type="curve" smooth="yes"/>
      <point x="257" y="296"/>
      <point x="240" y="329"/>
      <point x="172" y="329" type="curve" smooth="yes"/>
      <point x="146" y="329"/>
      <point x="136" y="327"/>
      <point x="122" y="324" type="curve"/>
      <point x="118" y="330"/>
      <point x="115" y="358"/>
      <point x="117" y="365" type="curve"/>
      <point x="235" y="388"/>
      <point x="260" y="453"/>
      <point x="260" y="492" type="curve" smooth="yes"/>
      <point x="260" y="521"/>
      <point x="240" y="536"/>
      <point x="198" y="536" type="curve" smooth="yes"/>
      <point x="167" y="536"/>
      <point x="122" y="529"/>
      <point x="92" y="521" type="curve"/>
      <point x="85" y="530"/>
      <point x="81" y="550"/>
    </contour>
  </outline>
</glyph>
<glyph name="four" format="1">
  <advance width="483"/>
  <unicode hex="0034"/>
  <outline>
    <contour>
      <point x="224" y="-3" type="curve"/>
      <point x="244" y="42"/>
      <point x="261" y="114"/>
      <point x="273" y="186" type="curve"/>
      <point x="196" y="188"/>
      <point x="97" y="189"/>
      <point x="39" y="187" type="curve"/>
      <point x="33" y="193"/>
      <point x="28" y="211"/>
      <point x="28" y="220" type="curve"/>
      <point x="149" y="346"/>
      <point x="267" y="478"/>
      <point x="378" y="605" type="curve"/>
      <point x="388" y="601"/>
      <point x="405" y="586"/>
      <point x="410" y="576" type="curve"/>
      <point x="308" y="468"/>
      <point x="217" y="360"/>
      <point x="113" y="236" type="curve"/>
      <point x="176" y="233"/>
      <point x="231" y="234"/>
      <point x="282" y="233" type="curve"/>
      <point x="287" y="261"/>
      <point x="298" y="317"/>
      <point x="299" y="369" type="curve"/>
      <point x="325" y="372"/>
      <point x="400" y="380"/>
      <point x="434" y="393" type="curve"/>
      <point x="419" y="355"/>
      <point x="412" y="334"/>
      <point x="392" y="234" type="curve"/>
      <point x="407" y="234"/>
      <point x="421" y="235"/>
      <point x="439" y="236" type="curve"/>
      <point x="437" y="221"/>
      <point x="433" y="195"/>
      <point x="427" y="183" type="curve"/>
      <point x="403" y="183"/>
      <point x="395" y="184"/>
      <point x="386" y="184" type="curve"/>
      <point x="379" y="150"/>
      <point x="361" y="51"/>
      <point x="360" y="0" type="curve"/>
      <point x="336" y="3"/>
      <point x="256" y="2"/>
    </contour>
  </outline>
</glyph>
<glyph name="five" format="1">
  <advance width="393"/>
  <unicode hex="0035"/>
  <outline>
    <contour>
      <point x="130" y="591" type="curve"/>
      <point x="135" y="594"/>
      <point x="162" y="593"/>
      <point x="171" y="592" type="curve"/>
      <point x="168" y="583"/>
      <point x="164" y="574"/>
      <point x="162" y="566" type="curve"/>
      <point x="234" y="563"/>
      <point x="321" y="574"/>
      <point x="385" y="597" type="curve"/>
      <point x="358" y="559"/>
      <point x="340" y="515"/>
      <point x="332" y="482" type="curve"/>
      <point x="299" y="475"/>
      <point x="191" y="476"/>
      <point x="143" y="482" type="curve"/>
      <point x="136" y="462"/>
      <point x="129" y="425"/>
      <point x="125" y="407" type="curve"/>
      <point x="283" y="398"/>
      <point x="350" y="359"/>
      <point x="350" y="253" type="curve" smooth="yes"/>
      <point x="350" y="118"/>
      <point x="194" y="20"/>
      <point x="57" y="-27" type="curve"/>
      <point x="50" y="-22"/>
      <point x="37" y="-5"/>
      <point x="33" y="7" type="curve"/>
      <point x="141" y="47"/>
      <point x="234" y="119"/>
      <point x="234" y="238" type="curve" smooth="yes"/>
      <point x="234" y="342"/>
      <point x="94" y="345"/>
      <point x="60" y="345" type="curve"/>
      <point x="87" y="400"/>
      <point x="122" y="545"/>
    </contour>
  </outline>
</glyph>
<glyph name="six" format="1">
  <advance width="478"/>
  <unicode hex="0036"/>
  <outline>
    <contour>
      <point x="377" y="595" type="curve"/>
      <point x="388" y="591"/>
      <point x="403" y="576"/>
      <point x="407" y="566" type="curve"/>
      <point x="308" y="499"/>
      <point x="154" y="340"/>
      <point x="154" y="156" type="curve" smooth="yes"/>
      <point x="154" y="72"/>
      <point x="184" y="42"/>
      <point x="230" y="42" type="curve" smooth="yes"/>
      <point x="298" y="42"/>
      <point x="319" y="112"/>
      <point x="319" y="157" type="curve" smooth="yes"/>
      <point x="319" y="217"/>
      <point x="291" y="228"/>
      <point x="271" y="228" type="curve" smooth="yes"/>
      <point x="257" y="228"/>
      <point x="247" y="227"/>
      <point x="228" y="224" type="curve"/>
      <point x="223" y="231"/>
      <point x="218" y="256"/>
      <point x="217" y="265" type="curve"/>
      <point x="256" y="278"/>
      <point x="292" y="284"/>
      <point x="320" y="284" type="curve" smooth="yes"/>
      <point x="406" y="284"/>
      <point x="438" y="236"/>
      <point x="438" y="176" type="curve" smooth="yes"/>
      <point x="438" y="50"/>
      <point x="282" y="-17"/>
      <point x="207" y="-17" type="curve" smooth="yes"/>
      <point x="60" y="-17"/>
      <point x="32" y="79"/>
      <point x="32" y="149" type="curve" smooth="yes"/>
      <point x="32" y="318"/>
      <point x="251" y="512"/>
    </contour>
  </outline>
</glyph>
<glyph name="seven" format="1">
  <advance width="419"/>
  <unicode hex="0037"/>
  <outline>
    <contour>
      <point x="51" y="-27" type="curve"/>
      <point x="105" y="111"/>
      <point x="212" y="301"/>
      <point x="334" y="458" type="curve"/>
      <point x="260" y="453"/>
      <point x="146" y="461"/>
      <point x="63" y="468" type="curve"/>
      <point x="85" y="509"/>
      <point x="99" y="555"/>
      <point x="105" y="598" type="curve"/>
      <point x="201" y="568"/>
      <point x="278" y="549"/>
      <point x="400" y="551" type="curve"/>
      <point x="422" y="574"/>
      <point x="432" y="586"/>
      <point x="453" y="605" type="curve"/>
      <point x="464" y="604"/>
      <point x="480" y="596"/>
      <point x="488" y="591" type="curve"/>
      <point x="441" y="543"/>
      <point x="406" y="494"/>
      <point x="365" y="431" type="curve" smooth="yes"/>
      <point x="284" y="308"/>
      <point x="203" y="155"/>
      <point x="183" y="12" type="curve"/>
      <point x="154" y="7"/>
      <point x="92" y="-4"/>
    </contour>
  </outline>
</glyph>
<glyph name="eight" format="1">
  <advance width="463"/>
  <unicode hex="0038"/>
  <outline>
    <contour>
      <point x="350" y="579" type="curve"/>
      <point x="352" y="571"/>
      <point x="345" y="547"/>
      <point x="340" y="538" type="curve"/>
      <point x="323" y="541"/>
      <point x="298" y="544"/>
      <point x="281" y="544" type="curve" smooth="yes"/>
      <point x="213" y="544"/>
      <point x="186" y="503"/>
      <point x="187" y="470" type="curve" smooth="yes"/>
      <point x="188" y="447"/>
      <point x="201" y="419"/>
      <point x="272" y="390" type="curve"/>
      <point x="362" y="449"/>
      <point x="390" y="507"/>
      <point x="424" y="601" type="curve"/>
      <point x="435" y="601"/>
      <point x="449" y="599"/>
      <point x="458" y="595" type="curve"/>
      <point x="435" y="464"/>
      <point x="423" y="442"/>
      <point x="312" y="369" type="curve"/>
      <point x="359" y="348"/>
      <point x="429" y="304"/>
      <point x="424" y="214" type="curve"/>
      <point x="414" y="70"/>
      <point x="279" y="-11"/>
      <point x="181" y="-11" type="curve" smooth="yes"/>
      <point x="47" y="-11"/>
      <point x="22" y="77"/>
      <point x="22" y="128" type="curve" smooth="yes"/>
      <point x="22" y="200"/>
      <point x="68" y="264"/>
      <point x="163" y="320" type="curve"/>
      <point x="109" y="355"/>
      <point x="98" y="396"/>
      <point x="100" y="443" type="curve" smooth="yes"/>
      <point x="104" y="512"/>
      <point x="173" y="590"/>
      <point x="286" y="588" type="curve" smooth="yes"/>
      <point x="300" y="588"/>
      <point x="335" y="583"/>
    </contour>
    <contour>
      <point x="203" y="298" type="curve"/>
      <point x="148" y="258"/>
      <point x="128" y="203"/>
      <point x="128" y="153" type="curve"/>
      <point x="129" y="112"/>
      <point x="153" y="61"/>
      <point x="217" y="61" type="curve" smooth="yes"/>
      <point x="295" y="61"/>
      <point x="333" y="105"/>
      <point x="333" y="170" type="curve" smooth="yes"/>
      <point x="333" y="223"/>
      <point x="281" y="264"/>
    </contour>
  </outline>
</glyph>
<glyph name="nine" format="1">
  <advance width="465"/>
  <unicode hex="0039"/>
  <outline>
    <contour>
      <point x="114" y="-21" type="curve"/>
      <point x="107" y="-18"/>
      <point x="89" y="3"/>
      <point x="84" y="9" type="curve"/>
      <point x="171" y="74"/>
      <point x="335" y="234"/>
      <point x="335" y="418" type="curve" smooth="yes"/>
      <point x="335" y="516"/>
      <point x="299" y="536"/>
      <point x="260" y="536" type="curve" smooth="yes"/>
      <point x="213" y="536"/>
      <point x="168" y="479"/>
      <point x="168" y="413" type="curve" smooth="yes"/>
      <point x="168" y="363"/>
      <point x="186" y="346"/>
      <point x="209" y="346" type="curve" smooth="yes"/>
      <point x="226" y="346"/>
      <point x="240" y="347"/>
      <point x="260" y="352" type="curve"/>
      <point x="265" y="345"/>
      <point x="270" y="322"/>
      <point x="271" y="313" type="curve"/>
      <point x="231" y="298"/>
      <point x="201" y="290"/>
      <point x="177" y="290" type="curve" smooth="yes"/>
      <point x="76" y="290"/>
      <point x="54" y="353"/>
      <point x="54" y="399" type="curve" smooth="yes"/>
      <point x="54" y="513"/>
      <point x="182" y="592"/>
      <point x="283" y="592" type="curve" smooth="yes"/>
      <point x="401" y="592"/>
      <point x="457" y="539"/>
      <point x="457" y="425" type="curve" smooth="yes"/>
      <point x="457" y="265"/>
      <point x="263" y="87"/>
    </contour>
  </outline>
</glyph>
<glyph name="colon" format="1">
  <advance width="209"/>
  <unicode hex="003A"/>
  <outline>
    <contour>
      <point x="131" y="359" type="curve" smooth="yes"/>
      <point x="170" y="359"/>
      <point x="190" y="340"/>
      <point x="190" y="312" type="curve" smooth="yes"/>
      <point x="190" y="278"/>
      <point x="151" y="257"/>
      <point x="111" y="257" type="curve" smooth="yes"/>
      <point x="79" y="257"/>
      <point x="58" y="274"/>
      <point x="58" y="298" type="curve" smooth="yes"/>
      <point x="58" y="329"/>
      <point x="92" y="359"/>
    </contour>
    <contour>
      <point x="86" y="95" type="curve" smooth="yes"/>
      <point x="125" y="95"/>
      <point x="145" y="76"/>
      <point x="145" y="48" type="curve" smooth="yes"/>
      <point x="145" y="14"/>
      <point x="106" y="-7"/>
      <point x="66" y="-7" type="curve" smooth="yes"/>
      <point x="34" y="-7"/>
      <point x="13" y="10"/>
      <point x="13" y="34" type="curve" smooth="yes"/>
      <point x="13" y="65"/>
      <point x="47" y="95"/>
    </contour>
  </outline>
</glyph>
<glyph name="semicolon" format="1">
  <advance width="232"/>
  <unicode hex="003B"/>
  <outline>
    <contour>
      <point x="93" y="94" type="curve" smooth="yes"/>
      <point x="121" y="94"/>
      <point x="147" y="68"/>
      <point x="142" y="28" type="curve" smooth="yes"/>
      <point x="136" y="-26"/>
      <point x="55" y="-118"/>
      <point x="-4" y="-180" type="curve"/>
      <point x="-15" y="-176"/>
      <point x="-27" y="-166"/>
      <point x="-33" y="-157" type="curve"/>
      <point x="15" y="-103"/>
      <point x="39" y="-55"/>
      <point x="39" y="-26" type="curve" smooth="yes"/>
      <point x="39" y="-5"/>
      <point x="27" y="19"/>
      <point x="27" y="39" type="curve" smooth="yes"/>
      <point x="27" y="64"/>
      <point x="50" y="94"/>
    </contour>
    <contour>
      <point x="137" y="359" type="curve" smooth="yes"/>
      <point x="176" y="359"/>
      <point x="196" y="340"/>
      <point x="196" y="312" type="curve" smooth="yes"/>
      <point x="196" y="278"/>
      <point x="157" y="257"/>
      <point x="117" y="257" type="curve" smooth="yes"/>
      <point x="85" y="257"/>
      <point x="64" y="274"/>
      <point x="64" y="298" type="curve" smooth="yes"/>
      <point x="64" y="329"/>
      <point x="98" y="359"/>
    </contour>
  </outline>
</glyph>
<glyph name="less" format="1">
  <advance width="416"/>
  <unicode hex="003C"/>
  <outline>
    <contour>
      <point x="25" y="210" type="curve"/>
      <point x="133" y="266"/>
      <point x="277" y="347"/>
      <point x="320" y="375" type="curve"/>
      <point x="330" y="366"/>
      <point x="334" y="347"/>
      <point x="337" y="336" type="curve"/>
      <point x="276" y="303"/>
      <point x="152" y="238"/>
      <point x="91" y="202" type="curve"/>
      <point x="333" y="57" type="line"/>
      <point x="328" y="46"/>
      <point x="325" y="27"/>
      <point x="313" y="20" type="curve"/>
      <point x="253" y="58"/>
      <point x="126" y="136"/>
      <point x="25" y="192" type="curve"/>
      <point x="24" y="198"/>
      <point x="24" y="205"/>
    </contour>
  </outline>
</glyph>
<glyph name="equal" format="1">
  <advance width="416"/>
  <unicode hex="003D"/>
  <outline>
    <contour>
      <point x="45" y="302" type="curve"/>
      <point x="146" y="300"/>
      <point x="286" y="300"/>
      <point x="361" y="300" type="curve"/>
      <point x="362" y="290"/>
      <point x="360" y="269"/>
      <point x="355" y="259" type="curve"/>
      <point x="258" y="261"/>
      <point x="167" y="262"/>
      <point x="42" y="261" type="curve"/>
      <point x="39" y="270"/>
      <point x="43" y="296"/>
    </contour>
    <contour>
      <point x="45" y="185" type="curve"/>
      <point x="146" y="182"/>
      <point x="286" y="182"/>
      <point x="361" y="183" type="curve"/>
      <point x="362" y="172"/>
      <point x="360" y="152"/>
      <point x="355" y="142" type="curve"/>
      <point x="258" y="145"/>
      <point x="167" y="146"/>
      <point x="42" y="145" type="curve"/>
      <point x="39" y="153"/>
      <point x="43" y="179"/>
    </contour>
  </outline>
</glyph>
<glyph name="greater" format="1">
  <advance width="416"/>
  <unicode hex="003E"/>
  <outline>
    <contour>
      <point x="368" y="185" type="curve"/>
      <point x="261" y="129"/>
      <point x="117" y="47"/>
      <point x="72" y="20" type="curve"/>
      <point x="62" y="29"/>
      <point x="59" y="49"/>
      <point x="56" y="60" type="curve"/>
      <point x="117" y="93"/>
      <point x="241" y="157"/>
      <point x="301" y="193" type="curve"/>
      <point x="60" y="337" type="line"/>
      <point x="64" y="349"/>
      <point x="68" y="368"/>
      <point x="81" y="375" type="curve"/>
      <point x="141" y="337"/>
      <point x="267" y="259"/>
      <point x="368" y="202" type="curve"/>
      <point x="370" y="196"/>
      <point x="370" y="191"/>
    </contour>
  </outline>
</glyph>
<glyph name="question" format="1">
  <advance width="256"/>
  <unicode hex="003F"/>
  <outline>
    <contour>
      <point x="105" y="147" type="curve"/>
      <point x="77" y="191"/>
      <point x="59" y="221"/>
      <point x="60" y="259" type="curve"/>
      <point x="60" y="313"/>
      <point x="148" y="387"/>
      <point x="150" y="434" type="curve" smooth="yes"/>
      <point x="152" y="479"/>
      <point x="147" y="524"/>
      <point x="115" y="581" type="curve"/>
      <point x="124" y="589"/>
      <point x="137" y="597"/>
      <point x="149" y="600" type="curve"/>
      <point x="206" y="539"/>
      <point x="259" y="452"/>
      <point x="258" y="412" type="curve" smooth="yes"/>
      <point x="256" y="333"/>
      <point x="134" y="284"/>
      <point x="134" y="208" type="curve" smooth="yes"/>
      <point x="134" y="187"/>
      <point x="136" y="174"/>
      <point x="140" y="161" type="curve"/>
      <point x="132" y="156"/>
      <point x="115" y="147"/>
    </contour>
    <contour>
      <point x="100" y="95" type="curve" smooth="yes"/>
      <point x="139" y="95"/>
      <point x="160" y="76"/>
      <point x="160" y="48" type="curve" smooth="yes"/>
      <point x="160" y="14"/>
      <point x="121" y="-7"/>
      <point x="80" y="-7" type="curve" smooth="yes"/>
      <point x="49" y="-7"/>
      <point x="27" y="10"/>
      <point x="27" y="34" type="curve" smooth="yes"/>
      <point x="27" y="65"/>
      <point x="62" y="95"/>
    </contour>
  </outline>
</glyph>
<glyph name="at" format="1">
  <advance width="746"/>
  <unicode hex="0040"/>
  <outline>
    <contour>
      <point x="517" y="165" type="curve" smooth="yes"/>
      <point x="512" y="131"/>
      <point x="517" y="91"/>
      <point x="537" y="78" type="curve"/>
      <point x="633" y="126"/>
      <point x="684" y="215"/>
      <point x="684" y="344" type="curve" smooth="yes"/>
      <point x="684" y="477"/>
      <point x="572" y="518"/>
      <point x="476" y="518" type="curve" smooth="yes"/>
      <point x="271" y="518"/>
      <point x="78" y="341"/>
      <point x="78" y="117" type="curve" smooth="yes"/>
      <point x="78" y="-46"/>
      <point x="163" y="-136"/>
      <point x="309" y="-136" type="curve" smooth="yes"/>
      <point x="347" y="-136"/>
      <point x="418" y="-119"/>
      <point x="442" y="-111" type="curve"/>
      <point x="454" y="-146" type="line"/>
      <point x="418" y="-160"/>
      <point x="340" y="-180"/>
      <point x="302" y="-180" type="curve" smooth="yes"/>
      <point x="120" y="-180"/>
      <point x="27" y="-63"/>
      <point x="27" y="113" type="curve" smooth="yes"/>
      <point x="27" y="369"/>
      <point x="259" y="558"/>
      <point x="483" y="558" type="curve" smooth="yes"/>
      <point x="591" y="558"/>
      <point x="730" y="506"/>
      <point x="730" y="345" type="curve" smooth="yes"/>
      <point x="730" y="206"/>
      <point x="672" y="73"/>
      <point x="458" y="-14" type="curve"/>
      <point x="437" y="0"/>
      <point x="410" y="17"/>
      <point x="397" y="72" type="curve" smooth="yes"/>
      <point x="394" y="86"/>
      <point x="395" y="119"/>
      <point x="402" y="150" type="curve"/>
      <point x="341" y="96"/>
      <point x="305" y="56"/>
      <point x="223" y="-13" type="curve"/>
      <point x="189" y="11"/>
      <point x="170" y="72"/>
      <point x="170" y="119" type="curve" smooth="yes"/>
      <point x="170" y="216"/>
      <point x="238" y="386"/>
      <point x="422" y="391" type="curve" smooth="yes"/>
      <point x="465" y="392"/>
      <point x="549" y="391"/>
      <point x="584" y="388" type="curve"/>
      <point x="572" y="375"/>
      <point x="563" y="353"/>
      <point x="553" y="324" type="curve" smooth="yes"/>
      <point x="539" y="279"/>
      <point x="526" y="221"/>
    </contour>
    <contour>
      <point x="444" y="348" type="curve"/>
      <point x="437" y="349"/>
      <point x="429" y="349"/>
      <point x="423" y="349" type="curve" smooth="yes"/>
      <point x="318" y="348"/>
      <point x="280" y="251"/>
      <point x="280" y="172" type="curve" smooth="yes"/>
      <point x="280" y="146"/>
      <point x="283" y="121"/>
      <point x="294" y="107" type="curve"/>
      <point x="332" y="135"/>
      <point x="387" y="183"/>
      <point x="414" y="211" type="curve"/>
      <point x="422" y="237"/>
      <point x="443" y="316"/>
    </contour>
  </outline>
</glyph>
<glyph name="B" format="1">
  <advance width="561"/>
  <unicode hex="0042"/>
  <outline>
    <contour>
      <point x="129" y="583" type="curve"/>
      <point x="197" y="578"/>
      <point x="326" y="588"/>
      <point x="398" y="583" type="curve"/>
      <point x="490" y="578"/>
      <point x="533" y="531"/>
      <point x="524" y="481" type="curve" smooth="yes"/>
      <point x="517" y="442"/>
      <point x="484" y="383"/>
      <point x="387" y="345" type="curve"/>
      <point x="387" y="340" type="line"/>
      <point x="484" y="337"/>
      <point x="540" y="308"/>
      <point x="536" y="231" type="curve" smooth="yes"/>
      <point x="531" y="134"/>
      <point x="412" y="7"/>
      <point x="215" y="-2" type="curve"/>
      <point x="180" y="-2"/>
      <point x="70" y="-4"/>
      <point x="32" y="-1" type="curve"/>
      <point x="63" y="75"/>
      <point x="130" y="502"/>
    </contour>
    <contour>
      <point x="245" y="538" type="curve"/>
      <point x="207" y="332"/>
      <point x="193" y="234"/>
      <point x="169" y="47" type="curve"/>
      <point x="179" y="45"/>
      <point x="202" y="45"/>
      <point x="214" y="45" type="curve" smooth="yes"/>
      <point x="308" y="46"/>
      <point x="390" y="109"/>
      <point x="407" y="216" type="curve"/>
      <point x="416" y="280"/>
      <point x="370" y="315"/>
      <point x="287" y="304" type="curve"/>
      <point x="284" y="310"/>
      <point x="280" y="333"/>
      <point x="281" y="341" type="curve"/>
      <point x="347" y="355"/>
      <point x="388" y="398"/>
      <point x="396" y="462" type="curve" smooth="yes"/>
      <point x="403" y="514"/>
      <point x="366" y="540"/>
      <point x="309" y="541" type="curve" smooth="yes"/>
      <point x="288" y="541"/>
      <point x="271" y="541"/>
    </contour>
  </outline>
</glyph>
<glyph name="F" format="1">
  <advance width="464"/>
  <unicode hex="0046"/>
  <outline>
    <contour>
      <point x="501" y="584" type="curve"/>
      <point x="489" y="541" type="line"/>
      <point x="389" y="538"/>
      <point x="320" y="533"/>
      <point x="227" y="526" type="curve"/>
      <point x="221" y="502"/>
      <point x="206" y="409"/>
      <point x="197" y="335" type="curve"/>
      <point x="277" y="335"/>
      <point x="370" y="339"/>
      <point x="445" y="345" type="curve"/>
      <point x="439" y="302" type="line"/>
      <point x="414" y="301"/>
      <point x="256" y="291"/>
      <point x="188" y="282" type="curve"/>
      <point x="178" y="224"/>
      <point x="159" y="53"/>
      <point x="164" y="-2" type="curve"/>
      <point x="139" y="2"/>
      <point x="44" y="3"/>
      <point x="21" y="0" type="curve"/>
      <point x="43" y="57"/>
      <point x="111" y="494"/>
      <point x="106" y="583" type="curve"/>
      <point x="190" y="579"/>
      <point x="389" y="578"/>
    </contour>
  </outline>
</glyph>
<glyph name="H" format="1">
  <advance width="682"/>
  <unicode hex="0048"/>
  <outline>
    <contour>
      <point x="125" y="583" type="curve"/>
      <point x="142" y="582"/>
      <point x="245" y="580"/>
      <point x="266" y="583" type="curve"/>
      <point x="244" y="507"/>
      <point x="220" y="392"/>
      <point x="212" y="340" type="curve"/>
      <point x="288" y="342"/>
      <point x="431" y="348"/>
      <point x="513" y="354" type="curve"/>
      <point x="525" y="430"/>
      <point x="537" y="533"/>
      <point x="538" y="583" type="curve"/>
      <point x="563" y="580"/>
      <point x="655" y="579"/>
      <point x="680" y="583" type="curve"/>
      <point x="638" y="465"/>
      <point x="586" y="100"/>
      <point x="584" y="-2" type="curve"/>
      <point x="567" y="-1"/>
      <point x="469" y="1"/>
      <point x="447" y="-2" type="curve"/>
      <point x="466" y="69"/>
      <point x="493" y="243"/>
      <point x="506" y="312" type="curve"/>
      <point x="459" y="310"/>
      <point x="266" y="295"/>
      <point x="201" y="288" type="curve"/>
      <point x="190" y="230"/>
      <point x="167" y="62"/>
      <point x="166" y="-2" type="curve"/>
      <point x="141" y="1"/>
      <point x="54" y="3"/>
      <point x="29" y="0" type="curve"/>
      <point x="62" y="117"/>
      <point x="122" y="474"/>
    </contour>
  </outline>
</glyph>
<glyph name="J" format="1">
  <advance width="255"/>
  <unicode hex="004A"/>
  <outline>
    <contour>
      <point x="114" y="583" type="curve"/>
      <point x="140" y="580"/>
      <point x="227" y="579"/>
      <point x="252" y="583" type="curve"/>
      <point x="224" y="494"/>
      <point x="190" y="269"/>
      <point x="166" y="122" type="curve" smooth="yes"/>
      <point x="150" y="19"/>
      <point x="90" y="-154"/>
      <point x="-95" y="-239" type="curve" smooth="yes"/>
      <point x="-159" y="-268"/>
      <point x="-199" y="-263"/>
      <point x="-241" y="-226" type="curve"/>
      <point x="-238" y="-219"/>
      <point x="-228" y="-197"/>
      <point x="-218" y="-187" type="curve"/>
      <point x="-199" y="-194"/>
      <point x="-184" y="-202"/>
      <point x="-147" y="-201" type="curve"/>
      <point x="-105" y="-201"/>
      <point x="3" y="-159"/>
      <point x="49" y="81" type="curve" smooth="yes"/>
      <point x="82" y="255"/>
      <point x="110" y="451"/>
    </contour>
  </outline>
</glyph>
<glyph name="K" format="1">
  <advance width="620"/>
  <unicode hex="004B"/>
  <outline>
    <contour>
      <point x="631" y="601" type="curve"/>
      <point x="632" y="596" type="line"/>
      <point x="620" y="575"/>
      <point x="590" y="508"/>
      <point x="584" y="488" type="curve"/>
      <point x="506" y="463"/>
      <point x="405" y="422"/>
      <point x="359" y="402" type="curve"/>
      <point x="388" y="339"/>
      <point x="510" y="100"/>
      <point x="594" y="-2" type="curve"/>
      <point x="560" y="2"/>
      <point x="467" y="2"/>
      <point x="428" y="-2" type="curve"/>
      <point x="402" y="84"/>
      <point x="310" y="270"/>
      <point x="262" y="360" type="curve"/>
      <point x="243" y="354"/>
      <point x="225" y="345"/>
      <point x="206" y="337" type="curve"/>
      <point x="198" y="305"/>
      <point x="167" y="88"/>
      <point x="171" y="-3" type="curve"/>
      <point x="141" y="3"/>
      <point x="48" y="3"/>
      <point x="20" y="-2" type="curve"/>
      <point x="68" y="118"/>
      <point x="124" y="526"/>
      <point x="114" y="586" type="curve"/>
      <point x="129" y="579"/>
      <point x="222" y="579"/>
      <point x="254" y="583" type="curve"/>
      <point x="236" y="530"/>
      <point x="219" y="430"/>
      <point x="213" y="385" type="curve"/>
      <point x="348" y="439"/>
      <point x="528" y="539"/>
    </contour>
  </outline>
</glyph>
<glyph name="M" format="1">
  <advance width="892"/>
  <unicode hex="004D"/>
  <outline>
    <contour>
      <point x="-24" y="-10" type="curve"/>
      <point x="48" y="71"/>
      <point x="167" y="310"/>
      <point x="237" y="452" type="curve" smooth="yes"/>
      <point x="252" y="483"/>
      <point x="277" y="549"/>
      <point x="282" y="583" type="curve"/>
      <point x="298" y="585"/>
      <point x="311" y="587"/>
      <point x="327" y="592" type="curve"/>
      <point x="343" y="482"/>
      <point x="379" y="354"/>
      <point x="411" y="244" type="curve" smooth="yes"/>
      <point x="421" y="210"/>
      <point x="425" y="196"/>
      <point x="432" y="162" type="curve"/>
      <point x="502" y="263"/>
      <point x="596" y="407"/>
      <point x="623" y="454" type="curve" smooth="yes"/>
      <point x="652" y="505"/>
      <point x="678" y="555"/>
      <point x="685" y="582" type="curve"/>
      <point x="698" y="583"/>
      <point x="720" y="586"/>
      <point x="731" y="591" type="curve"/>
      <point x="737" y="432"/>
      <point x="782" y="165"/>
      <point x="824" y="-2" type="curve"/>
      <point x="798" y="3"/>
      <point x="703" y="1"/>
      <point x="682" y="-2" type="curve"/>
      <point x="673" y="145"/>
      <point x="663" y="223"/>
      <point x="648" y="318" type="curve"/>
      <point x="646" y="338"/>
      <point x="641" y="367"/>
      <point x="639" y="389" type="curve"/>
      <point x="628" y="370"/>
      <point x="611" y="344"/>
      <point x="599" y="326" type="curve" smooth="yes"/>
      <point x="521" y="206"/>
      <point x="469" y="115"/>
      <point x="410" y="5" type="curve"/>
      <point x="400" y="-3"/>
      <point x="376" y="-11"/>
      <point x="354" y="-17" type="curve"/>
      <point x="315" y="155"/>
      <point x="308" y="194"/>
      <point x="282" y="288" type="curve" smooth="yes"/>
      <point x="275" y="313"/>
      <point x="263" y="353"/>
      <point x="257" y="386" type="curve"/>
      <point x="183" y="239"/>
      <point x="140" y="156"/>
      <point x="88" y="5" type="curve"/>
      <point x="62" y="3"/>
      <point x="7" y="-5"/>
    </contour>
  </outline>
</glyph>
<glyph name="N" format="1">
  <advance width="662"/>
  <unicode hex="004E"/>
  <outline>
    <contour>
      <point x="511" y="-12" type="curve"/>
      <point x="432" y="117"/>
      <point x="294" y="265"/>
      <point x="219" y="342" type="curve" smooth="yes"/>
      <point x="196" y="365"/>
      <point x="179" y="384"/>
      <point x="167" y="400" type="curve"/>
      <point x="140" y="266"/>
      <point x="118" y="39"/>
      <point x="120" y="7" type="curve"/>
      <point x="88" y="4"/>
      <point x="48" y="-2"/>
      <point x="15" y="-17" type="curve"/>
      <point x="59" y="80"/>
      <point x="97" y="269"/>
      <point x="127" y="455" type="curve" smooth="yes"/>
      <point x="132" y="486"/>
      <point x="136" y="556"/>
      <point x="134" y="582" type="curve"/>
      <point x="143" y="586"/>
      <point x="160" y="592"/>
      <point x="171" y="593" type="curve"/>
      <point x="248" y="477"/>
      <point x="347" y="364"/>
      <point x="464" y="243" type="curve" smooth="yes"/>
      <point x="484" y="222"/>
      <point x="503" y="203"/>
      <point x="518" y="181" type="curve"/>
      <point x="550" y="354"/>
      <point x="562" y="482"/>
      <point x="565" y="582" type="curve"/>
      <point x="591" y="582"/>
      <point x="643" y="588"/>
      <point x="666" y="598" type="curve"/>
      <point x="632" y="542"/>
      <point x="588" y="326"/>
      <point x="557" y="117" type="curve" smooth="yes"/>
      <point x="553" y="89"/>
      <point x="550" y="27"/>
      <point x="550" y="-4" type="curve"/>
      <point x="543" y="-10"/>
      <point x="523" y="-12"/>
    </contour>
  </outline>
</glyph>
<glyph name="P" format="1">
  <advance width="525"/>
  <unicode hex="0050"/>
  <outline>
    <contour>
      <point x="17" y="-1" type="curve"/>
      <point x="45" y="83"/>
      <point x="122" y="505"/>
      <point x="117" y="583" type="curve"/>
      <point x="154" y="579"/>
      <point x="241" y="583"/>
      <point x="320" y="583" type="curve" smooth="yes"/>
      <point x="424" y="583"/>
      <point x="545" y="586"/>
      <point x="543" y="481" type="curve" smooth="yes"/>
      <point x="542" y="380"/>
      <point x="438" y="290"/>
      <point x="265" y="248" type="curve"/>
      <point x="259" y="257"/>
      <point x="256" y="283"/>
      <point x="257" y="286" type="curve"/>
      <point x="380" y="321"/>
      <point x="412" y="389"/>
      <point x="415" y="461" type="curve" smooth="yes"/>
      <point x="417" y="509"/>
      <point x="380" y="534"/>
      <point x="316" y="534" type="curve" smooth="yes"/>
      <point x="277" y="534"/>
      <point x="252" y="532"/>
      <point x="233" y="529" type="curve"/>
      <point x="208" y="418"/>
      <point x="153" y="52"/>
      <point x="166" y="-1" type="curve"/>
      <point x="148" y="2"/>
      <point x="42" y="2"/>
    </contour>
  </outline>
</glyph>
<glyph name="Q" format="1">
  <advance width="671"/>
  <unicode hex="0051"/>
  <outline>
    <contour>
      <point x="420" y="596" type="curve" smooth="yes"/>
      <point x="532" y="596"/>
      <point x="645" y="508"/>
      <point x="645" y="361" type="curve" smooth="yes"/>
      <point x="645" y="253"/>
      <point x="614" y="161"/>
      <point x="544" y="84" type="curve" smooth="yes"/>
      <point x="515" y="53"/>
      <point x="455" y="20"/>
      <point x="394" y="1" type="curve"/>
      <point x="529" y="-8"/>
      <point x="616" y="-42"/>
      <point x="687" y="-76" type="curve"/>
      <point x="638" y="-97"/>
      <point x="585" y="-131"/>
      <point x="558" y="-160" type="curve"/>
      <point x="521" y="-94"/>
      <point x="441" y="-32"/>
      <point x="277" y="-15" type="curve"/>
      <point x="280" y="-14" type="line"/>
      <point x="65" y="-5"/>
      <point x="43" y="172"/>
      <point x="43" y="232" type="curve" smooth="yes"/>
      <point x="45" y="353"/>
      <point x="102" y="467"/>
      <point x="187" y="527" type="curve" smooth="yes"/>
      <point x="228" y="557"/>
      <point x="330" y="596"/>
    </contour>
    <contour>
      <point x="347" y="43" type="curve" smooth="yes"/>
      <point x="444" y="46"/>
      <point x="526" y="153"/>
      <point x="526" y="345" type="curve" smooth="yes"/>
      <point x="526" y="503"/>
      <point x="407" y="541"/>
      <point x="340" y="534" type="curve"/>
      <point x="245" y="526"/>
      <point x="162" y="394"/>
      <point x="162" y="246" type="curve" smooth="yes"/>
      <point x="162" y="119"/>
      <point x="229" y="40"/>
    </contour>
  </outline>
</glyph>
<glyph name="S" format="1">
  <advance width="321"/>
  <unicode hex="0053"/>
  <outline>
    <contour>
      <point x="269" y="564" type="curve"/>
      <point x="199" y="521"/>
      <point x="177" y="484"/>
      <point x="177" y="452" type="curve" smooth="yes"/>
      <point x="177" y="422"/>
      <point x="190" y="389"/>
      <point x="220" y="341" type="curve" smooth="yes"/>
      <point x="250" y="294"/>
      <point x="281" y="234"/>
      <point x="281" y="177" type="curve" smooth="yes"/>
      <point x="281" y="84"/>
      <point x="221" y="-4"/>
      <point x="48" y="-3" type="curve" smooth="yes"/>
      <point x="34" y="-3"/>
      <point x="8" y="0"/>
      <point x="-7" y="2" type="curve"/>
      <point x="-8" y="15"/>
      <point x="-4" y="33"/>
      <point x="0" y="43" type="curve"/>
      <point x="122" y="27"/>
      <point x="171" y="78"/>
      <point x="171" y="156" type="curve" smooth="yes"/>
      <point x="171" y="200"/>
      <point x="149" y="248"/>
      <point x="126" y="290" type="curve" smooth="yes"/>
      <point x="96" y="343"/>
      <point x="82" y="372"/>
      <point x="80" y="410" type="curve"/>
      <point x="79" y="469"/>
      <point x="115" y="525"/>
      <point x="248" y="598" type="curve"/>
      <point x="258" y="591"/>
      <point x="266" y="577"/>
    </contour>
  </outline>
</glyph>
<glyph name="T" format="1">
  <advance width="475"/>
  <unicode hex="0054"/>
  <outline>
    <contour>
      <point x="63" y="585" type="curve"/>
      <point x="255" y="576"/>
      <point x="348" y="577"/>
      <point x="520" y="585" type="curve"/>
      <point x="522" y="577"/>
      <point x="518" y="551"/>
      <point x="514" y="541" type="curve"/>
      <point x="446" y="536"/>
      <point x="391" y="533"/>
      <point x="342" y="526" type="curve"/>
      <point x="323" y="432"/>
      <point x="264" y="97"/>
      <point x="269" y="-2" type="curve"/>
      <point x="242" y="2"/>
      <point x="161" y="2"/>
      <point x="124" y="-1" type="curve"/>
      <point x="154" y="68"/>
      <point x="219" y="474"/>
      <point x="221" y="526" type="curve"/>
      <point x="175" y="534"/>
      <point x="134" y="538"/>
      <point x="53" y="541" type="curve"/>
      <point x="53" y="549"/>
      <point x="59" y="572"/>
    </contour>
  </outline>
</glyph>
<glyph name="V" format="1">
  <advance width="561"/>
  <unicode hex="0056"/>
  <outline>
    <contour>
      <point x="66" y="584" type="curve"/>
      <point x="103" y="579"/>
      <point x="172" y="581"/>
      <point x="212" y="586" type="curve"/>
      <point x="206" y="494"/>
      <point x="225" y="368"/>
      <point x="253" y="231" type="curve" smooth="yes"/>
      <point x="258" y="205"/>
      <point x="265" y="166"/>
      <point x="267" y="140" type="curve"/>
      <point x="274" y="153"/>
      <point x="288" y="180"/>
      <point x="296" y="193" type="curve" smooth="yes"/>
      <point x="408" y="373"/>
      <point x="463" y="482"/>
      <point x="486" y="572" type="curve"/>
      <point x="531" y="574"/>
      <point x="592" y="583"/>
      <point x="630" y="595" type="curve"/>
      <point x="545" y="509"/>
      <point x="390" y="256"/>
      <point x="338" y="168" type="curve" smooth="yes"/>
      <point x="314" y="126"/>
      <point x="273" y="55"/>
      <point x="257" y="14" type="curve"/>
      <point x="236" y="2"/>
      <point x="211" y="-7"/>
      <point x="182" y="-14" type="curve"/>
      <point x="161" y="188"/>
      <point x="93" y="514"/>
    </contour>
  </outline>
</glyph>
<glyph name="X" format="1">
  <advance width="652"/>
  <unicode hex="0058"/>
  <outline>
    <contour>
      <point x="290" y="581" type="curve"/>
      <point x="312" y="509"/>
      <point x="342" y="441"/>
      <point x="372" y="382" type="curve"/>
      <point x="450" y="459"/>
      <point x="500" y="515"/>
      <point x="544" y="578" type="curve"/>
      <point x="569" y="579"/>
      <point x="638" y="580"/>
      <point x="679" y="588" type="curve"/>
      <point x="593" y="530"/>
      <point x="467" y="417"/>
      <point x="397" y="340" type="curve"/>
      <point x="453" y="231"/>
      <point x="523" y="112"/>
      <point x="607" y="-1" type="curve"/>
      <point x="582" y="2"/>
      <point x="466" y="2"/>
      <point x="439" y="-1" type="curve"/>
      <point x="414" y="85"/>
      <point x="342" y="217"/>
      <point x="314" y="269" type="curve"/>
      <point x="249" y="204"/>
      <point x="149" y="88"/>
      <point x="103" y="3" type="curve"/>
      <point x="63" y="1"/>
      <point x="3" y="-6"/>
      <point x="-47" y="-15" type="curve"/>
      <point x="71" y="79"/>
      <point x="215" y="233"/>
      <point x="290" y="315" type="curve"/>
      <point x="243" y="403"/>
      <point x="149" y="551"/>
      <point x="117" y="581" type="curve"/>
      <point x="140" y="578"/>
      <point x="251" y="575"/>
    </contour>
  </outline>
</glyph>
<glyph name="Y" format="1">
  <advance width="556"/>
  <unicode hex="0059"/>
  <outline>
    <contour>
      <point x="62" y="583" type="curve"/>
      <point x="111" y="579"/>
      <point x="186" y="579"/>
      <point x="228" y="583" type="curve"/>
      <point x="238" y="501"/>
      <point x="280" y="396"/>
      <point x="315" y="331" type="curve"/>
      <point x="392" y="417"/>
      <point x="456" y="497"/>
      <point x="490" y="578" type="curve"/>
      <point x="519" y="578"/>
      <point x="578" y="583"/>
      <point x="621" y="592" type="curve"/>
      <point x="505" y="482"/>
      <point x="418" y="389"/>
      <point x="330" y="273" type="curve"/>
      <point x="303" y="159"/>
      <point x="295" y="67"/>
      <point x="304" y="-1" type="curve"/>
      <point x="268" y="2"/>
      <point x="181" y="3"/>
      <point x="150" y="-1" type="curve"/>
      <point x="178" y="62"/>
      <point x="201" y="186"/>
      <point x="213" y="270" type="curve"/>
      <point x="191" y="350"/>
      <point x="106" y="533"/>
    </contour>
  </outline>
</glyph>
<glyph name="Z" format="1">
  <advance width="614"/>
  <unicode hex="005A"/>
  <outline>
    <contour>
      <point x="133" y="584" type="curve"/>
      <point x="201" y="573"/>
      <point x="532" y="569"/>
      <point x="578" y="588" type="curve"/>
      <point x="589" y="586"/>
      <point x="599" y="570"/>
      <point x="602" y="564" type="curve"/>
      <point x="573" y="543"/>
      <point x="514" y="485"/>
      <point x="447" y="413" type="curve" smooth="yes"/>
      <point x="347" y="306"/>
      <point x="230" y="179"/>
      <point x="189" y="132" type="curve"/>
      <point x="273" y="98"/>
      <point x="439" y="76"/>
      <point x="570" y="133" type="curve"/>
      <point x="542" y="83"/>
      <point x="525" y="34"/>
      <point x="520" y="-2" type="curve"/>
      <point x="436" y="-3"/>
      <point x="266" y="-13"/>
      <point x="102" y="46" type="curve"/>
      <point x="72" y="24"/>
      <point x="40" y="1"/>
      <point x="2" y="-21" type="curve"/>
      <point x="-9" y="-17"/>
      <point x="-21" y="-2"/>
      <point x="-26" y="8" type="curve"/>
      <point x="99" y="90"/>
      <point x="350" y="370"/>
      <point x="438" y="473" type="curve"/>
      <point x="366" y="484"/>
      <point x="192" y="488"/>
      <point x="95" y="450" type="curve"/>
      <point x="110" y="483"/>
      <point x="132" y="550"/>
    </contour>
  </outline>
</glyph>
<glyph name="bracketleft" format="1">
  <advance width="305"/>
  <unicode hex="005B"/>
  <outline>
    <contour>
      <point x="233" y="-47" type="curve"/>
      <point x="234" y="-55"/>
      <point x="231" y="-82"/>
      <point x="228" y="-91" type="curve"/>
      <point x="161" y="-90"/>
      <point x="78" y="-94"/>
      <point x="17" y="-100" type="curve"/>
      <point x="48" y="19"/>
      <point x="120" y="470"/>
      <point x="129" y="583" type="curve"/>
      <point x="167" y="580"/>
      <point x="286" y="583"/>
      <point x="327" y="583" type="curve"/>
      <point x="328" y="576"/>
      <point x="323" y="546"/>
      <point x="318" y="540" type="curve"/>
      <point x="297" y="539"/>
      <point x="257" y="537"/>
      <point x="236" y="534" type="curve"/>
      <point x="203" y="379"/>
      <point x="167" y="160"/>
      <point x="142" y="-46" type="curve"/>
      <point x="178" y="-48"/>
      <point x="206" y="-48"/>
    </contour>
  </outline>
</glyph>
<glyph name="backslash" format="1">
  <advance width="293"/>
  <unicode hex="005C"/>
  <outline>
    <contour>
      <point x="71" y="605" type="line"/>
      <point x="76" y="608"/>
      <point x="102" y="608"/>
      <point x="111" y="606" type="curve"/>
      <point x="235" y="-42" type="line"/>
      <point x="223" y="-47"/>
      <point x="204" y="-44"/>
      <point x="194" y="-42" type="curve"/>
    </contour>
  </outline>
</glyph>
<glyph name="bracketright" format="1">
  <advance width="305"/>
  <unicode hex="005D"/>
  <outline>
    <contour>
      <point x="295" y="583" type="curve"/>
      <point x="263" y="459"/>
      <point x="193" y="10"/>
      <point x="186" y="-98" type="curve"/>
      <point x="117" y="-99"/>
      <point x="54" y="-100"/>
      <point x="-25" y="-111" type="curve"/>
      <point x="-27" y="-103"/>
      <point x="-27" y="-78"/>
      <point x="-25" y="-68" type="curve"/>
      <point x="10" y="-66"/>
      <point x="39" y="-62"/>
      <point x="73" y="-54" type="curve"/>
      <point x="107" y="105"/>
      <point x="141" y="374"/>
      <point x="166" y="538" type="curve"/>
      <point x="146" y="540"/>
      <point x="99" y="541"/>
      <point x="79" y="541" type="curve"/>
      <point x="80" y="551"/>
      <point x="82" y="572"/>
      <point x="85" y="582" type="curve"/>
      <point x="138" y="579"/>
      <point x="238" y="579"/>
    </contour>
  </outline>
</glyph>
<glyph name="asciicircum" format="1">
  <advance width="375"/>
  <unicode hex="005E"/>
  <outline>
    <contour>
      <point x="227" y="592" type="curve"/>
      <point x="270" y="506"/>
      <point x="329" y="391"/>
      <point x="350" y="356" type="curve"/>
      <point x="344" y="348"/>
      <point x="322" y="344"/>
      <point x="310" y="342" type="curve"/>
      <point x="284" y="402"/>
      <point x="246" y="475"/>
      <point x="218" y="526" type="curve"/>
      <point x="185" y="474"/>
      <point x="138" y="395"/>
      <point x="109" y="342" type="curve"/>
      <point x="97" y="345"/>
      <point x="78" y="352"/>
      <point x="72" y="363" type="curve"/>
      <point x="105" y="410"/>
      <point x="167" y="511"/>
      <point x="211" y="592" type="curve"/>
      <point x="216" y="593"/>
      <point x="223" y="593"/>
    </contour>
  </outline>
</glyph>
<glyph name="grave" format="1">
  <advance width="416"/>
  <unicode hex="0060"/>
  <outline>
    <contour>
      <point x="186" y="587" type="curve"/>
      <point x="218" y="558"/>
      <point x="280" y="513"/>
      <point x="341" y="480" type="curve"/>
      <point x="330" y="454" type="line"/>
      <point x="268" y="471"/>
      <point x="211" y="479"/>
      <point x="143" y="489" type="curve"/>
      <point x="155" y="507"/>
      <point x="181" y="567"/>
    </contour>
  </outline>
</glyph>
<glyph name="a" format="1">
  <advance width="449"/>
  <unicode hex="0061"/>
  <outline>
    <contour>
      <point x="432" y="388" type="curve"/>
      <point x="420" y="375"/>
      <point x="411" y="353"/>
      <point x="402" y="324" type="curve" smooth="yes"/>
      <point x="370" y="224"/>
      <point x="344" y="53"/>
      <point x="350" y="0" type="curve"/>
      <point x="329" y="2"/>
      <point x="252" y="3"/>
      <point x="221" y="-4" type="curve"/>
      <point x="221" y="16"/>
      <point x="243" y="112"/>
      <point x="251" y="150" type="curve"/>
      <point x="189" y="96"/>
      <point x="153" y="56"/>
      <point x="71" y="-13" type="curve"/>
      <point x="37" y="11"/>
      <point x="18" y="72"/>
      <point x="18" y="119" type="curve" smooth="yes"/>
      <point x="18" y="216"/>
      <point x="86" y="386"/>
      <point x="270" y="391" type="curve" smooth="yes"/>
      <point x="313" y="392"/>
      <point x="397" y="391"/>
    </contour>
    <contour>
      <point x="293" y="348" type="curve"/>
      <point x="285" y="349"/>
      <point x="278" y="349"/>
      <point x="271" y="349" type="curve" smooth="yes"/>
      <point x="166" y="348"/>
      <point x="128" y="251"/>
      <point x="128" y="172" type="curve" smooth="yes"/>
      <point x="128" y="146"/>
      <point x="132" y="121"/>
      <point x="142" y="107" type="curve"/>
      <point x="180" y="135"/>
      <point x="235" y="183"/>
      <point x="262" y="211" type="curve"/>
      <point x="270" y="237"/>
      <point x="291" y="316"/>
    </contour>
  </outline>
</glyph>
<glyph name="b" format="1">
  <advance width="462"/>
  <unicode hex="0062"/>
  <outline>
    <contour>
      <point x="2" y="0" type="curve"/>
      <point x="20" y="28"/>
      <point x="37" y="98"/>
      <point x="47" y="141" type="curve" smooth="yes"/>
      <point x="79" y="289"/>
      <point x="132" y="593"/>
      <point x="120" y="680" type="curve"/>
      <point x="157" y="678"/>
      <point x="237" y="687"/>
      <point x="267" y="696" type="curve"/>
      <point x="235" y="606"/>
      <point x="208" y="412"/>
      <point x="180" y="253" type="curve"/>
      <point x="251" y="299"/>
      <point x="323" y="352"/>
      <point x="383" y="402" type="curve"/>
      <point x="400" y="390"/>
      <point x="427" y="350"/>
      <point x="428" y="295" type="curve" smooth="yes"/>
      <point x="431" y="113"/>
      <point x="274" y="-3"/>
      <point x="153" y="-3" type="curve" smooth="yes"/>
      <point x="122" y="-3"/>
      <point x="56" y="-3"/>
    </contour>
    <contour>
      <point x="174" y="201" type="curve"/>
      <point x="161" y="146"/>
      <point x="151" y="99"/>
      <point x="143" y="47" type="curve"/>
      <point x="151" y="44"/>
      <point x="159" y="44"/>
      <point x="171" y="44" type="curve" smooth="yes"/>
      <point x="240" y="44"/>
      <point x="314" y="124"/>
      <point x="314" y="227" type="curve" smooth="yes"/>
      <point x="314" y="258"/>
      <point x="306" y="272"/>
      <point x="299" y="281" type="curve"/>
      <point x="243" y="247"/>
      <point x="214" y="231"/>
    </contour>
  </outline>
</glyph>
<glyph name="d" format="1">
  <advance width="449"/>
  <unicode hex="0064"/>
  <outline>
    <contour>
      <point x="392" y="313" type="curve" smooth="yes"/>
      <point x="372" y="209"/>
      <point x="339" y="52"/>
      <point x="350" y="0" type="curve"/>
      <point x="328" y="2"/>
      <point x="251" y="3"/>
      <point x="220" y="-4" type="curve"/>
      <point x="221" y="16"/>
      <point x="242" y="112"/>
      <point x="250" y="150" type="curve"/>
      <point x="188" y="96"/>
      <point x="152" y="56"/>
      <point x="70" y="-13" type="curve"/>
      <point x="36" y="11"/>
      <point x="18" y="67"/>
      <point x="18" y="114" type="curve" smooth="yes"/>
      <point x="18" y="229"/>
      <point x="90" y="387"/>
      <point x="269" y="391" type="curve"/>
      <point x="303" y="391" type="line"/>
      <point x="328" y="511"/>
      <point x="344" y="632"/>
      <point x="347" y="680" type="curve"/>
      <point x="377" y="679"/>
      <point x="447" y="685"/>
      <point x="481" y="695" type="curve"/>
      <point x="439" y="573"/>
      <point x="417" y="444"/>
    </contour>
    <contour>
      <point x="295" y="348" type="curve"/>
      <point x="287" y="349"/>
      <point x="277" y="349"/>
      <point x="270" y="349" type="curve" smooth="yes"/>
      <point x="165" y="348"/>
      <point x="127" y="251"/>
      <point x="127" y="172" type="curve" smooth="yes"/>
      <point x="127" y="146"/>
      <point x="131" y="121"/>
      <point x="141" y="107" type="curve"/>
      <point x="179" y="135"/>
      <point x="234" y="183"/>
      <point x="261" y="211" type="curve"/>
      <point x="270" y="237"/>
      <point x="288" y="316"/>
    </contour>
  </outline>
</glyph>
<glyph name="h" format="1">
  <advance width="475"/>
  <unicode hex="0068"/>
  <outline>
    <contour>
      <point x="417" y="232" type="curve" smooth="yes"/>
      <point x="413" y="188"/>
      <point x="401" y="134"/>
      <point x="390" y="103" type="curve" smooth="yes"/>
      <point x="366" y="41"/>
      <point x="304" y="10"/>
      <point x="248" y="-11" type="curve"/>
      <point x="240" y="-7"/>
      <point x="230" y="2"/>
      <point x="226" y="11" type="curve"/>
      <point x="252" y="35"/>
      <point x="269" y="60"/>
      <point x="283" y="106" type="curve" smooth="yes"/>
      <point x="291" y="131"/>
      <point x="296" y="165"/>
      <point x="301" y="206" type="curve" smooth="yes"/>
      <point x="306" y="241"/>
      <point x="295" y="272"/>
      <point x="285" y="281" type="curve"/>
      <point x="231" y="244"/>
      <point x="213" y="226"/>
      <point x="163" y="184" type="curve"/>
      <point x="153" y="140"/>
      <point x="140" y="58"/>
      <point x="137" y="-3" type="curve"/>
      <point x="119" y="1"/>
      <point x="35" y="3"/>
      <point x="5" y="-2" type="curve"/>
      <point x="57" y="134"/>
      <point x="121" y="555"/>
      <point x="136" y="682" type="curve"/>
      <point x="163" y="682"/>
      <point x="239" y="687"/>
      <point x="269" y="696" type="curve"/>
      <point x="230" y="556"/>
      <point x="199" y="387"/>
      <point x="172" y="241" type="curve"/>
      <point x="228" y="285"/>
      <point x="291" y="341"/>
      <point x="351" y="399" type="curve"/>
      <point x="393" y="377"/>
      <point x="425" y="318"/>
    </contour>
  </outline>
</glyph>
<glyph name="i" format="1">
  <advance width="237"/>
  <unicode hex="0069"/>
  <outline>
    <contour>
      <point x="4" y="0" type="curve"/>
      <point x="37" y="93"/>
      <point x="78" y="313"/>
      <point x="81" y="390" type="curve"/>
      <point x="105" y="387"/>
      <point x="182" y="386"/>
      <point x="211" y="392" type="curve"/>
      <point x="181" y="326"/>
      <point x="139" y="62"/>
      <point x="142" y="-2" type="curve"/>
      <point x="118" y="6"/>
      <point x="17" y="1"/>
    </contour>
    <contour>
      <point x="193" y="590" type="curve" smooth="yes"/>
      <point x="236" y="590"/>
      <point x="243" y="562"/>
      <point x="240" y="548" type="curve" smooth="yes"/>
      <point x="236" y="521"/>
      <point x="204" y="496"/>
      <point x="161" y="496" type="curve" smooth="yes"/>
      <point x="129" y="496"/>
      <point x="104" y="510"/>
      <point x="112" y="540" type="curve"/>
      <point x="115" y="562"/>
      <point x="143" y="590"/>
    </contour>
  </outline>
</glyph>
<glyph name="l" format="1">
  <advance width="266"/>
  <unicode hex="006C"/>
  <outline>
    <contour>
      <point x="133" y="680" type="curve"/>
      <point x="164" y="679"/>
      <point x="233" y="685"/>
      <point x="266" y="695" type="curve"/>
      <point x="232" y="594"/>
      <point x="178" y="328"/>
      <point x="149" y="137" type="curve" smooth="yes"/>
      <point x="142" y="86"/>
      <point x="152" y="57"/>
      <point x="169" y="57" type="curve" smooth="yes"/>
      <point x="187" y="57"/>
      <point x="201" y="60"/>
      <point x="225" y="64" type="curve"/>
      <point x="229" y="57"/>
      <point x="233" y="36"/>
      <point x="234" y="27" type="curve"/>
      <point x="183" y="10"/>
      <point x="93" y="-8"/>
      <point x="63" y="-8" type="curve" smooth="yes"/>
      <point x="23" y="-8"/>
      <point x="20" y="57"/>
      <point x="29" y="97" type="curve" smooth="yes"/>
      <point x="69" y="286"/>
      <point x="130" y="590"/>
    </contour>
  </outline>
</glyph>
<glyph name="m" format="1">
  <advance width="707"/>
  <unicode hex="006D"/>
  <outline>
    <contour>
      <point x="79" y="386" type="curve"/>
      <point x="116" y="385"/>
      <point x="181" y="388"/>
      <point x="212" y="394" type="curve"/>
      <point x="197" y="360"/>
      <point x="184" y="324"/>
      <point x="172" y="248" type="curve"/>
      <point x="228" y="291"/>
      <point x="288" y="347"/>
      <point x="346" y="399" type="curve"/>
      <point x="389" y="377"/>
      <point x="421" y="318"/>
      <point x="412" y="247" type="curve"/>
      <point x="468" y="290"/>
      <point x="525" y="347"/>
      <point x="581" y="399" type="curve"/>
      <point x="625" y="380"/>
      <point x="663" y="306"/>
      <point x="647" y="227" type="curve" smooth="yes"/>
      <point x="622" y="105"/>
      <point x="610" y="49"/>
      <point x="613" y="-2" type="curve"/>
      <point x="591" y="2"/>
      <point x="513" y="1"/>
      <point x="479" y="-2" type="curve"/>
      <point x="506" y="68"/>
      <point x="520" y="138"/>
      <point x="530" y="203" type="curve" smooth="yes"/>
      <point x="535" y="238"/>
      <point x="526" y="271"/>
      <point x="518" y="283" type="curve"/>
      <point x="466" y="243"/>
      <point x="448" y="224"/>
      <point x="401" y="183" type="curve"/>
      <point x="382" y="89"/>
      <point x="373" y="43"/>
      <point x="375" y="-2" type="curve"/>
      <point x="353" y="2"/>
      <point x="276" y="1"/>
      <point x="242" y="-2" type="curve"/>
      <point x="268" y="68"/>
      <point x="283" y="138"/>
      <point x="293" y="203" type="curve" smooth="yes"/>
      <point x="298" y="238"/>
      <point x="289" y="270"/>
      <point x="280" y="282" type="curve"/>
      <point x="235" y="247"/>
      <point x="209" y="226"/>
      <point x="163" y="186" type="curve"/>
      <point x="153" y="142"/>
      <point x="140" y="58"/>
      <point x="137" y="-3" type="curve"/>
      <point x="119" y="1"/>
      <point x="35" y="3"/>
      <point x="5" y="-2" type="curve"/>
      <point x="35" y="67"/>
      <point x="78" y="269"/>
    </contour>
  </outline>
</glyph>
<glyph name="o" format="1">
  <advance width="361"/>
  <unicode hex="006F"/>
  <outline>
    <contour>
      <point x="109" y="-16" type="curve"/>
      <point x="53" y="20"/>
      <point x="17" y="69"/>
      <point x="19" y="143" type="curve" smooth="yes"/>
      <point x="23" y="265"/>
      <point x="110" y="350"/>
      <point x="246" y="405" type="curve"/>
      <point x="310" y="371"/>
      <point x="322" y="312"/>
      <point x="321" y="249" type="curve" smooth="yes"/>
      <point x="318" y="138"/>
      <point x="224" y="47"/>
    </contour>
    <contour>
      <point x="116" y="179" type="curve" smooth="yes"/>
      <point x="115" y="122"/>
      <point x="138" y="86"/>
      <point x="161" y="68" type="curve"/>
      <point x="214" y="108"/>
      <point x="222" y="171"/>
      <point x="223" y="208" type="curve" smooth="yes"/>
      <point x="224" y="253"/>
      <point x="207" y="302"/>
      <point x="183" y="324" type="curve"/>
      <point x="129" y="281"/>
      <point x="116" y="217"/>
    </contour>
  </outline>
</glyph>
<glyph name="p" format="1">
  <advance width="454"/>
  <unicode hex="0070"/>
  <outline>
    <contour>
      <point x="-60" y="-282" type="curve"/>
      <point x="-3" y="-159"/>
      <point x="69" y="285"/>
      <point x="75" y="389" type="curve"/>
      <point x="107" y="386"/>
      <point x="183" y="388"/>
      <point x="206" y="395" type="curve"/>
      <point x="197" y="365"/>
      <point x="181" y="303"/>
      <point x="173" y="258" type="curve"/>
      <point x="229" y="297"/>
      <point x="302" y="357"/>
      <point x="358" y="405" type="curve"/>
      <point x="390" y="386"/>
      <point x="419" y="333"/>
      <point x="419" y="271" type="curve" smooth="yes"/>
      <point x="419" y="134"/>
      <point x="322" y="20"/>
      <point x="203" y="-4" type="curve" smooth="yes"/>
      <point x="177" y="-9"/>
      <point x="143" y="-13"/>
      <point x="123" y="-3" type="curve"/>
      <point x="112" y="-57"/>
      <point x="90" y="-222"/>
      <point x="93" y="-252" type="curve"/>
      <point x="68" y="-256"/>
      <point x="-6" y="-265"/>
    </contour>
    <contour>
      <point x="164" y="202" type="curve"/>
      <point x="155" y="167"/>
      <point x="142" y="103"/>
      <point x="131" y="39" type="curve"/>
      <point x="140" y="35"/>
      <point x="150" y="34"/>
      <point x="171" y="34" type="curve" smooth="yes"/>
      <point x="233" y="34"/>
      <point x="297" y="88"/>
      <point x="301" y="220" type="curve" smooth="yes"/>
      <point x="302" y="246"/>
      <point x="293" y="273"/>
      <point x="283" y="286" type="curve"/>
      <point x="243" y="261"/>
      <point x="224" y="248"/>
    </contour>
  </outline>
</glyph>
<glyph name="q" format="1">
  <advance width="448"/>
  <unicode hex="0071"/>
  <outline>
    <contour>
      <point x="432" y="388" type="curve"/>
      <point x="420" y="375"/>
      <point x="411" y="353"/>
      <point x="402" y="324" type="curve" smooth="yes"/>
      <point x="389" y="283"/>
      <point x="375" y="231"/>
      <point x="342" y="52" type="curve"/>
      <point x="319" y="-80"/>
      <point x="305" y="-210"/>
      <point x="307" y="-259" type="curve"/>
      <point x="264" y="-259"/>
      <point x="194" y="-268"/>
      <point x="146" y="-278" type="curve"/>
      <point x="182" y="-230"/>
      <point x="228" y="40"/>
      <point x="251" y="150" type="curve"/>
      <point x="189" y="96"/>
      <point x="153" y="56"/>
      <point x="71" y="-13" type="curve"/>
      <point x="37" y="11"/>
      <point x="18" y="72"/>
      <point x="18" y="119" type="curve" smooth="yes"/>
      <point x="18" y="216"/>
      <point x="86" y="386"/>
      <point x="270" y="391" type="curve" smooth="yes"/>
      <point x="313" y="392"/>
      <point x="397" y="391"/>
    </contour>
    <contour>
      <point x="293" y="348" type="curve"/>
      <point x="285" y="349"/>
      <point x="278" y="349"/>
      <point x="271" y="349" type="curve" smooth="yes"/>
      <point x="166" y="348"/>
      <point x="128" y="251"/>
      <point x="128" y="172" type="curve" smooth="yes"/>
      <point x="128" y="146"/>
      <point x="132" y="121"/>
      <point x="142" y="107" type="curve"/>
      <point x="180" y="135"/>
      <point x="235" y="183"/>
      <point x="262" y="211" type="curve"/>
      <point x="270" y="237"/>
      <point x="291" y="316"/>
    </contour>
  </outline>
</glyph>
<glyph name="t" format="1">
  <advance width="322"/>
  <unicode hex="0074"/>
  <outline>
    <contour>
      <point x="244" y="532" type="curve"/>
      <point x="229" y="486"/>
      <point x="218" y="454"/>
      <point x="204" y="390" type="curve"/>
      <point x="250" y="390"/>
      <point x="284" y="391"/>
      <point x="316" y="392" type="curve"/>
      <point x="313" y="380"/>
      <point x="305" y="354"/>
      <point x="300" y="343" type="curve"/>
      <point x="262" y="347"/>
      <point x="219" y="347"/>
      <point x="195" y="346" type="curve"/>
      <point x="181" y="294"/>
      <point x="159" y="179"/>
      <point x="156" y="138" type="curve" smooth="yes"/>
      <point x="150" y="62"/>
      <point x="169" y="48"/>
      <point x="183" y="48" type="curve" smooth="yes"/>
      <point x="206" y="48"/>
      <point x="228" y="50"/>
      <point x="258" y="54" type="curve"/>
      <point x="263" y="46"/>
      <point x="266" y="24"/>
      <point x="264" y="14" type="curve"/>
      <point x="223" y="5"/>
      <point x="126" y="-12"/>
      <point x="95" y="-12" type="curve" smooth="yes"/>
      <point x="48" y="-12"/>
      <point x="31" y="50"/>
      <point x="38" y="100" type="curve" smooth="yes"/>
      <point x="47" y="167"/>
      <point x="72" y="280"/>
      <point x="88" y="347" type="curve"/>
      <point x="77" y="347"/>
      <point x="60" y="347"/>
      <point x="50" y="346" type="curve"/>
      <point x="50" y="359"/>
      <point x="57" y="382"/>
      <point x="63" y="391" type="curve"/>
      <point x="75" y="390"/>
      <point x="92" y="390"/>
      <point x="99" y="390" type="curve"/>
      <point x="139" y="430"/>
      <point x="183" y="489"/>
      <point x="211" y="537" type="curve"/>
      <point x="222" y="538"/>
      <point x="236" y="535"/>
    </contour>
  </outline>
</glyph>
<glyph name="v" format="1">
  <advance width="439"/>
  <unicode hex="0076"/>
  <outline>
    <contour>
      <point x="207" y="391" type="curve"/>
      <point x="186" y="358"/>
      <point x="163" y="279"/>
      <point x="156" y="235" type="curve" smooth="yes"/>
      <point x="146" y="167"/>
      <point x="160" y="107"/>
      <point x="194" y="71" type="curve"/>
      <point x="247" y="114"/>
      <point x="263" y="163"/>
      <point x="284" y="246" type="curve" smooth="yes"/>
      <point x="292" y="279"/>
      <point x="302" y="354"/>
      <point x="300" y="391" type="curve"/>
      <point x="324" y="387"/>
      <point x="401" y="387"/>
      <point x="427" y="391" type="curve"/>
      <point x="417" y="372"/>
      <point x="406" y="321"/>
      <point x="399" y="290" type="curve" smooth="yes"/>
      <point x="362" y="120"/>
      <point x="249" y="46"/>
      <point x="134" y="-15" type="curve"/>
      <point x="83" y="25"/>
      <point x="20" y="108"/>
      <point x="46" y="230" type="curve" smooth="yes"/>
      <point x="65" y="322"/>
      <point x="73" y="366"/>
      <point x="73" y="391" type="curve"/>
      <point x="102" y="387"/>
      <point x="178" y="387"/>
    </contour>
  </outline>
</glyph>
<glyph name="w" format="1">
  <advance width="675"/>
  <unicode hex="0077"/>
  <outline>
    <contour>
      <point x="443" y="391" type="curve"/>
      <point x="421" y="358"/>
      <point x="397" y="279"/>
      <point x="391" y="235" type="curve"/>
      <point x="380" y="167"/>
      <point x="389" y="107"/>
      <point x="422" y="71" type="curve"/>
      <point x="478" y="115"/>
      <point x="497" y="163"/>
      <point x="518" y="246" type="curve" smooth="yes"/>
      <point x="526" y="279"/>
      <point x="537" y="354"/>
      <point x="535" y="391" type="curve"/>
      <point x="559" y="387"/>
      <point x="636" y="387"/>
      <point x="663" y="391" type="curve"/>
      <point x="652" y="372"/>
      <point x="645" y="321"/>
      <point x="638" y="290" type="curve" smooth="yes"/>
      <point x="601" y="120"/>
      <point x="478" y="46"/>
      <point x="362" y="-15" type="curve"/>
      <point x="332" y="8"/>
      <point x="299" y="47"/>
      <point x="282" y="101" type="curve"/>
      <point x="236" y="54"/>
      <point x="184" y="10"/>
      <point x="141" y="-15" type="curve"/>
      <point x="77" y="26"/>
      <point x="25" y="108"/>
      <point x="51" y="230" type="curve" smooth="yes"/>
      <point x="70" y="322"/>
      <point x="81" y="366"/>
      <point x="80" y="391" type="curve"/>
      <point x="109" y="387"/>
      <point x="186" y="387"/>
      <point x="215" y="391" type="curve"/>
      <point x="193" y="358"/>
      <point x="168" y="279"/>
      <point x="161" y="235" type="curve" smooth="yes"/>
      <point x="151" y="167"/>
      <point x="158" y="113"/>
      <point x="191" y="77" type="curve"/>
      <point x="218" y="95"/>
      <point x="247" y="118"/>
      <point x="272" y="148" type="curve"/>
      <point x="270" y="173"/>
      <point x="273" y="200"/>
      <point x="279" y="230" type="curve" smooth="yes"/>
      <point x="298" y="322"/>
      <point x="309" y="366"/>
      <point x="308" y="391" type="curve"/>
      <point x="337" y="387"/>
      <point x="414" y="387"/>
    </contour>
  </outline>
</glyph>
<glyph name="x" format="1">
  <advance width="404"/>
  <unicode hex="0078"/>
  <outline>
    <contour>
      <point x="-33" y="-8" type="curve"/>
      <point x="2" y="22"/>
      <point x="119" y="154"/>
      <point x="144" y="195" type="curve"/>
      <point x="130" y="244"/>
      <point x="89" y="362"/>
      <point x="60" y="391" type="curve"/>
      <point x="92" y="389"/>
      <point x="180" y="389"/>
      <point x="204" y="391" type="curve"/>
      <point x="210" y="347"/>
      <point x="214" y="321"/>
      <point x="230" y="266" type="curve"/>
      <point x="270" y="315"/>
      <point x="295" y="357"/>
      <point x="309" y="387" type="curve"/>
      <point x="335" y="387"/>
      <point x="385" y="390"/>
      <point x="409" y="396" type="curve"/>
      <point x="352" y="344"/>
      <point x="311" y="302"/>
      <point x="244" y="218" type="curve"/>
      <point x="266" y="136"/>
      <point x="316" y="27"/>
      <point x="343" y="-2" type="curve"/>
      <point x="345" y="-2"/>
      <point x="256" y="2"/>
      <point x="193" y="-1" type="curve"/>
      <point x="186" y="53"/>
      <point x="171" y="109"/>
      <point x="159" y="145" type="curve"/>
      <point x="116" y="86"/>
      <point x="91" y="48"/>
      <point x="72" y="2" type="curve"/>
      <point x="48" y="1"/>
      <point x="3" y="-1"/>
    </contour>
  </outline>
</glyph>
<glyph name="y" format="1">
  <advance width="439"/>
  <unicode hex="0079"/>
  <outline>
    <contour>
      <point x="-73" y="-281" type="curve"/>
      <point x="-81" y="-273"/>
      <point x="-86" y="-257"/>
      <point x="-87" y="-248" type="curve"/>
      <point x="24" y="-188"/>
      <point x="87" y="-121"/>
      <point x="140" y="-37" type="curve"/>
      <point x="131" y="34"/>
      <point x="72" y="316"/>
      <point x="42" y="391" type="curve"/>
      <point x="67" y="385"/>
      <point x="172" y="389"/>
      <point x="191" y="394" type="curve"/>
      <point x="188" y="335"/>
      <point x="194" y="256"/>
      <point x="211" y="170" type="curve" smooth="yes"/>
      <point x="214" y="153"/>
      <point x="218" y="127"/>
      <point x="220" y="109" type="curve"/>
      <point x="275" y="197"/>
      <point x="353" y="368"/>
      <point x="348" y="386" type="curve"/>
      <point x="367" y="385"/>
      <point x="422" y="390"/>
      <point x="454" y="399" type="curve"/>
      <point x="373" y="286"/>
      <point x="296" y="160"/>
      <point x="219" y="18" type="curve" smooth="yes"/>
      <point x="133" y="-142"/>
      <point x="124" y="-213"/>
    </contour>
  </outline>
</glyph>
<glyph name="braceleft" format="1">
  <advance width="265"/>
  <unicode hex="007B"/>
  <outline>
    <contour>
      <point x="173" y="-104" type="curve"/>
      <point x="89" y="-41"/>
      <point x="47" y="-14"/>
      <point x="56" y="63" type="curve" smooth="yes"/>
      <point x="61" y="104"/>
      <point x="67" y="133"/>
      <point x="68" y="159" type="curve" smooth="yes"/>
      <point x="71" y="216"/>
      <point x="66" y="235"/>
      <point x="26" y="262" type="curve"/>
      <point x="26" y="272"/>
      <point x="30" y="286"/>
      <point x="34" y="298" type="curve"/>
      <point x="77" y="315"/>
      <point x="97" y="342"/>
      <point x="113" y="400" type="curve" smooth="yes"/>
      <point x="117" y="416"/>
      <point x="121" y="445"/>
      <point x="125" y="465" type="curve" smooth="yes"/>
      <point x="140" y="530"/>
      <point x="202" y="557"/>
      <point x="283" y="601" type="curve"/>
      <point x="289" y="596"/>
      <point x="302" y="574"/>
      <point x="301" y="565" type="curve"/>
      <point x="275" y="546"/>
      <point x="246" y="524"/>
      <point x="231" y="478" type="curve" smooth="yes"/>
      <point x="225" y="460"/>
      <point x="219" y="433"/>
      <point x="207" y="401" type="curve" smooth="yes"/>
      <point x="184" y="339"/>
      <point x="154" y="325"/>
      <point x="83" y="280" type="curve"/>
      <point x="130" y="247"/>
      <point x="161" y="228"/>
      <point x="162" y="156" type="curve" smooth="yes"/>
      <point x="162" y="140"/>
      <point x="159" y="70"/>
      <point x="159" y="51" type="curve" smooth="yes"/>
      <point x="158" y="-22"/>
      <point x="168" y="-28"/>
      <point x="201" y="-72" type="curve"/>
      <point x="196" y="-88"/>
      <point x="182" y="-98"/>
    </contour>
  </outline>
</glyph>
<glyph name="braceright" format="1">
  <advance width="265"/>
  <unicode hex="007D"/>
  <outline>
    <contour>
      <point x="94" y="577" type="curve"/>
      <point x="99" y="586"/>
      <point x="112" y="599"/>
      <point x="121" y="604" type="curve"/>
      <point x="186" y="564"/>
      <point x="239" y="530"/>
      <point x="232" y="469" type="curve" smooth="yes"/>
      <point x="230" y="447"/>
      <point x="226" y="409"/>
      <point x="227" y="391" type="curve" smooth="yes"/>
      <point x="228" y="343"/>
      <point x="231" y="318"/>
      <point x="271" y="298" type="curve"/>
      <point x="271" y="292"/>
      <point x="269" y="276"/>
      <point x="266" y="267" type="curve"/>
      <point x="219" y="250"/>
      <point x="200" y="211"/>
      <point x="186" y="151" type="curve" smooth="yes"/>
      <point x="184" y="140"/>
      <point x="181" y="94"/>
      <point x="175" y="68" type="curve" smooth="yes"/>
      <point x="157" y="-18"/>
      <point x="110" y="-42"/>
      <point x="4" y="-102" type="curve"/>
      <point x="-5" y="-96"/>
      <point x="-15" y="-81"/>
      <point x="-16" y="-72" type="curve"/>
      <point x="10" y="-51"/>
      <point x="45" y="-23"/>
      <point x="61" y="27" type="curve" smooth="yes"/>
      <point x="69" y="52"/>
      <point x="84" y="121"/>
      <point x="92" y="146" type="curve" smooth="yes"/>
      <point x="115" y="223"/>
      <point x="159" y="253"/>
      <point x="215" y="286" type="curve"/>
      <point x="153" y="330"/>
      <point x="136" y="345"/>
      <point x="132" y="404" type="curve" smooth="yes"/>
      <point x="131" y="423"/>
      <point x="132" y="455"/>
      <point x="132" y="473" type="curve" smooth="yes"/>
      <point x="132" y="525"/>
      <point x="124" y="545"/>
    </contour>
  </outline>
</glyph>
<glyph name="asciitilde" format="1">
  <advance width="423"/>
  <unicode hex="007E"/>
  <outline>
    <contour>
      <point x="241" y="199" type="curve"/>
      <point x="217" y="199"/>
      <point x="168" y="227"/>
      <point x="144" y="227" type="curve" smooth="yes"/>
      <point x="109" y="227"/>
      <point x="88" y="217"/>
      <point x="48" y="195" type="curve"/>
      <point x="40" y="203"/>
      <point x="35" y="214"/>
      <point x="32" y="225" type="curve"/>
      <point x="76" y="261"/>
      <point x="156" y="305"/>
      <point x="186" y="305" type="curve" smooth="yes"/>
      <point x="215" y="305"/>
      <point x="264" y="279"/>
      <point x="292" y="279" type="curve" smooth="yes"/>
      <point x="326" y="279"/>
      <point x="345" y="289"/>
      <point x="387" y="310" type="curve"/>
      <point x="393" y="303"/>
      <point x="400" y="291"/>
      <point x="403" y="282" type="curve"/>
      <point x="350" y="239"/>
      <point x="271" y="197"/>
    </contour>
  </outline>
</glyph>
<glyph name="exclamdown" format="1">
  <advance width="251"/>
  <unicode hex="00A1"/>
  <outline>
    <contour>
      <point x="106" y="219" type="curve"/>
      <point x="151" y="224" type="line"/>
      <point x="133" y="80"/>
      <point x="123" y="-131"/>
      <point x="124" y="-198" type="curve"/>
      <point x="97" y="-199"/>
      <point x="7" y="-203"/>
      <point x="-23" y="-208" type="curve"/>
      <point x="13" y="-122"/>
      <point x="90" y="128"/>
    </contour>
    <contour>
      <point x="139" y="285" type="curve" smooth="yes"/>
      <point x="100" y="285"/>
      <point x="80" y="304"/>
      <point x="80" y="332" type="curve" smooth="yes"/>
      <point x="80" y="366"/>
      <point x="119" y="387"/>
      <point x="159" y="387" type="curve" smooth="yes"/>
      <point x="191" y="387"/>
      <point x="213" y="370"/>
      <point x="213" y="346" type="curve" smooth="yes"/>
      <point x="213" y="315"/>
      <point x="178" y="285"/>
    </contour>
  </outline>
</glyph>
<glyph name="cent" format="1">
  <advance width="416"/>
  <unicode hex="00A2"/>
  <outline>
    <contour>
      <point x="323" y="387" type="curve"/>
      <point x="321" y="375"/>
      <point x="318" y="358"/>
      <point x="313" y="346" type="curve"/>
      <point x="298" y="349"/>
      <point x="272" y="350"/>
      <point x="260" y="350" type="curve" smooth="yes"/>
      <point x="206" y="350"/>
      <point x="130" y="308"/>
      <point x="130" y="166" type="curve" smooth="yes"/>
      <point x="130" y="135"/>
      <point x="141" y="100"/>
      <point x="159" y="79" type="curve"/>
      <point x="189" y="94"/>
      <point x="223" y="115"/>
      <point x="262" y="144" type="curve"/>
      <point x="269" y="139"/>
      <point x="280" y="123"/>
      <point x="284" y="113" type="curve"/>
      <point x="239" y="82"/>
      <point x="176" y="40"/>
      <point x="121" y="-1" type="curve"/>
      <point x="112" y="-25"/>
      <point x="99" y="-56"/>
      <point x="91" y="-82" type="curve"/>
      <point x="79" y="-83"/>
      <point x="63" y="-82"/>
      <point x="53" y="-77" type="curve"/>
      <point x="61" y="-55"/>
      <point x="72" y="-18"/>
      <point x="77" y="1" type="curve"/>
      <point x="42" y="35"/>
      <point x="25" y="90"/>
      <point x="25" y="131" type="curve" smooth="yes"/>
      <point x="25" y="260"/>
      <point x="94" y="373"/>
      <point x="231" y="391" type="curve"/>
      <point x="240" y="414"/>
      <point x="248" y="437"/>
      <point x="256" y="464" type="curve"/>
      <point x="266" y="465"/>
      <point x="287" y="464"/>
      <point x="295" y="459" type="curve"/>
      <point x="287" y="437"/>
      <point x="280" y="414"/>
      <point x="275" y="393" type="curve"/>
      <point x="291" y="392"/>
      <point x="313" y="389"/>
    </contour>
  </outline>
</glyph>
<glyph name="sterling" format="1">
  <advance width="424"/>
  <unicode hex="00A3"/>
  <outline>
    <contour>
      <point x="89" y="333" type="curve"/>
      <point x="102" y="332"/>
      <point x="116" y="332"/>
      <point x="129" y="332" type="curve"/>
      <point x="121" y="360"/>
      <point x="111" y="390"/>
      <point x="111" y="415" type="curve" smooth="yes"/>
      <point x="111" y="499"/>
      <point x="212" y="588"/>
      <point x="331" y="588" type="curve" smooth="yes"/>
      <point x="345" y="588"/>
      <point x="376" y="579"/>
      <point x="391" y="573" type="curve"/>
      <point x="390" y="562"/>
      <point x="379" y="538"/>
      <point x="372" y="531" type="curve"/>
      <point x="335" y="542"/>
      <point x="281" y="541"/>
      <point x="255" y="512" type="curve" smooth="yes"/>
      <point x="235" y="490"/>
      <point x="223" y="460"/>
      <point x="223" y="423" type="curve" smooth="yes"/>
      <point x="223" y="392"/>
      <point x="232" y="370"/>
      <point x="237" y="333" type="curve"/>
      <point x="291" y="333"/>
      <point x="317" y="333"/>
      <point x="364" y="335" type="curve"/>
      <point x="365" y="324"/>
      <point x="363" y="298"/>
      <point x="358" y="288" type="curve"/>
      <point x="298" y="290"/>
      <point x="289" y="290"/>
      <point x="241" y="290" type="curve"/>
      <point x="241" y="240"/>
      <point x="203" y="178"/>
      <point x="144" y="122" type="curve"/>
      <point x="224" y="97"/>
      <point x="298" y="97"/>
      <point x="404" y="111" type="curve"/>
      <point x="394" y="93"/>
      <point x="362" y="20"/>
      <point x="358" y="-12" type="curve"/>
      <point x="242" y="-9"/>
      <point x="151" y="4"/>
      <point x="74" y="39" type="curve"/>
      <point x="41" y="18"/>
      <point x="24" y="8"/>
      <point x="-7" y="-17" type="curve"/>
      <point x="-17" y="-13"/>
      <point x="-31" y="0"/>
      <point x="-37" y="12" type="curve"/>
      <point x="85" y="111"/>
      <point x="147" y="173"/>
      <point x="138" y="290" type="curve"/>
      <point x="86" y="290" type="line"/>
      <point x="82" y="298"/>
      <point x="87" y="327"/>
    </contour>
  </outline>
</glyph>
<glyph name="yen" format="1">
  <advance width="556"/>
  <unicode hex="00A5"/>
  <outline>
    <contour>
      <point x="94" y="181" type="curve"/>
      <point x="126" y="180"/>
      <point x="161" y="179"/>
      <point x="198" y="179" type="curve"/>
      <point x="201" y="197"/>
      <point x="205" y="215"/>
      <point x="207" y="233" type="curve"/>
      <point x="174" y="233"/>
      <point x="139" y="232"/>
      <point x="102" y="232" type="curve"/>
      <point x="99" y="241"/>
      <point x="105" y="271"/>
      <point x="108" y="277" type="curve"/>
      <point x="211" y="275" type="line"/>
      <point x="188" y="357"/>
      <point x="105" y="533"/>
      <point x="62" y="583" type="curve"/>
      <point x="111" y="579"/>
      <point x="186" y="579"/>
      <point x="228" y="583" type="curve"/>
      <point x="238" y="501"/>
      <point x="280" y="396"/>
      <point x="315" y="331" type="curve"/>
      <point x="392" y="417"/>
      <point x="456" y="497"/>
      <point x="490" y="578" type="curve"/>
      <point x="519" y="578"/>
      <point x="578" y="583"/>
      <point x="621" y="592" type="curve"/>
      <point x="506" y="483"/>
      <point x="419" y="390"/>
      <point x="331" y="275" type="curve"/>
      <point x="431" y="275" type="line"/>
      <point x="432" y="265"/>
      <point x="427" y="240"/>
      <point x="422" y="230" type="curve"/>
      <point x="320" y="232" type="line"/>
      <point x="317" y="213"/>
      <point x="313" y="196"/>
      <point x="310" y="179" type="curve"/>
      <point x="417" y="179" type="line"/>
      <point x="418" y="168"/>
      <point x="414" y="144"/>
      <point x="409" y="134" type="curve"/>
      <point x="375" y="135"/>
      <point x="341" y="136"/>
      <point x="305" y="136" type="curve"/>
      <point x="299" y="83"/>
      <point x="298" y="37"/>
      <point x="304" y="-1" type="curve"/>
      <point x="268" y="2"/>
      <point x="181" y="3"/>
      <point x="150" y="-1" type="curve"/>
      <point x="165" y="33"/>
      <point x="179" y="84"/>
      <point x="190" y="137" type="curve"/>
      <point x="158" y="137"/>
      <point x="124" y="136"/>
      <point x="89" y="136" type="curve"/>
      <point x="85" y="145"/>
      <point x="92" y="175"/>
    </contour>
  </outline>
</glyph>
<glyph name="brokenbar" format="1">
  <advance width="246"/>
  <unicode hex="00A6"/>
  <outline>
    <contour>
      <point x="146" y="603" type="curve"/>
      <point x="143" y="494"/>
      <point x="144" y="404"/>
      <point x="145" y="295" type="curve"/>
      <point x="134" y="293"/>
      <point x="113" y="291"/>
      <point x="102" y="292" type="curve"/>
      <point x="103" y="401"/>
      <point x="104" y="494"/>
      <point x="103" y="603" type="curve"/>
      <point x="112" y="604"/>
      <point x="140" y="604"/>
    </contour>
    <contour>
      <point x="145" y="229" type="curve"/>
      <point x="142" y="120"/>
      <point x="143" y="23"/>
      <point x="144" y="-86" type="curve"/>
      <point x="133" y="-87"/>
      <point x="112" y="-89"/>
      <point x="101" y="-88" type="curve"/>
      <point x="102" y="21"/>
      <point x="103" y="120"/>
      <point x="102" y="228" type="curve"/>
      <point x="111" y="230"/>
      <point x="139" y="230"/>
    </contour>
  </outline>
</glyph>
<glyph name="section" format="1">
  <advance width="432"/>
  <unicode hex="00A7"/>
  <outline>
    <contour>
      <point x="359" y="598" type="curve"/>
      <point x="368" y="591"/>
      <point x="378" y="575"/>
      <point x="380" y="566" type="curve"/>
      <point x="308" y="515"/>
      <point x="293" y="462"/>
      <point x="292" y="436" type="curve" smooth="yes"/>
      <point x="291" y="389"/>
      <point x="305" y="362"/>
      <point x="336" y="316" type="curve"/>
      <point x="365" y="271"/>
      <point x="384" y="234"/>
      <point x="384" y="185" type="curve" smooth="yes"/>
      <point x="384" y="109"/>
      <point x="329" y="36"/>
      <point x="251" y="-4" type="curve"/>
      <point x="246" y="-79"/>
      <point x="176" y="-153"/>
      <point x="48" y="-153" type="curve" smooth="yes"/>
      <point x="35" y="-153"/>
      <point x="19" y="-149"/>
      <point x="3" y="-146" type="curve"/>
      <point x="1" y="-138"/>
      <point x="5" y="-111"/>
      <point x="7" y="-104" type="curve"/>
      <point x="102" y="-116"/>
      <point x="137" y="-83"/>
      <point x="137" y="-21" type="curve" smooth="yes"/>
      <point x="137" y="22"/>
      <point x="118" y="65"/>
      <point x="91" y="115" type="curve" smooth="yes"/>
      <point x="67" y="159"/>
      <point x="52" y="201"/>
      <point x="52" y="245" type="curve" smooth="yes"/>
      <point x="52" y="325"/>
      <point x="107" y="390"/>
      <point x="193" y="467" type="curve" smooth="yes"/>
      <point x="236" y="506"/>
      <point x="320" y="571"/>
    </contour>
    <contour>
      <point x="281" y="140" type="curve" smooth="yes"/>
      <point x="281" y="171"/>
      <point x="263" y="212"/>
      <point x="238" y="254" type="curve" smooth="yes"/>
      <point x="204" y="310"/>
      <point x="185" y="353"/>
      <point x="205" y="418" type="curve"/>
      <point x="159" y="377"/>
      <point x="148" y="331"/>
      <point x="149" y="290" type="curve"/>
      <point x="151" y="255"/>
      <point x="163" y="228"/>
      <point x="194" y="178" type="curve" smooth="yes"/>
      <point x="215" y="143"/>
      <point x="244" y="88"/>
      <point x="248" y="40" type="curve"/>
      <point x="267" y="58"/>
      <point x="281" y="95"/>
    </contour>
  </outline>
</glyph>
<glyph name="dieresis" format="1">
  <advance width="416"/>
  <unicode hex="00A8"/>
  <outline>
    <contour>
      <point x="141" y="535" type="curve" smooth="yes"/>
      <point x="171" y="535"/>
      <point x="187" y="520"/>
      <point x="187" y="498" type="curve" smooth="yes"/>
      <point x="187" y="472"/>
      <point x="155" y="455"/>
      <point x="125" y="455" type="curve" smooth="yes"/>
      <point x="103" y="455"/>
      <point x="86" y="469"/>
      <point x="86" y="489" type="curve" smooth="yes"/>
      <point x="86" y="511"/>
      <point x="113" y="535"/>
    </contour>
    <contour>
      <point x="295" y="535" type="curve" smooth="yes"/>
      <point x="325" y="535"/>
      <point x="340" y="520"/>
      <point x="340" y="498" type="curve" smooth="yes"/>
      <point x="340" y="472"/>
      <point x="308" y="455"/>
      <point x="278" y="455" type="curve" smooth="yes"/>
      <point x="256" y="455"/>
      <point x="239" y="469"/>
      <point x="239" y="489" type="curve" smooth="yes"/>
      <point x="239" y="511"/>
      <point x="266" y="535"/>
    </contour>
  </outline>
</glyph>
<glyph name="copyright" format="1">
  <advance width="757"/>
  <unicode hex="00A9"/>
  <outline>
    <contour>
      <point x="54" y="269" type="curve" smooth="yes"/>
      <point x="54" y="453"/>
      <point x="203" y="602"/>
      <point x="387" y="602" type="curve" smooth="yes"/>
      <point x="571" y="602"/>
      <point x="720" y="453"/>
      <point x="720" y="269" type="curve" smooth="yes"/>
      <point x="720" y="85"/>
      <point x="571" y="-64"/>
      <point x="387" y="-64" type="curve" smooth="yes"/>
      <point x="203" y="-64"/>
      <point x="54" y="85"/>
    </contour>
    <contour>
      <point x="97" y="268" type="curve" smooth="yes"/>
      <point x="97" y="110"/>
      <point x="229" y="-24"/>
      <point x="387" y="-24" type="curve" smooth="yes"/>
      <point x="553" y="-24"/>
      <point x="679" y="110"/>
      <point x="679" y="268" type="curve" smooth="yes"/>
      <point x="679" y="429"/>
      <point x="548" y="563"/>
      <point x="387" y="563" type="curve" smooth="yes"/>
      <point x="229" y="563"/>
      <point x="97" y="429"/>
    </contour>
    <contour>
      <point x="379" y="37" type="curve"/>
      <point x="236" y="40"/>
      <point x="180" y="143"/>
      <point x="180" y="236" type="curve" smooth="yes"/>
      <point x="180" y="363"/>
      <point x="270" y="504"/>
      <point x="438" y="504" type="curve" smooth="yes"/>
      <point x="460" y="504"/>
      <point x="500" y="492"/>
      <point x="524" y="475" type="curve" smooth="yes"/>
      <point x="524" y="474"/>
      <point x="513" y="437"/>
      <point x="509" y="437" type="curve"/>
      <point x="489" y="446"/>
      <point x="459" y="453"/>
      <point x="433" y="453" type="curve" smooth="yes"/>
      <point x="334" y="453"/>
      <point x="283" y="358"/>
      <point x="283" y="239" type="curve" smooth="yes"/>
      <point x="283" y="153"/>
      <point x="325" y="99"/>
      <point x="398" y="97" type="curve" smooth="yes"/>
      <point x="433" y="96"/>
      <point x="481" y="106"/>
      <point x="527" y="129" type="curve"/>
      <point x="532" y="125"/>
      <point x="540" y="101"/>
      <point x="542" y="90" type="curve"/>
      <point x="500" y="67"/>
      <point x="430" y="37"/>
    </contour>
  </outline>
</glyph>
<glyph name="ordfeminine" format="1">
  <advance width="400"/>
  <unicode hex="00AA"/>
  <outline>
    <contour>
      <point x="422" y="583" type="curve"/>
      <point x="411" y="571"/>
      <point x="403" y="552"/>
      <point x="395" y="526" type="curve" smooth="yes"/>
      <point x="366" y="436"/>
      <point x="343" y="283"/>
      <point x="349" y="236" type="curve"/>
      <point x="329" y="237"/>
      <point x="253" y="238"/>
      <point x="225" y="231" type="curve"/>
      <point x="226" y="249"/>
      <point x="244" y="328"/>
      <point x="251" y="362" type="curve"/>
      <point x="196" y="313"/>
      <point x="172" y="285"/>
      <point x="99" y="223" type="curve"/>
      <point x="63" y="247"/>
      <point x="45" y="300"/>
      <point x="45" y="342" type="curve" smooth="yes"/>
      <point x="45" y="445"/>
      <point x="113" y="582"/>
      <point x="269" y="586" type="curve" smooth="yes"/>
      <point x="308" y="586"/>
      <point x="390" y="586"/>
    </contour>
    <contour>
      <point x="290" y="543" type="curve"/>
      <point x="283" y="544"/>
      <point x="276" y="544"/>
      <point x="270" y="544" type="curve" smooth="yes"/>
      <point x="187" y="543"/>
      <point x="150" y="460"/>
      <point x="150" y="390" type="curve" smooth="yes"/>
      <point x="150" y="366"/>
      <point x="154" y="353"/>
      <point x="162" y="341" type="curve"/>
      <point x="196" y="366"/>
      <point x="236" y="397"/>
      <point x="261" y="423" type="curve"/>
      <point x="269" y="446"/>
      <point x="288" y="515"/>
    </contour>
  </outline>
</glyph>
<glyph name="guillemotleft" format="1">
  <advance width="380"/>
  <unicode hex="00AB"/>
  <outline>
    <contour>
      <point x="144" y="48" type="curve"/>
      <point x="136" y="43"/>
      <point x="114" y="36"/>
      <point x="104" y="35" type="curve"/>
      <point x="76" y="94"/>
      <point x="54" y="133"/>
      <point x="21" y="186" type="curve"/>
      <point x="70" y="233"/>
      <point x="124" y="298"/>
      <point x="158" y="347" type="curve"/>
      <point x="169" y="345"/>
      <point x="191" y="335"/>
      <point x="198" y="328" type="curve"/>
      <point x="169" y="279"/>
      <point x="145" y="231"/>
      <point x="129" y="189" type="curve"/>
      <point x="130" y="148"/>
      <point x="131" y="100"/>
    </contour>
    <contour>
      <point x="304" y="48" type="curve"/>
      <point x="296" y="43"/>
      <point x="274" y="36"/>
      <point x="264" y="35" type="curve"/>
      <point x="236" y="94"/>
      <point x="214" y="133"/>
      <point x="181" y="186" type="curve"/>
      <point x="230" y="233"/>
      <point x="284" y="298"/>
      <point x="318" y="347" type="curve"/>
      <point x="329" y="345"/>
      <point x="351" y="335"/>
      <point x="358" y="328" type="curve"/>
      <point x="329" y="279"/>
      <point x="305" y="231"/>
      <point x="289" y="189" type="curve"/>
      <point x="290" y="148"/>
      <point x="291" y="100"/>
    </contour>
  </outline>
</glyph>
<glyph name="uni00AD" format="1">
  <advance width="0"/>
  <unicode hex="00AD"/>
  <outline>
    <contour>
      <point x="-99" y="271" type="curve"/>
      <point x="-69" y="274"/>
      <point x="67" y="293"/>
      <point x="88" y="298" type="curve"/>
      <point x="91" y="286"/>
      <point x="94" y="260"/>
      <point x="88" y="241" type="curve"/>
      <point x="64" y="239"/>
      <point x="-69" y="222"/>
      <point x="-97" y="216" type="curve"/>
      <point x="-100" y="226"/>
      <point x="-100" y="260"/>
    </contour>
  </outline>
</glyph>
<glyph name="registered" format="1">
  <advance width="757"/>
  <unicode hex="00AE"/>
  <outline>
    <contour>
      <point x="54" y="269" type="curve" smooth="yes"/>
      <point x="54" y="453"/>
      <point x="203" y="602"/>
      <point x="387" y="602" type="curve" smooth="yes"/>
      <point x="571" y="602"/>
      <point x="720" y="453"/>
      <point x="720" y="269" type="curve" smooth="yes"/>
      <point x="720" y="85"/>
      <point x="571" y="-64"/>
      <point x="387" y="-64" type="curve" smooth="yes"/>
      <point x="203" y="-64"/>
      <point x="54" y="85"/>
    </contour>
    <contour>
      <point x="97" y="268" type="curve" smooth="yes"/>
      <point x="97" y="110"/>
      <point x="229" y="-24"/>
      <point x="387" y="-24" type="curve" smooth="yes"/>
      <point x="459" y="-24"/>
      <point x="526" y="3"/>
      <point x="577" y="47" type="curve"/>
      <point x="545" y="48"/>
      <point x="488" y="50"/>
      <point x="470" y="44" type="curve"/>
      <point x="442" y="117"/>
      <point x="390" y="233"/>
      <point x="347" y="305" type="curve"/>
      <point x="351" y="313"/>
      <point x="358" y="321"/>
      <point x="365" y="327" type="curve"/>
      <point x="433" y="333"/>
      <point x="458" y="364"/>
      <point x="458" y="403" type="curve" smooth="yes"/>
      <point x="458" y="440"/>
      <point x="419" y="447"/>
      <point x="371" y="448" type="curve"/>
      <point x="330" y="448" type="line"/>
      <point x="325" y="373"/>
      <point x="327" y="191"/>
      <point x="333" y="48" type="curve"/>
      <point x="310" y="51"/>
      <point x="249" y="52"/>
      <point x="226" y="42" type="curve"/>
      <point x="238" y="128"/>
      <point x="233" y="436"/>
      <point x="228" y="492" type="curve"/>
      <point x="248" y="489"/>
      <point x="347" y="491"/>
      <point x="373" y="491" type="curve" smooth="yes"/>
      <point x="433" y="491"/>
      <point x="562" y="494"/>
      <point x="561" y="414" type="curve" smooth="yes"/>
      <point x="561" y="377"/>
      <point x="531" y="334"/>
      <point x="450" y="312" type="curve"/>
      <point x="482" y="236"/>
      <point x="523" y="151"/>
      <point x="589" y="59" type="curve"/>
      <point x="644" y="112"/>
      <point x="679" y="187"/>
      <point x="679" y="268" type="curve" smooth="yes"/>
      <point x="679" y="429"/>
      <point x="548" y="563"/>
      <point x="387" y="563" type="curve" smooth="yes"/>
      <point x="229" y="563"/>
      <point x="97" y="429"/>
    </contour>
  </outline>
</glyph>
<glyph name="macron" format="1">
  <advance width="416"/>
  <unicode hex="00AF"/>
  <outline>
    <contour>
      <point x="136" y="511" type="curve"/>
      <point x="236" y="509"/>
      <point x="293" y="509"/>
      <point x="368" y="511" type="curve"/>
      <point x="369" y="500"/>
      <point x="364" y="475"/>
      <point x="359" y="465" type="curve"/>
      <point x="263" y="468"/>
      <point x="254" y="469"/>
      <point x="129" y="466" type="curve"/>
      <point x="126" y="474"/>
      <point x="133" y="505"/>
    </contour>
  </outline>
</glyph>
<glyph name="degree" format="1">
  <advance width="332"/>
  <unicode hex="00B0"/>
  <outline>
    <contour>
      <point x="78" y="477" type="curve" smooth="yes"/>
      <point x="78" y="539"/>
      <point x="136" y="597"/>
      <point x="198" y="597" type="curve" smooth="yes"/>
      <point x="265" y="597"/>
      <point x="317" y="553"/>
      <point x="317" y="477" type="curve" smooth="yes"/>
      <point x="317" y="414"/>
      <point x="261" y="358"/>
      <point x="197" y="358" type="curve" smooth="yes"/>
      <point x="132" y="358"/>
      <point x="78" y="403"/>
    </contour>
    <contour>
      <point x="125" y="477" type="curve" smooth="yes"/>
      <point x="125" y="436"/>
      <point x="153" y="402"/>
      <point x="197" y="402" type="curve" smooth="yes"/>
      <point x="238" y="402"/>
      <point x="270" y="436"/>
      <point x="270" y="477" type="curve" smooth="yes"/>
      <point x="270" y="520"/>
      <point x="238" y="551"/>
      <point x="197" y="551" type="curve" smooth="yes"/>
      <point x="156" y="551"/>
      <point x="125" y="518"/>
    </contour>
  </outline>
</glyph>
<glyph name="twosuperior" format="1">
  <advance width="313"/>
  <unicode hex="00B2"/>
  <outline>
    <contour>
      <point x="98" y="569" type="curve"/>
      <point x="135" y="581"/>
      <point x="190" y="592"/>
      <point x="217" y="592" type="curve"/>
      <point x="266" y="594"/>
      <point x="309" y="581"/>
      <point x="309" y="529" type="curve" smooth="yes"/>
      <point x="309" y="474"/>
      <point x="245" y="404"/>
      <point x="154" y="323" type="curve"/>
      <point x="193" y="310"/>
      <point x="265" y="313"/>
      <point x="303" y="323" type="curve"/>
      <point x="285" y="300"/>
      <point x="266" y="257"/>
      <point x="261" y="231" type="curve"/>
      <point x="202" y="229"/>
      <point x="141" y="237"/>
      <point x="94" y="260" type="curve"/>
      <point x="74" y="248"/>
      <point x="63" y="238"/>
      <point x="48" y="226" type="curve"/>
      <point x="41" y="228"/>
      <point x="29" y="244"/>
      <point x="25" y="250" type="curve"/>
      <point x="59" y="278"/>
      <point x="99" y="311"/>
      <point x="135" y="353" type="curve" smooth="yes"/>
      <point x="186" y="411"/>
      <point x="208" y="463"/>
      <point x="208" y="517" type="curve" smooth="yes"/>
      <point x="208" y="539"/>
      <point x="192" y="547"/>
      <point x="168" y="547" type="curve" smooth="yes"/>
      <point x="150" y="547"/>
      <point x="127" y="543"/>
      <point x="106" y="537" type="curve"/>
      <point x="103" y="541"/>
      <point x="98" y="561"/>
    </contour>
  </outline>
</glyph>
<glyph name="threesuperior" format="1">
  <advance width="293"/>
  <unicode hex="00B3"/>
  <outline>
    <contour>
      <point x="94" y="572" type="curve"/>
      <point x="122" y="581"/>
      <point x="174" y="590"/>
      <point x="199" y="590" type="curve" smooth="yes"/>
      <point x="256" y="590"/>
      <point x="293" y="578"/>
      <point x="293" y="538" type="curve" smooth="yes"/>
      <point x="293" y="503"/>
      <point x="250" y="474"/>
      <point x="199" y="453" type="curve"/>
      <point x="262" y="454"/>
      <point x="290" y="434"/>
      <point x="290" y="385" type="curve" smooth="yes"/>
      <point x="290" y="316"/>
      <point x="193" y="251"/>
      <point x="47" y="214" type="curve"/>
      <point x="39" y="222"/>
      <point x="35" y="232"/>
      <point x="31" y="241" type="curve"/>
      <point x="141" y="270"/>
      <point x="187" y="325"/>
      <point x="187" y="380" type="curve" smooth="yes"/>
      <point x="187" y="416"/>
      <point x="167" y="425"/>
      <point x="150" y="425" type="curve" smooth="yes"/>
      <point x="139" y="425"/>
      <point x="125" y="424"/>
      <point x="118" y="423" type="curve"/>
      <point x="115" y="428"/>
      <point x="111" y="444"/>
      <point x="112" y="452" type="curve"/>
      <point x="172" y="465"/>
      <point x="197" y="490"/>
      <point x="197" y="524" type="curve" smooth="yes"/>
      <point x="197" y="541"/>
      <point x="185" y="550"/>
      <point x="157" y="550" type="curve" smooth="yes"/>
      <point x="139" y="550"/>
      <point x="118" y="547"/>
      <point x="100" y="542" type="curve"/>
      <point x="97" y="547"/>
      <point x="94" y="565"/>
    </contour>
  </outline>
</glyph>
<glyph name="acute" format="1">
  <advance width="416"/>
  <unicode hex="00B4"/>
  <outline>
    <contour>
      <point x="333" y="585" type="curve"/>
      <point x="333" y="566"/>
      <point x="350" y="509"/>
      <point x="360" y="487" type="curve"/>
      <point x="289" y="483"/>
      <point x="220" y="473"/>
      <point x="152" y="457" type="curve"/>
      <point x="144" y="486" type="line"/>
      <point x="207" y="513"/>
      <point x="292" y="557"/>
    </contour>
  </outline>
</glyph>
<glyph name="mu" format="1">
  <advance width="485"/>
  <unicode hex="00B5"/>
  <unicode hex="03bc"/>
  <outline>
    <contour>
      <point x="381" y="-1" type="curve"/>
      <point x="364" y="2"/>
      <point x="280" y="2"/>
      <point x="248" y="-2" type="curve"/>
      <point x="260" y="31"/>
      <point x="269" y="59"/>
      <point x="284" y="136" type="curve"/>
      <point x="213" y="81"/>
      <point x="179" y="50"/>
      <point x="107" y="-17" type="curve"/>
      <point x="90" y="-6"/>
      <point x="69" y="12"/>
      <point x="57" y="28" type="curve"/>
      <point x="45" y="-95"/>
      <point x="52" y="-219"/>
      <point x="52" y="-270" type="curve"/>
      <point x="25" y="-270"/>
      <point x="-65" y="-274"/>
      <point x="-95" y="-280" type="curve"/>
      <point x="-52" y="-187"/>
      <point x="17" y="54"/>
      <point x="41" y="164" type="curve"/>
      <point x="69" y="286"/>
      <point x="80" y="340"/>
      <point x="81" y="391" type="curve"/>
      <point x="103" y="387"/>
      <point x="180" y="387"/>
      <point x="213" y="391" type="curve"/>
      <point x="185" y="322"/>
      <point x="171" y="251"/>
      <point x="159" y="186" type="curve" smooth="yes"/>
      <point x="151" y="148"/>
      <point x="151" y="119"/>
      <point x="168" y="101" type="curve"/>
      <point x="215" y="132"/>
      <point x="237" y="147"/>
      <point x="295" y="194" type="curve"/>
      <point x="306" y="238"/>
      <point x="325" y="329"/>
      <point x="332" y="391" type="curve"/>
      <point x="352" y="387"/>
      <point x="431" y="386"/>
      <point x="461" y="392" type="curve"/>
      <point x="429" y="323"/>
      <point x="375" y="62"/>
    </contour>
  </outline>
</glyph>
<glyph name="paragraph" format="1">
  <advance width="573"/>
  <unicode hex="00B6"/>
  <outline>
    <contour>
      <point x="476" y="-1" type="curve"/>
      <point x="341" y="0" type="line"/>
      <point x="387" y="206"/>
      <point x="411" y="354"/>
      <point x="434" y="541" type="curve"/>
      <point x="429" y="542"/>
      <point x="414" y="543"/>
      <point x="400" y="542" type="curve"/>
      <point x="359" y="334"/>
      <point x="337" y="211"/>
      <point x="303" y="0" type="curve"/>
      <point x="292" y="1"/>
      <point x="263" y="2"/>
      <point x="251" y="-1" type="curve"/>
      <point x="292" y="196"/>
      <point x="316" y="334"/>
      <point x="352" y="541" type="curve"/>
      <point x="283" y="539"/>
      <point x="188" y="521"/>
      <point x="174" y="392" type="curve" smooth="yes"/>
      <point x="171" y="365"/>
      <point x="181" y="326"/>
      <point x="222" y="326" type="curve" smooth="yes"/>
      <point x="235" y="326"/>
      <point x="246" y="328"/>
      <point x="263" y="332" type="curve"/>
      <point x="266" y="326"/>
      <point x="269" y="305"/>
      <point x="269" y="297" type="curve"/>
      <point x="241" y="287"/>
      <point x="207" y="280"/>
      <point x="176" y="280" type="curve" smooth="yes"/>
      <point x="80" y="280"/>
      <point x="52" y="332"/>
      <point x="52" y="377" type="curve" smooth="yes"/>
      <point x="52" y="486"/>
      <point x="188" y="583"/>
      <point x="372" y="584" type="curve" smooth="yes"/>
      <point x="407" y="585"/>
      <point x="533" y="587"/>
      <point x="570" y="583" type="curve"/>
      <point x="545" y="508"/>
      <point x="475" y="81"/>
    </contour>
  </outline>
</glyph>
<glyph name="periodcentered" format="1">
  <advance width="144"/>
  <unicode hex="00B7"/>
  <outline>
    <contour>
      <point x="86" y="332" type="curve" smooth="yes"/>
      <point x="119" y="332"/>
      <point x="136" y="317"/>
      <point x="136" y="293" type="curve" smooth="yes"/>
      <point x="136" y="265"/>
      <point x="100" y="248"/>
      <point x="68" y="248" type="curve" smooth="yes"/>
      <point x="44" y="248"/>
      <point x="25" y="261"/>
      <point x="25" y="282" type="curve" smooth="yes"/>
      <point x="25" y="308"/>
      <point x="55" y="332"/>
    </contour>
  </outline>
</glyph>
<glyph name="cedilla" format="1">
  <advance width="416"/>
  <unicode hex="00B8"/>
  <outline>
    <contour>
      <point x="22" y="-107" type="curve"/>
      <point x="42" y="-86"/>
      <point x="59" y="-55"/>
      <point x="71" y="-32" type="curve"/>
      <point x="108" y="-45"/>
      <point x="148" y="-89"/>
      <point x="145" y="-131" type="curve" smooth="yes"/>
      <point x="144" y="-159"/>
      <point x="84" y="-226"/>
      <point x="35" y="-263" type="curve"/>
      <point x="27" y="-259"/>
      <point x="17" y="-247"/>
      <point x="13" y="-241" type="curve"/>
      <point x="42" y="-215"/>
      <point x="67" y="-191"/>
      <point x="67" y="-166" type="curve" smooth="yes"/>
      <point x="67" y="-147"/>
      <point x="56" y="-127"/>
    </contour>
  </outline>
</glyph>
<glyph name="onesuperior" format="1">
  <advance width="278"/>
  <unicode hex="00B9"/>
  <outline>
    <contour>
      <point x="99" y="229" type="curve"/>
      <point x="130" y="322"/>
      <point x="154" y="465"/>
      <point x="161" y="524" type="curve"/>
      <point x="132" y="522"/>
      <point x="109" y="518"/>
      <point x="80" y="512" type="curve"/>
      <point x="78" y="519"/>
      <point x="74" y="535"/>
      <point x="74" y="546" type="curve"/>
      <point x="108" y="552"/>
      <point x="220" y="581"/>
      <point x="257" y="596" type="curve"/>
      <point x="263" y="595"/>
      <point x="273" y="588"/>
      <point x="278" y="584" type="curve"/>
      <point x="256" y="522"/>
      <point x="225" y="350"/>
      <point x="220" y="236" type="curve"/>
      <point x="196" y="236"/>
      <point x="122" y="234"/>
    </contour>
  </outline>
</glyph>
<glyph name="ordmasculine" format="1">
  <advance width="330"/>
  <unicode hex="00BA"/>
  <outline>
    <contour>
      <point x="143" y="218" type="curve"/>
      <point x="84" y="238"/>
      <point x="51" y="314"/>
      <point x="53" y="364" type="curve" smooth="yes"/>
      <point x="57" y="478"/>
      <point x="148" y="554"/>
      <point x="253" y="603" type="curve"/>
      <point x="314" y="576"/>
      <point x="334" y="515"/>
      <point x="333" y="464" type="curve" smooth="yes"/>
      <point x="331" y="361"/>
      <point x="244" y="273"/>
    </contour>
    <contour>
      <point x="146" y="408" type="curve"/>
      <point x="144" y="359"/>
      <point x="159" y="330"/>
      <point x="187" y="305" type="curve"/>
      <point x="221" y="329"/>
      <point x="240" y="390"/>
      <point x="240" y="421" type="curve" smooth="yes"/>
      <point x="240" y="464"/>
      <point x="228" y="497"/>
      <point x="203" y="519" type="curve"/>
      <point x="163" y="494"/>
      <point x="146" y="440"/>
    </contour>
  </outline>
</glyph>
<glyph name="guillemotright" format="1">
  <advance width="380"/>
  <unicode hex="00BB"/>
  <outline>
    <contour>
      <point x="76" y="354" type="curve"/>
      <point x="84" y="359"/>
      <point x="106" y="366"/>
      <point x="116" y="367" type="curve"/>
      <point x="144" y="308"/>
      <point x="166" y="269"/>
      <point x="199" y="216" type="curve"/>
      <point x="150" y="169"/>
      <point x="96" y="104"/>
      <point x="62" y="55" type="curve"/>
      <point x="51" y="57"/>
      <point x="29" y="67"/>
      <point x="22" y="74" type="curve"/>
      <point x="51" y="123"/>
      <point x="75" y="171"/>
      <point x="91" y="213" type="curve"/>
      <point x="90" y="254"/>
      <point x="89" y="302"/>
    </contour>
    <contour>
      <point x="236" y="354" type="curve"/>
      <point x="244" y="359"/>
      <point x="266" y="366"/>
      <point x="276" y="367" type="curve"/>
      <point x="304" y="308"/>
      <point x="326" y="269"/>
      <point x="359" y="216" type="curve"/>
      <point x="310" y="169"/>
      <point x="256" y="104"/>
      <point x="222" y="55" type="curve"/>
      <point x="211" y="57"/>
      <point x="189" y="67"/>
      <point x="182" y="74" type="curve"/>
      <point x="211" y="123"/>
      <point x="235" y="171"/>
      <point x="251" y="213" type="curve"/>
      <point x="250" y="254"/>
      <point x="249" y="302"/>
    </contour>
  </outline>
</glyph>
<glyph name="onequarter" format="1">
  <advance width="717"/>
  <unicode hex="00BC"/>
  <outline>
    <contour>
      <point x="506" y="-3" type="curve"/>
      <point x="519" y="26"/>
      <point x="528" y="57"/>
      <point x="536" y="103" type="curve"/>
      <point x="486" y="105"/>
      <point x="428" y="105"/>
      <point x="391" y="104" type="curve"/>
      <point x="386" y="111"/>
      <point x="382" y="126"/>
      <point x="381" y="136" type="curve"/>
      <point x="458" y="216"/>
      <point x="529" y="303"/>
      <point x="597" y="384" type="curve"/>
      <point x="608" y="382"/>
      <point x="626" y="367"/>
      <point x="630" y="362" type="curve"/>
      <point x="566" y="292"/>
      <point x="508" y="221"/>
      <point x="448" y="142" type="curve"/>
      <point x="488" y="140"/>
      <point x="510" y="141"/>
      <point x="543" y="140" type="curve"/>
      <point x="546" y="157"/>
      <point x="552" y="194"/>
      <point x="561" y="227" type="curve"/>
      <point x="585" y="229"/>
      <point x="634" y="240"/>
      <point x="657" y="249" type="curve"/>
      <point x="647" y="225"/>
      <point x="643" y="204"/>
      <point x="630" y="141" type="curve"/>
      <point x="640" y="141"/>
      <point x="649" y="141"/>
      <point x="660" y="142" type="curve"/>
      <point x="659" y="132"/>
      <point x="655" y="109"/>
      <point x="651" y="101" type="curve"/>
      <point x="636" y="102"/>
      <point x="631" y="102"/>
      <point x="625" y="102" type="curve"/>
      <point x="620" y="81"/>
      <point x="611" y="31"/>
      <point x="610" y="-1" type="curve"/>
      <point x="595" y="0"/>
      <point x="526" y="0"/>
    </contour>
    <contour>
      <point x="99" y="229" type="curve"/>
      <point x="130" y="322"/>
      <point x="154" y="465"/>
      <point x="161" y="524" type="curve"/>
      <point x="132" y="522"/>
      <point x="109" y="518"/>
      <point x="80" y="512" type="curve"/>
      <point x="78" y="519"/>
      <point x="74" y="535"/>
      <point x="74" y="546" type="curve"/>
      <point x="108" y="552"/>
      <point x="220" y="581"/>
      <point x="257" y="596" type="curve"/>
      <point x="263" y="595"/>
      <point x="273" y="588"/>
      <point x="278" y="584" type="curve"/>
      <point x="256" y="522"/>
      <point x="225" y="350"/>
      <point x="220" y="236" type="curve"/>
      <point x="196" y="236"/>
      <point x="122" y="234"/>
    </contour>
    <contour>
      <point x="644" y="593" type="curve"/>
      <point x="115" y="-20" type="line"/>
      <point x="103" y="-19"/>
      <point x="85" y="-17"/>
      <point x="77" y="-8" type="curve"/>
      <point x="605" y="605" type="line"/>
      <point x="617" y="604"/>
      <point x="640" y="598"/>
    </contour>
  </outline>
</glyph>
<glyph name="onehalf" format="1">
  <advance width="722"/>
  <unicode hex="00BD"/>
  <outline>
    <contour>
      <point x="477" y="332" type="curve"/>
      <point x="514" y="344"/>
      <point x="569" y="355"/>
      <point x="596" y="355" type="curve"/>
      <point x="645" y="357"/>
      <point x="688" y="344"/>
      <point x="688" y="292" type="curve" smooth="yes"/>
      <point x="688" y="237"/>
      <point x="624" y="167"/>
      <point x="533" y="86" type="curve"/>
      <point x="572" y="73"/>
      <point x="644" y="76"/>
      <point x="682" y="86" type="curve"/>
      <point x="664" y="63"/>
      <point x="645" y="20"/>
      <point x="640" y="-6" type="curve"/>
      <point x="581" y="-8"/>
      <point x="520" y="0"/>
      <point x="473" y="23" type="curve"/>
      <point x="453" y="11"/>
      <point x="442" y="1"/>
      <point x="427" y="-11" type="curve"/>
      <point x="420" y="-9"/>
      <point x="408" y="7"/>
      <point x="404" y="13" type="curve"/>
      <point x="438" y="41"/>
      <point x="478" y="74"/>
      <point x="514" y="116" type="curve" smooth="yes"/>
      <point x="565" y="174"/>
      <point x="587" y="226"/>
      <point x="587" y="280" type="curve" smooth="yes"/>
      <point x="587" y="302"/>
      <point x="571" y="310"/>
      <point x="547" y="310" type="curve" smooth="yes"/>
      <point x="529" y="310"/>
      <point x="506" y="306"/>
      <point x="485" y="300" type="curve"/>
      <point x="482" y="304"/>
      <point x="477" y="324"/>
    </contour>
    <contour>
      <point x="99" y="229" type="curve"/>
      <point x="130" y="322"/>
      <point x="154" y="465"/>
      <point x="161" y="524" type="curve"/>
      <point x="132" y="522"/>
      <point x="109" y="518"/>
      <point x="80" y="512" type="curve"/>
      <point x="78" y="519"/>
      <point x="74" y="535"/>
      <point x="74" y="546" type="curve"/>
      <point x="108" y="552"/>
      <point x="220" y="581"/>
      <point x="257" y="596" type="curve"/>
      <point x="263" y="595"/>
      <point x="273" y="588"/>
      <point x="278" y="584" type="curve"/>
      <point x="256" y="522"/>
      <point x="225" y="350"/>
      <point x="220" y="236" type="curve"/>
      <point x="196" y="236"/>
      <point x="122" y="234"/>
    </contour>
    <contour>
      <point x="644" y="593" type="curve"/>
      <point x="115" y="-20" type="line"/>
      <point x="103" y="-19"/>
      <point x="85" y="-17"/>
      <point x="77" y="-8" type="curve"/>
      <point x="605" y="605" type="line"/>
      <point x="617" y="604"/>
      <point x="640" y="598"/>
    </contour>
  </outline>
</glyph>
<glyph name="threequarters" format="1">
  <advance width="717"/>
  <unicode hex="00BE"/>
  <outline>
    <contour>
      <point x="506" y="-3" type="curve"/>
      <point x="519" y="26"/>
      <point x="528" y="57"/>
      <point x="536" y="103" type="curve"/>
      <point x="486" y="105"/>
      <point x="428" y="105"/>
      <point x="391" y="104" type="curve"/>
      <point x="386" y="111"/>
      <point x="382" y="126"/>
      <point x="381" y="136" type="curve"/>
      <point x="458" y="216"/>
      <point x="529" y="303"/>
      <point x="597" y="384" type="curve"/>
      <point x="608" y="382"/>
      <point x="626" y="367"/>
      <point x="630" y="362" type="curve"/>
      <point x="566" y="292"/>
      <point x="508" y="221"/>
      <point x="448" y="142" type="curve"/>
      <point x="488" y="140"/>
      <point x="510" y="141"/>
      <point x="543" y="140" type="curve"/>
      <point x="546" y="157"/>
      <point x="552" y="194"/>
      <point x="561" y="227" type="curve"/>
      <point x="585" y="229"/>
      <point x="634" y="240"/>
      <point x="657" y="249" type="curve"/>
      <point x="647" y="225"/>
      <point x="643" y="204"/>
      <point x="630" y="141" type="curve"/>
      <point x="640" y="141"/>
      <point x="649" y="141"/>
      <point x="660" y="142" type="curve"/>
      <point x="659" y="132"/>
      <point x="655" y="109"/>
      <point x="651" y="101" type="curve"/>
      <point x="636" y="102"/>
      <point x="631" y="102"/>
      <point x="625" y="102" type="curve"/>
      <point x="620" y="81"/>
      <point x="611" y="31"/>
      <point x="610" y="-1" type="curve"/>
      <point x="595" y="0"/>
      <point x="526" y="0"/>
    </contour>
    <contour>
      <point x="102" y="572" type="curve"/>
      <point x="130" y="581"/>
      <point x="182" y="590"/>
      <point x="207" y="590" type="curve" smooth="yes"/>
      <point x="264" y="590"/>
      <point x="301" y="578"/>
      <point x="301" y="538" type="curve" smooth="yes"/>
      <point x="301" y="503"/>
      <point x="258" y="474"/>
      <point x="207" y="453" type="curve"/>
      <point x="270" y="454"/>
      <point x="298" y="434"/>
      <point x="298" y="385" type="curve" smooth="yes"/>
      <point x="298" y="316"/>
      <point x="201" y="251"/>
      <point x="55" y="214" type="curve"/>
      <point x="47" y="222"/>
      <point x="43" y="232"/>
      <point x="39" y="241" type="curve"/>
      <point x="149" y="270"/>
      <point x="195" y="325"/>
      <point x="195" y="380" type="curve" smooth="yes"/>
      <point x="195" y="416"/>
      <point x="175" y="425"/>
      <point x="158" y="425" type="curve" smooth="yes"/>
      <point x="147" y="425"/>
      <point x="133" y="424"/>
      <point x="126" y="423" type="curve"/>
      <point x="123" y="428"/>
      <point x="119" y="444"/>
      <point x="120" y="452" type="curve"/>
      <point x="180" y="465"/>
      <point x="205" y="490"/>
      <point x="205" y="524" type="curve" smooth="yes"/>
      <point x="205" y="541"/>
      <point x="193" y="550"/>
      <point x="165" y="550" type="curve" smooth="yes"/>
      <point x="147" y="550"/>
      <point x="126" y="547"/>
      <point x="108" y="542" type="curve"/>
      <point x="105" y="547"/>
      <point x="102" y="565"/>
    </contour>
    <contour>
      <point x="644" y="593" type="curve"/>
      <point x="115" y="-20" type="line"/>
      <point x="103" y="-19"/>
      <point x="85" y="-17"/>
      <point x="77" y="-8" type="curve"/>
      <point x="605" y="605" type="line"/>
      <point x="617" y="604"/>
      <point x="640" y="598"/>
    </contour>
  </outline>
</glyph>
<glyph name="questiondown" format="1">
  <advance width="256"/>
  <unicode hex="00BF"/>
  <outline>
    <contour>
      <point x="149" y="236" type="curve"/>
      <point x="177" y="192"/>
      <point x="195" y="162"/>
      <point x="194" y="124" type="curve"/>
      <point x="194" y="70"/>
      <point x="106" y="-4"/>
      <point x="104" y="-51" type="curve" smooth="yes"/>
      <point x="102" y="-96"/>
      <point x="107" y="-141"/>
      <point x="139" y="-198" type="curve"/>
      <point x="130" y="-206"/>
      <point x="117" y="-214"/>
      <point x="105" y="-217" type="curve"/>
      <point x="48" y="-156"/>
      <point x="-5" y="-69"/>
      <point x="-4" y="-29" type="curve" smooth="yes"/>
      <point x="-2" y="50"/>
      <point x="120" y="99"/>
      <point x="120" y="175" type="curve" smooth="yes"/>
      <point x="120" y="196"/>
      <point x="118" y="209"/>
      <point x="114" y="222" type="curve"/>
      <point x="122" y="227"/>
      <point x="139" y="236"/>
    </contour>
    <contour>
      <point x="154" y="288" type="curve" smooth="yes"/>
      <point x="115" y="288"/>
      <point x="94" y="307"/>
      <point x="94" y="335" type="curve" smooth="yes"/>
      <point x="94" y="369"/>
      <point x="133" y="390"/>
      <point x="174" y="390" type="curve" smooth="yes"/>
      <point x="205" y="390"/>
      <point x="227" y="373"/>
      <point x="227" y="349" type="curve" smooth="yes"/>
      <point x="227" y="318"/>
      <point x="192" y="288"/>
    </contour>
  </outline>
</glyph>
<glyph name="Agrave" format="1">
  <advance width="555"/>
  <unicode hex="00C0"/>
  <outline>
    <contour>
      <point x="350" y="-1" type="curve"/>
      <point x="356" y="25"/>
      <point x="348" y="120"/>
      <point x="338" y="217" type="curve"/>
      <point x="287" y="210"/>
      <point x="218" y="201"/>
      <point x="173" y="192" type="curve"/>
      <point x="157" y="164"/>
      <point x="142" y="136"/>
      <point x="127" y="104" type="curve" smooth="yes"/>
      <point x="112" y="74"/>
      <point x="95" y="39"/>
      <point x="86" y="9" type="curve"/>
      <point x="60" y="5"/>
      <point x="-7" y="-6"/>
      <point x="-45" y="-16" type="curve"/>
      <point x="0" y="25"/>
      <point x="68" y="118"/>
      <point x="117" y="194" type="curve" smooth="yes"/>
      <point x="188" y="305"/>
      <point x="248" y="408"/>
      <point x="290" y="491" type="curve" smooth="yes"/>
      <point x="311" y="532"/>
      <point x="323" y="563"/>
      <point x="324" y="576" type="curve"/>
      <point x="341" y="588"/>
      <point x="389" y="598"/>
      <point x="407" y="603" type="curve"/>
      <point x="415" y="460"/>
      <point x="464" y="103"/>
      <point x="512" y="-1" type="curve"/>
      <point x="453" y="5"/>
      <point x="380" y="1"/>
    </contour>
    <contour>
      <point x="314" y="440" type="curve"/>
      <point x="305" y="425"/>
      <point x="295" y="406"/>
      <point x="286" y="390" type="curve" smooth="yes"/>
      <point x="198" y="239" type="line"/>
      <point x="245" y="242"/>
      <point x="293" y="248"/>
      <point x="335" y="253" type="curve"/>
      <point x="320" y="389" type="line" smooth="yes"/>
      <point x="318" y="406"/>
      <point x="315" y="419"/>
    </contour>
    <contour>
      <point x="303" y="766" type="curve"/>
      <point x="335" y="737"/>
      <point x="397" y="692"/>
      <point x="458" y="659" type="curve"/>
      <point x="447" y="633" type="line"/>
      <point x="385" y="650"/>
      <point x="328" y="658"/>
      <point x="260" y="668" type="curve"/>
      <point x="272" y="686"/>
      <point x="298" y="746"/>
    </contour>
  </outline>
</glyph>
<glyph name="Aacute" format="1">
  <advance width="555"/>
  <unicode hex="00C1"/>
  <outline>
    <contour>
      <point x="350" y="-1" type="curve"/>
      <point x="356" y="25"/>
      <point x="348" y="120"/>
      <point x="338" y="217" type="curve"/>
      <point x="287" y="210"/>
      <point x="218" y="201"/>
      <point x="173" y="192" type="curve"/>
      <point x="157" y="164"/>
      <point x="142" y="136"/>
      <point x="127" y="104" type="curve" smooth="yes"/>
      <point x="112" y="74"/>
      <point x="95" y="39"/>
      <point x="86" y="9" type="curve"/>
      <point x="60" y="5"/>
      <point x="-7" y="-6"/>
      <point x="-45" y="-16" type="curve"/>
      <point x="0" y="25"/>
      <point x="68" y="118"/>
      <point x="117" y="194" type="curve" smooth="yes"/>
      <point x="188" y="305"/>
      <point x="248" y="408"/>
      <point x="290" y="491" type="curve" smooth="yes"/>
      <point x="311" y="532"/>
      <point x="323" y="563"/>
      <point x="324" y="576" type="curve"/>
      <point x="341" y="588"/>
      <point x="389" y="598"/>
      <point x="407" y="603" type="curve"/>
      <point x="415" y="460"/>
      <point x="464" y="103"/>
      <point x="512" y="-1" type="curve"/>
      <point x="453" y="5"/>
      <point x="380" y="1"/>
    </contour>
    <contour>
      <point x="314" y="440" type="curve"/>
      <point x="305" y="425"/>
      <point x="295" y="406"/>
      <point x="286" y="390" type="curve" smooth="yes"/>
      <point x="198" y="239" type="line"/>
      <point x="245" y="242"/>
      <point x="293" y="248"/>
      <point x="335" y="253" type="curve"/>
      <point x="320" y="389" type="line" smooth="yes"/>
      <point x="318" y="406"/>
      <point x="315" y="419"/>
    </contour>
    <contour>
      <point x="468" y="764" type="curve"/>
      <point x="468" y="745"/>
      <point x="485" y="688"/>
      <point x="495" y="666" type="curve"/>
      <point x="424" y="662"/>
      <point x="355" y="652"/>
      <point x="287" y="636" type="curve"/>
      <point x="279" y="665" type="line"/>
      <point x="342" y="692"/>
      <point x="427" y="736"/>
    </contour>
  </outline>
</glyph>
<glyph name="Atilde" format="1">
  <advance width="555"/>
  <unicode hex="00C3"/>
  <outline>
    <contour>
      <point x="350" y="-1" type="curve"/>
      <point x="356" y="25"/>
      <point x="348" y="120"/>
      <point x="338" y="217" type="curve"/>
      <point x="287" y="210"/>
      <point x="218" y="201"/>
      <point x="173" y="192" type="curve"/>
      <point x="157" y="164"/>
      <point x="142" y="136"/>
      <point x="127" y="104" type="curve" smooth="yes"/>
      <point x="112" y="74"/>
      <point x="95" y="39"/>
      <point x="86" y="9" type="curve"/>
      <point x="60" y="5"/>
      <point x="-7" y="-6"/>
      <point x="-45" y="-16" type="curve"/>
      <point x="0" y="25"/>
      <point x="68" y="118"/>
      <point x="117" y="194" type="curve" smooth="yes"/>
      <point x="188" y="305"/>
      <point x="248" y="408"/>
      <point x="290" y="491" type="curve" smooth="yes"/>
      <point x="311" y="532"/>
      <point x="323" y="563"/>
      <point x="324" y="576" type="curve"/>
      <point x="341" y="588"/>
      <point x="389" y="598"/>
      <point x="407" y="603" type="curve"/>
      <point x="415" y="460"/>
      <point x="464" y="103"/>
      <point x="512" y="-1" type="curve"/>
      <point x="453" y="5"/>
      <point x="380" y="1"/>
    </contour>
    <contour>
      <point x="314" y="440" type="curve"/>
      <point x="305" y="425"/>
      <point x="295" y="406"/>
      <point x="286" y="390" type="curve" smooth="yes"/>
      <point x="198" y="239" type="line"/>
      <point x="245" y="242"/>
      <point x="293" y="248"/>
      <point x="335" y="253" type="curve"/>
      <point x="320" y="389" type="line" smooth="yes"/>
      <point x="318" y="406"/>
      <point x="315" y="419"/>
    </contour>
    <contour>
      <point x="417" y="634" type="curve" smooth="yes"/>
      <point x="400" y="634"/>
      <point x="360" y="650"/>
      <point x="341" y="651" type="curve"/>
      <point x="320" y="651"/>
      <point x="301" y="643"/>
      <point x="275" y="628" type="curve"/>
      <point x="267" y="637"/>
      <point x="262" y="649"/>
      <point x="261" y="657" type="curve"/>
      <point x="293" y="688"/>
      <point x="354" y="727"/>
      <point x="374" y="727" type="curve" smooth="yes"/>
      <point x="393" y="727"/>
      <point x="428" y="712"/>
      <point x="450" y="711" type="curve"/>
      <point x="475" y="711"/>
      <point x="494" y="721"/>
      <point x="518" y="735" type="curve"/>
      <point x="524" y="727"/>
      <point x="532" y="714"/>
      <point x="532" y="704" type="curve"/>
      <point x="494" y="670"/>
      <point x="438" y="633"/>
    </contour>
  </outline>
</glyph>
<glyph name="Adieresis" format="1">
  <advance width="555"/>
  <unicode hex="00C4"/>
  <outline>
    <contour>
      <point x="350" y="-1" type="curve"/>
      <point x="356" y="25"/>
      <point x="348" y="120"/>
      <point x="338" y="217" type="curve"/>
      <point x="287" y="210"/>
      <point x="218" y="201"/>
      <point x="173" y="192" type="curve"/>
      <point x="157" y="164"/>
      <point x="142" y="136"/>
      <point x="127" y="104" type="curve" smooth="yes"/>
      <point x="112" y="74"/>
      <point x="95" y="39"/>
      <point x="86" y="9" type="curve"/>
      <point x="60" y="5"/>
      <point x="-7" y="-6"/>
      <point x="-45" y="-16" type="curve"/>
      <point x="0" y="25"/>
      <point x="68" y="118"/>
      <point x="117" y="194" type="curve" smooth="yes"/>
      <point x="188" y="305"/>
      <point x="248" y="408"/>
      <point x="290" y="491" type="curve" smooth="yes"/>
      <point x="311" y="532"/>
      <point x="323" y="563"/>
      <point x="324" y="576" type="curve"/>
      <point x="341" y="588"/>
      <point x="389" y="598"/>
      <point x="407" y="603" type="curve"/>
      <point x="415" y="460"/>
      <point x="464" y="103"/>
      <point x="512" y="-1" type="curve"/>
      <point x="453" y="5"/>
      <point x="380" y="1"/>
    </contour>
    <contour>
      <point x="314" y="440" type="curve"/>
      <point x="305" y="425"/>
      <point x="295" y="406"/>
      <point x="286" y="390" type="curve" smooth="yes"/>
      <point x="198" y="239" type="line"/>
      <point x="245" y="242"/>
      <point x="293" y="248"/>
      <point x="335" y="253" type="curve"/>
      <point x="320" y="389" type="line" smooth="yes"/>
      <point x="318" y="406"/>
      <point x="315" y="419"/>
    </contour>
    <contour>
      <point x="315" y="707" type="curve" smooth="yes"/>
      <point x="345" y="707"/>
      <point x="361" y="692"/>
      <point x="361" y="670" type="curve" smooth="yes"/>
      <point x="361" y="644"/>
      <point x="329" y="627"/>
      <point x="299" y="627" type="curve" smooth="yes"/>
      <point x="277" y="627"/>
      <point x="260" y="641"/>
      <point x="260" y="661" type="curve" smooth="yes"/>
      <point x="260" y="683"/>
      <point x="287" y="707"/>
    </contour>
    <contour>
      <point x="469" y="707" type="curve" smooth="yes"/>
      <point x="499" y="707"/>
      <point x="514" y="692"/>
      <point x="514" y="670" type="curve" smooth="yes"/>
      <point x="514" y="644"/>
      <point x="482" y="627"/>
      <point x="452" y="627" type="curve" smooth="yes"/>
      <point x="430" y="627"/>
      <point x="413" y="641"/>
      <point x="413" y="661" type="curve" smooth="yes"/>
      <point x="413" y="683"/>
      <point x="440" y="707"/>
    </contour>
  </outline>
</glyph>
<glyph name="Aring" format="1">
  <advance width="555"/>
  <unicode hex="00C5"/>
  <outline>
    <contour>
      <point x="350" y="-1" type="curve"/>
      <point x="356" y="25"/>
      <point x="348" y="120"/>
      <point x="338" y="217" type="curve"/>
      <point x="287" y="210"/>
      <point x="218" y="201"/>
      <point x="173" y="192" type="curve"/>
      <point x="157" y="164"/>
      <point x="142" y="136"/>
      <point x="127" y="104" type="curve" smooth="yes"/>
      <point x="112" y="74"/>
      <point x="95" y="39"/>
      <point x="86" y="9" type="curve"/>
      <point x="60" y="5"/>
      <point x="-7" y="-6"/>
      <point x="-45" y="-16" type="curve"/>
      <point x="0" y="25"/>
      <point x="68" y="118"/>
      <point x="117" y="194" type="curve" smooth="yes"/>
      <point x="188" y="305"/>
      <point x="248" y="408"/>
      <point x="290" y="491" type="curve" smooth="yes"/>
      <point x="311" y="532"/>
      <point x="323" y="563"/>
      <point x="324" y="576" type="curve"/>
      <point x="341" y="588"/>
      <point x="389" y="598"/>
      <point x="407" y="603" type="curve"/>
      <point x="415" y="460"/>
      <point x="464" y="103"/>
      <point x="512" y="-1" type="curve"/>
      <point x="453" y="5"/>
      <point x="380" y="1"/>
    </contour>
    <contour>
      <point x="405" y="764" type="curve" smooth="yes"/>
      <point x="465" y="764"/>
      <point x="494" y="735"/>
      <point x="494" y="712" type="curve" smooth="yes"/>
      <point x="494" y="657"/>
      <point x="426" y="627"/>
      <point x="370" y="627" type="curve" smooth="yes"/>
      <point x="316" y="627"/>
      <point x="286" y="656"/>
      <point x="286" y="686" type="curve" smooth="yes"/>
      <point x="286" y="730"/>
      <point x="349" y="764"/>
    </contour>
    <contour>
      <point x="314" y="440" type="curve"/>
      <point x="305" y="425"/>
      <point x="295" y="406"/>
      <point x="286" y="390" type="curve" smooth="yes"/>
      <point x="198" y="239" type="line"/>
      <point x="245" y="242"/>
      <point x="293" y="248"/>
      <point x="335" y="253" type="curve"/>
      <point x="320" y="389" type="line" smooth="yes"/>
      <point x="318" y="406"/>
      <point x="315" y="419"/>
    </contour>
    <contour>
      <point x="394" y="730" type="curve" smooth="yes"/>
      <point x="370" y="730"/>
      <point x="354" y="713"/>
      <point x="354" y="691" type="curve" smooth="yes"/>
      <point x="354" y="678"/>
      <point x="361" y="663"/>
      <point x="383" y="663" type="curve" smooth="yes"/>
      <point x="411" y="663"/>
      <point x="424" y="680"/>
      <point x="424" y="701" type="curve" smooth="yes"/>
      <point x="424" y="722"/>
      <point x="408" y="730"/>
    </contour>
  </outline>
</glyph>
<glyph name="AE" format="1">
  <advance width="778"/>
  <unicode hex="00C6"/>
  <outline>
    <contour>
      <point x="-55" y="-14" type="curve"/>
      <point x="-57" y="-10" type="line"/>
      <point x="-6" y="33"/>
      <point x="71" y="122"/>
      <point x="129" y="194" type="curve" smooth="yes"/>
      <point x="217" y="305"/>
      <point x="293" y="409"/>
      <point x="349" y="491" type="curve" smooth="yes"/>
      <point x="377" y="532"/>
      <point x="400" y="569"/>
      <point x="404" y="584" type="curve"/>
      <point x="498" y="578"/>
      <point x="654" y="581"/>
      <point x="779" y="583" type="curve"/>
      <point x="768" y="541" type="line"/>
      <point x="666" y="536"/>
      <point x="640" y="534"/>
      <point x="546" y="527" type="curve"/>
      <point x="537" y="488"/>
      <point x="519" y="385"/>
      <point x="516" y="355" type="curve"/>
      <point x="582" y="354"/>
      <point x="667" y="357"/>
      <point x="742" y="365" type="curve"/>
      <point x="732" y="321" type="line"/>
      <point x="671" y="319"/>
      <point x="576" y="311"/>
      <point x="508" y="304" type="curve"/>
      <point x="496" y="245"/>
      <point x="477" y="122"/>
      <point x="479" y="58" type="curve"/>
      <point x="551" y="48"/>
      <point x="643" y="45"/>
      <point x="758" y="42" type="curve"/>
      <point x="750" y="-2" type="line"/>
      <point x="516" y="2"/>
      <point x="432" y="1"/>
      <point x="318" y="-2" type="curve"/>
      <point x="336" y="31"/>
      <point x="358" y="117"/>
      <point x="377" y="214" type="curve"/>
      <point x="322" y="209"/>
      <point x="230" y="199"/>
      <point x="188" y="191" type="curve"/>
      <point x="167" y="163"/>
      <point x="149" y="136"/>
      <point x="130" y="104" type="curve"/>
      <point x="111" y="74"/>
      <point x="93" y="40"/>
      <point x="78" y="9" type="curve"/>
      <point x="53" y="5"/>
      <point x="-15" y="-4"/>
    </contour>
    <contour>
      <point x="225" y="243" type="curve"/>
      <point x="268" y="244"/>
      <point x="341" y="250"/>
      <point x="385" y="256" type="curve"/>
      <point x="403" y="353"/>
      <point x="419" y="455"/>
      <point x="424" y="521" type="curve"/>
      <point x="384" y="465" type="line" smooth="yes"/>
      <point x="330" y="391"/>
      <point x="260" y="292"/>
    </contour>
  </outline>
</glyph>
<glyph name="Ccedilla" format="1">
  <advance width="560"/>
  <unicode hex="00C7"/>
  <outline>
    <contour>
      <point x="191" y="-107" type="curve"/>
      <point x="211" y="-86"/>
      <point x="228" y="-55"/>
      <point x="240" y="-32" type="curve"/>
      <point x="277" y="-45"/>
      <point x="317" y="-89"/>
      <point x="314" y="-131" type="curve" smooth="yes"/>
      <point x="313" y="-159"/>
      <point x="253" y="-226"/>
      <point x="204" y="-263" type="curve"/>
      <point x="196" y="-259"/>
      <point x="186" y="-247"/>
      <point x="182" y="-241" type="curve"/>
      <point x="211" y="-215"/>
      <point x="236" y="-191"/>
      <point x="236" y="-166" type="curve" smooth="yes"/>
      <point x="236" y="-147"/>
      <point x="225" y="-127"/>
    </contour>
    <contour>
      <point x="535" y="569" type="curve"/>
      <point x="534" y="556"/>
      <point x="525" y="535"/>
      <point x="518" y="528" type="curve"/>
      <point x="483" y="538"/>
      <point x="438" y="546"/>
      <point x="404" y="546" type="curve" smooth="yes"/>
      <point x="234" y="546"/>
      <point x="173" y="356"/>
      <point x="173" y="246" type="curve" smooth="yes"/>
      <point x="173" y="130"/>
      <point x="215" y="60"/>
      <point x="318" y="60" type="curve" smooth="yes"/>
      <point x="360" y="60"/>
      <point x="445" y="81"/>
      <point x="509" y="106" type="curve"/>
      <point x="517" y="94"/>
      <point x="524" y="78"/>
      <point x="525" y="68" type="curve"/>
      <point x="432" y="27"/>
      <point x="330" y="-10"/>
      <point x="262" y="-10" type="curve" smooth="yes"/>
      <point x="99" y="-10"/>
      <point x="46" y="124"/>
      <point x="46" y="213" type="curve" smooth="yes"/>
      <point x="46" y="427"/>
      <point x="221" y="594"/>
      <point x="399" y="594" type="curve"/>
      <point x="414" y="595"/>
      <point x="479" y="586"/>
    </contour>
  </outline>
</glyph>
<glyph name="Eacute" format="1">
  <advance width="476"/>
  <unicode hex="00C9"/>
  <outline>
    <contour>
      <point x="121" y="583" type="curve"/>
      <point x="205" y="579"/>
      <point x="362" y="580"/>
      <point x="477" y="583" type="curve"/>
      <point x="466" y="541" type="line"/>
      <point x="364" y="536"/>
      <point x="337" y="534"/>
      <point x="244" y="527" type="curve"/>
      <point x="235" y="488"/>
      <point x="217" y="385"/>
      <point x="214" y="355" type="curve"/>
      <point x="280" y="354"/>
      <point x="365" y="357"/>
      <point x="440" y="365" type="curve"/>
      <point x="430" y="321" type="line"/>
      <point x="369" y="319"/>
      <point x="274" y="311"/>
      <point x="206" y="304" type="curve"/>
      <point x="194" y="245"/>
      <point x="175" y="122"/>
      <point x="176" y="58" type="curve"/>
      <point x="249" y="48"/>
      <point x="340" y="45"/>
      <point x="456" y="42" type="curve"/>
      <point x="448" y="-2" type="line"/>
      <point x="213" y="2"/>
      <point x="130" y="1"/>
      <point x="16" y="-2" type="curve"/>
      <point x="62" y="82"/>
      <point x="134" y="515"/>
    </contour>
    <contour>
      <point x="403" y="764" type="curve"/>
      <point x="403" y="745"/>
      <point x="420" y="688"/>
      <point x="430" y="666" type="curve"/>
      <point x="359" y="662"/>
      <point x="290" y="652"/>
      <point x="222" y="636" type="curve"/>
      <point x="214" y="665" type="line"/>
      <point x="277" y="692"/>
      <point x="362" y="736"/>
    </contour>
  </outline>
</glyph>
<glyph name="Ecircumflex" format="1">
  <advance width="476"/>
  <unicode hex="00CA"/>
  <outline>
    <contour>
      <point x="121" y="583" type="curve"/>
      <point x="205" y="579"/>
      <point x="362" y="580"/>
      <point x="477" y="583" type="curve"/>
      <point x="466" y="541" type="line"/>
      <point x="364" y="536"/>
      <point x="337" y="534"/>
      <point x="244" y="527" type="curve"/>
      <point x="235" y="488"/>
      <point x="217" y="385"/>
      <point x="214" y="355" type="curve"/>
      <point x="280" y="354"/>
      <point x="365" y="357"/>
      <point x="440" y="365" type="curve"/>
      <point x="430" y="321" type="line"/>
      <point x="369" y="319"/>
      <point x="274" y="311"/>
      <point x="206" y="304" type="curve"/>
      <point x="194" y="245"/>
      <point x="175" y="122"/>
      <point x="176" y="58" type="curve"/>
      <point x="249" y="48"/>
      <point x="340" y="45"/>
      <point x="456" y="42" type="curve"/>
      <point x="448" y="-2" type="line"/>
      <point x="213" y="2"/>
      <point x="130" y="1"/>
      <point x="16" y="-2" type="curve"/>
      <point x="62" y="82"/>
      <point x="134" y="515"/>
    </contour>
    <contour>
      <point x="210" y="632" type="curve"/>
      <point x="207" y="635"/>
      <point x="200" y="654"/>
      <point x="200" y="664" type="curve"/>
      <point x="237" y="682"/>
      <point x="286" y="714"/>
      <point x="337" y="750" type="curve"/>
      <point x="364" y="721"/>
      <point x="402" y="687"/>
      <point x="434" y="663" type="curve"/>
      <point x="431" y="656"/>
      <point x="424" y="638"/>
      <point x="418" y="633" type="curve"/>
      <point x="387" y="645"/>
      <point x="352" y="656"/>
      <point x="321" y="662" type="curve"/>
      <point x="286" y="656"/>
      <point x="254" y="646"/>
    </contour>
  </outline>
</glyph>
<glyph name="Igrave" format="1">
  <advance width="261"/>
  <unicode hex="00CC"/>
  <outline>
    <contour>
      <point x="258" y="583" type="curve"/>
      <point x="216" y="465"/>
      <point x="164" y="100"/>
      <point x="162" y="-2" type="curve"/>
      <point x="145" y="-1"/>
      <point x="51" y="1"/>
      <point x="29" y="-2" type="curve"/>
      <point x="60" y="138"/>
      <point x="115" y="414"/>
      <point x="120" y="583" type="curve"/>
      <point x="146" y="580"/>
      <point x="233" y="579"/>
    </contour>
    <contour>
      <point x="127" y="766" type="curve"/>
      <point x="159" y="737"/>
      <point x="221" y="692"/>
      <point x="282" y="659" type="curve"/>
      <point x="271" y="633" type="line"/>
      <point x="209" y="650"/>
      <point x="152" y="658"/>
      <point x="84" y="668" type="curve"/>
      <point x="96" y="686"/>
      <point x="122" y="746"/>
    </contour>
  </outline>
</glyph>
<glyph name="Iacute" format="1">
  <advance width="261"/>
  <unicode hex="00CD"/>
  <outline>
    <contour>
      <point x="258" y="583" type="curve"/>
      <point x="216" y="465"/>
      <point x="164" y="100"/>
      <point x="162" y="-2" type="curve"/>
      <point x="145" y="-1"/>
      <point x="51" y="1"/>
      <point x="29" y="-2" type="curve"/>
      <point x="60" y="138"/>
      <point x="115" y="414"/>
      <point x="120" y="583" type="curve"/>
      <point x="146" y="580"/>
      <point x="233" y="579"/>
    </contour>
    <contour>
      <point x="296" y="764" type="curve"/>
      <point x="296" y="745"/>
      <point x="313" y="688"/>
      <point x="323" y="666" type="curve"/>
      <point x="252" y="662"/>
      <point x="183" y="652"/>
      <point x="115" y="636" type="curve"/>
      <point x="107" y="665" type="line"/>
      <point x="170" y="692"/>
      <point x="255" y="736"/>
    </contour>
  </outline>
</glyph>
<glyph name="Icircumflex" format="1">
  <advance width="261"/>
  <unicode hex="00CE"/>
  <outline>
    <contour>
      <point x="258" y="583" type="curve"/>
      <point x="216" y="465"/>
      <point x="164" y="100"/>
      <point x="162" y="-2" type="curve"/>
      <point x="145" y="-1"/>
      <point x="51" y="1"/>
      <point x="29" y="-2" type="curve"/>
      <point x="60" y="138"/>
      <point x="115" y="414"/>
      <point x="120" y="583" type="curve"/>
      <point x="146" y="580"/>
      <point x="233" y="579"/>
    </contour>
    <contour>
      <point x="91" y="632" type="curve"/>
      <point x="88" y="635"/>
      <point x="81" y="654"/>
      <point x="81" y="664" type="curve"/>
      <point x="118" y="682"/>
      <point x="167" y="714"/>
      <point x="218" y="750" type="curve"/>
      <point x="245" y="721"/>
      <point x="283" y="687"/>
      <point x="315" y="663" type="curve"/>
      <point x="312" y="656"/>
      <point x="305" y="638"/>
      <point x="299" y="633" type="curve"/>
      <point x="268" y="645"/>
      <point x="233" y="656"/>
      <point x="202" y="662" type="curve"/>
      <point x="167" y="656"/>
      <point x="135" y="646"/>
    </contour>
  </outline>
</glyph>
<glyph name="Idieresis" format="1">
  <advance width="261"/>
  <unicode hex="00CF"/>
  <outline>
    <contour>
      <point x="258" y="583" type="curve"/>
      <point x="216" y="465"/>
      <point x="164" y="100"/>
      <point x="162" y="-2" type="curve"/>
      <point x="145" y="-1"/>
      <point x="51" y="1"/>
      <point x="29" y="-2" type="curve"/>
      <point x="60" y="138"/>
      <point x="115" y="414"/>
      <point x="120" y="583" type="curve"/>
      <point x="146" y="580"/>
      <point x="233" y="579"/>
    </contour>
    <contour>
      <point x="133" y="709" type="curve" smooth="yes"/>
      <point x="163" y="709"/>
      <point x="179" y="694"/>
      <point x="179" y="672" type="curve" smooth="yes"/>
      <point x="179" y="646"/>
      <point x="147" y="629"/>
      <point x="117" y="629" type="curve" smooth="yes"/>
      <point x="95" y="629"/>
      <point x="78" y="643"/>
      <point x="78" y="663" type="curve" smooth="yes"/>
      <point x="78" y="685"/>
      <point x="105" y="709"/>
    </contour>
    <contour>
      <point x="287" y="709" type="curve" smooth="yes"/>
      <point x="317" y="709"/>
      <point x="332" y="694"/>
      <point x="332" y="672" type="curve" smooth="yes"/>
      <point x="332" y="646"/>
      <point x="300" y="629"/>
      <point x="270" y="629" type="curve" smooth="yes"/>
      <point x="248" y="629"/>
      <point x="231" y="643"/>
      <point x="231" y="663" type="curve" smooth="yes"/>
      <point x="231" y="685"/>
      <point x="258" y="709"/>
    </contour>
  </outline>
</glyph>
<glyph name="Ntilde" format="1">
  <advance width="662"/>
  <unicode hex="00D1"/>
  <outline>
    <contour>
      <point x="511" y="-12" type="curve"/>
      <point x="432" y="117"/>
      <point x="294" y="265"/>
      <point x="219" y="342" type="curve" smooth="yes"/>
      <point x="196" y="365"/>
      <point x="179" y="384"/>
      <point x="167" y="400" type="curve"/>
      <point x="140" y="266"/>
      <point x="118" y="39"/>
      <point x="120" y="7" type="curve"/>
      <point x="88" y="4"/>
      <point x="48" y="-2"/>
      <point x="15" y="-17" type="curve"/>
      <point x="59" y="80"/>
      <point x="97" y="269"/>
      <point x="127" y="455" type="curve" smooth="yes"/>
      <point x="132" y="486"/>
      <point x="136" y="556"/>
      <point x="134" y="582" type="curve"/>
      <point x="143" y="586"/>
      <point x="160" y="592"/>
      <point x="171" y="593" type="curve"/>
      <point x="248" y="477"/>
      <point x="347" y="364"/>
      <point x="464" y="243" type="curve" smooth="yes"/>
      <point x="484" y="222"/>
      <point x="503" y="203"/>
      <point x="518" y="181" type="curve"/>
      <point x="550" y="354"/>
      <point x="562" y="482"/>
      <point x="565" y="582" type="curve"/>
      <point x="591" y="582"/>
      <point x="643" y="588"/>
      <point x="666" y="598" type="curve"/>
      <point x="632" y="542"/>
      <point x="588" y="326"/>
      <point x="557" y="117" type="curve" smooth="yes"/>
      <point x="553" y="89"/>
      <point x="550" y="27"/>
      <point x="550" y="-4" type="curve"/>
      <point x="543" y="-10"/>
      <point x="523" y="-12"/>
    </contour>
    <contour>
      <point x="429" y="629" type="curve" smooth="yes"/>
      <point x="412" y="629"/>
      <point x="372" y="645"/>
      <point x="353" y="646" type="curve"/>
      <point x="332" y="646"/>
      <point x="313" y="638"/>
      <point x="287" y="623" type="curve"/>
      <point x="279" y="632"/>
      <point x="274" y="644"/>
      <point x="273" y="652" type="curve"/>
      <point x="305" y="683"/>
      <point x="366" y="722"/>
      <point x="386" y="722" type="curve" smooth="yes"/>
      <point x="405" y="722"/>
      <point x="440" y="707"/>
      <point x="462" y="706" type="curve"/>
      <point x="487" y="706"/>
      <point x="506" y="716"/>
      <point x="530" y="730" type="curve"/>
      <point x="536" y="722"/>
      <point x="544" y="709"/>
      <point x="544" y="699" type="curve"/>
      <point x="506" y="665"/>
      <point x="450" y="628"/>
    </contour>
  </outline>
</glyph>
<glyph name="Ograve" format="1">
  <advance width="671"/>
  <unicode hex="00D2"/>
  <outline>
    <contour>
      <point x="420" y="596" type="curve" smooth="yes"/>
      <point x="532" y="596"/>
      <point x="645" y="508"/>
      <point x="645" y="361" type="curve" smooth="yes"/>
      <point x="645" y="253"/>
      <point x="614" y="161"/>
      <point x="544" y="84" type="curve" smooth="yes"/>
      <point x="500" y="36"/>
      <point x="381" y="-15"/>
      <point x="299" y="-15" type="curve" smooth="yes"/>
      <point x="67" y="-15"/>
      <point x="43" y="171"/>
      <point x="43" y="232" type="curve"/>
      <point x="45" y="353"/>
      <point x="102" y="467"/>
      <point x="187" y="527" type="curve" smooth="yes"/>
      <point x="228" y="557"/>
      <point x="330" y="596"/>
    </contour>
    <contour>
      <point x="347" y="43" type="curve" smooth="yes"/>
      <point x="444" y="46"/>
      <point x="526" y="153"/>
      <point x="526" y="345" type="curve" smooth="yes"/>
      <point x="526" y="503"/>
      <point x="407" y="541"/>
      <point x="340" y="534" type="curve"/>
      <point x="245" y="526"/>
      <point x="162" y="394"/>
      <point x="162" y="246" type="curve" smooth="yes"/>
      <point x="162" y="119"/>
      <point x="229" y="40"/>
    </contour>
    <contour>
      <point x="337" y="766" type="curve"/>
      <point x="369" y="737"/>
      <point x="431" y="692"/>
      <point x="492" y="659" type="curve"/>
      <point x="481" y="633" type="line"/>
      <point x="419" y="650"/>
      <point x="362" y="658"/>
      <point x="294" y="668" type="curve"/>
      <point x="306" y="686"/>
      <point x="332" y="746"/>
    </contour>
  </outline>
</glyph>
<glyph name="Otilde" format="1">
  <advance width="671"/>
  <unicode hex="00D5"/>
  <outline>
    <contour>
      <point x="420" y="596" type="curve" smooth="yes"/>
      <point x="532" y="596"/>
      <point x="645" y="508"/>
      <point x="645" y="361" type="curve" smooth="yes"/>
      <point x="645" y="253"/>
      <point x="614" y="161"/>
      <point x="544" y="84" type="curve" smooth="yes"/>
      <point x="500" y="36"/>
      <point x="381" y="-15"/>
      <point x="299" y="-15" type="curve" smooth="yes"/>
      <point x="67" y="-15"/>
      <point x="43" y="171"/>
      <point x="43" y="232" type="curve"/>
      <point x="45" y="353"/>
      <point x="102" y="467"/>
      <point x="187" y="527" type="curve" smooth="yes"/>
      <point x="228" y="557"/>
      <point x="330" y="596"/>
    </contour>
    <contour>
      <point x="347" y="43" type="curve" smooth="yes"/>
      <point x="444" y="46"/>
      <point x="526" y="153"/>
      <point x="526" y="345" type="curve" smooth="yes"/>
      <point x="526" y="503"/>
      <point x="407" y="541"/>
      <point x="340" y="534" type="curve"/>
      <point x="245" y="526"/>
      <point x="162" y="394"/>
      <point x="162" y="246" type="curve" smooth="yes"/>
      <point x="162" y="119"/>
      <point x="229" y="40"/>
    </contour>
    <contour>
      <point x="436" y="636" type="curve" smooth="yes"/>
      <point x="419" y="636"/>
      <point x="379" y="652"/>
      <point x="360" y="653" type="curve"/>
      <point x="339" y="653"/>
      <point x="320" y="645"/>
      <point x="294" y="630" type="curve"/>
      <point x="286" y="639"/>
      <point x="281" y="651"/>
      <point x="280" y="659" type="curve"/>
      <point x="312" y="690"/>
      <point x="373" y="729"/>
      <point x="393" y="729" type="curve" smooth="yes"/>
      <point x="412" y="729"/>
      <point x="447" y="714"/>
      <point x="469" y="713" type="curve"/>
      <point x="494" y="713"/>
      <point x="513" y="723"/>
      <point x="537" y="737" type="curve"/>
      <point x="543" y="729"/>
      <point x="551" y="716"/>
      <point x="551" y="706" type="curve"/>
      <point x="513" y="672"/>
      <point x="457" y="635"/>
    </contour>
  </outline>
</glyph>
<glyph name="Odieresis" format="1">
  <advance width="671"/>
  <unicode hex="00D6"/>
  <outline>
    <contour>
      <point x="420" y="596" type="curve" smooth="yes"/>
      <point x="532" y="596"/>
      <point x="645" y="508"/>
      <point x="645" y="361" type="curve" smooth="yes"/>
      <point x="645" y="253"/>
      <point x="614" y="161"/>
      <point x="544" y="84" type="curve" smooth="yes"/>
      <point x="500" y="36"/>
      <point x="381" y="-15"/>
      <point x="299" y="-15" type="curve" smooth="yes"/>
      <point x="67" y="-15"/>
      <point x="43" y="171"/>
      <point x="43" y="232" type="curve"/>
      <point x="45" y="353"/>
      <point x="102" y="467"/>
      <point x="187" y="527" type="curve" smooth="yes"/>
      <point x="228" y="557"/>
      <point x="330" y="596"/>
    </contour>
    <contour>
      <point x="347" y="43" type="curve" smooth="yes"/>
      <point x="444" y="46"/>
      <point x="526" y="153"/>
      <point x="526" y="345" type="curve" smooth="yes"/>
      <point x="526" y="503"/>
      <point x="407" y="541"/>
      <point x="340" y="534" type="curve"/>
      <point x="245" y="526"/>
      <point x="162" y="394"/>
      <point x="162" y="246" type="curve" smooth="yes"/>
      <point x="162" y="119"/>
      <point x="229" y="40"/>
    </contour>
    <contour>
      <point x="334" y="727" type="curve" smooth="yes"/>
      <point x="364" y="727"/>
      <point x="380" y="712"/>
      <point x="380" y="690" type="curve" smooth="yes"/>
      <point x="380" y="664"/>
      <point x="348" y="647"/>
      <point x="318" y="647" type="curve" smooth="yes"/>
      <point x="296" y="647"/>
      <point x="279" y="661"/>
      <point x="279" y="681" type="curve" smooth="yes"/>
      <point x="279" y="703"/>
      <point x="306" y="727"/>
    </contour>
    <contour>
      <point x="488" y="727" type="curve" smooth="yes"/>
      <point x="518" y="727"/>
      <point x="533" y="712"/>
      <point x="533" y="690" type="curve" smooth="yes"/>
      <point x="533" y="664"/>
      <point x="501" y="647"/>
      <point x="471" y="647" type="curve" smooth="yes"/>
      <point x="449" y="647"/>
      <point x="432" y="661"/>
      <point x="432" y="681" type="curve" smooth="yes"/>
      <point x="432" y="703"/>
      <point x="459" y="727"/>
    </contour>
  </outline>
</glyph>
<glyph name="Oslash" format="1">
  <advance width="671"/>
  <unicode hex="00D8"/>
  <outline>
    <contour>
      <point x="420" y="596" type="curve" smooth="yes"/>
      <point x="439" y="596"/>
      <point x="459" y="593"/>
      <point x="478" y="588" type="curve"/>
      <point x="498" y="626" type="line"/>
      <point x="511" y="625"/>
      <point x="536" y="616"/>
      <point x="542" y="610" type="curve"/>
      <point x="521" y="571" type="line"/>
      <point x="591" y="536"/>
      <point x="645" y="462"/>
      <point x="645" y="361" type="curve" smooth="yes"/>
      <point x="645" y="253"/>
      <point x="614" y="161"/>
      <point x="544" y="84" type="curve" smooth="yes"/>
      <point x="500" y="36"/>
      <point x="381" y="-15"/>
      <point x="299" y="-15" type="curve" smooth="yes"/>
      <point x="264" y="-15"/>
      <point x="233" y="-11"/>
      <point x="207" y="-3" type="curve"/>
      <point x="197" y="-21"/>
      <point x="188" y="-40"/>
      <point x="179" y="-57" type="curve"/>
      <point x="165" y="-55"/>
      <point x="144" y="-49"/>
      <point x="134" y="-40" type="curve"/>
      <point x="143" y="-22"/>
      <point x="154" y="-5"/>
      <point x="164" y="13" type="curve"/>
      <point x="56" y="68"/>
      <point x="43" y="186"/>
      <point x="43" y="232" type="curve" smooth="yes"/>
      <point x="45" y="353"/>
      <point x="102" y="467"/>
      <point x="187" y="527" type="curve" smooth="yes"/>
      <point x="228" y="557"/>
      <point x="330" y="596"/>
    </contour>
    <contour>
      <point x="347" y="43" type="curve" smooth="yes"/>
      <point x="444" y="46"/>
      <point x="526" y="153"/>
      <point x="526" y="345" type="curve" smooth="yes"/>
      <point x="526" y="412"/>
      <point x="504" y="458"/>
      <point x="474" y="487" type="curve"/>
      <point x="400" y="352"/>
      <point x="318" y="202"/>
      <point x="245" y="67" type="curve"/>
      <point x="273" y="50"/>
      <point x="307" y="42"/>
    </contour>
    <contour>
      <point x="209" y="96" type="curve"/>
      <point x="284" y="231"/>
      <point x="366" y="381"/>
      <point x="438" y="514" type="curve"/>
      <point x="404" y="532"/>
      <point x="367" y="537"/>
      <point x="340" y="534" type="curve" smooth="yes"/>
      <point x="245" y="526"/>
      <point x="162" y="394"/>
      <point x="162" y="246" type="curve" smooth="yes"/>
      <point x="162" y="183"/>
      <point x="178" y="131"/>
    </contour>
  </outline>
</glyph>
<glyph name="Ucircumflex" format="1">
  <advance width="605"/>
  <unicode hex="00DB"/>
  <outline>
    <contour>
      <point x="91" y="582" type="curve"/>
      <point x="127" y="580"/>
      <point x="199" y="580"/>
      <point x="228" y="584" type="curve"/>
      <point x="211" y="490"/>
      <point x="191" y="310"/>
      <point x="191" y="188" type="curve" smooth="yes"/>
      <point x="192" y="55"/>
      <point x="267" y="43"/>
      <point x="293" y="43" type="curve" smooth="yes"/>
      <point x="375" y="43"/>
      <point x="427" y="76"/>
      <point x="465" y="197" type="curve" smooth="yes"/>
      <point x="499" y="307"/>
      <point x="527" y="499"/>
      <point x="526" y="578" type="curve"/>
      <point x="549" y="578"/>
      <point x="610" y="582"/>
      <point x="638" y="589" type="curve"/>
      <point x="587" y="480"/>
      <point x="552" y="328"/>
      <point x="523" y="215" type="curve" smooth="yes"/>
      <point x="489" y="82"/>
      <point x="422" y="-12"/>
      <point x="282" y="-12" type="curve"/>
      <point x="145" y="-13"/>
      <point x="61" y="59"/>
      <point x="74" y="216" type="curve" smooth="yes"/>
      <point x="87" y="363"/>
      <point x="97" y="494"/>
    </contour>
    <contour>
      <point x="279" y="632" type="curve"/>
      <point x="276" y="635"/>
      <point x="269" y="654"/>
      <point x="269" y="664" type="curve"/>
      <point x="306" y="682"/>
      <point x="355" y="714"/>
      <point x="406" y="750" type="curve"/>
      <point x="433" y="721"/>
      <point x="471" y="687"/>
      <point x="503" y="663" type="curve"/>
      <point x="500" y="656"/>
      <point x="493" y="638"/>
      <point x="487" y="633" type="curve"/>
      <point x="456" y="645"/>
      <point x="421" y="656"/>
      <point x="390" y="662" type="curve"/>
      <point x="355" y="656"/>
      <point x="323" y="646"/>
    </contour>
  </outline>
</glyph>
<glyph name="Udieresis" format="1">
  <advance width="605"/>
  <unicode hex="00DC"/>
  <outline>
    <contour>
      <point x="91" y="582" type="curve"/>
      <point x="127" y="580"/>
      <point x="199" y="580"/>
      <point x="228" y="584" type="curve"/>
      <point x="211" y="490"/>
      <point x="191" y="310"/>
      <point x="191" y="188" type="curve" smooth="yes"/>
      <point x="192" y="55"/>
      <point x="267" y="43"/>
      <point x="293" y="43" type="curve" smooth="yes"/>
      <point x="375" y="43"/>
      <point x="427" y="76"/>
      <point x="465" y="197" type="curve" smooth="yes"/>
      <point x="499" y="307"/>
      <point x="527" y="499"/>
      <point x="526" y="578" type="curve"/>
      <point x="549" y="578"/>
      <point x="610" y="582"/>
      <point x="638" y="589" type="curve"/>
      <point x="587" y="480"/>
      <point x="552" y="328"/>
      <point x="523" y="215" type="curve" smooth="yes"/>
      <point x="489" y="82"/>
      <point x="422" y="-12"/>
      <point x="282" y="-12" type="curve"/>
      <point x="145" y="-13"/>
      <point x="61" y="59"/>
      <point x="74" y="216" type="curve" smooth="yes"/>
      <point x="87" y="363"/>
      <point x="97" y="494"/>
    </contour>
    <contour>
      <point x="322" y="727" type="curve" smooth="yes"/>
      <point x="352" y="727"/>
      <point x="368" y="712"/>
      <point x="368" y="690" type="curve" smooth="yes"/>
      <point x="368" y="664"/>
      <point x="336" y="647"/>
      <point x="306" y="647" type="curve" smooth="yes"/>
      <point x="284" y="647"/>
      <point x="267" y="661"/>
      <point x="267" y="681" type="curve" smooth="yes"/>
      <point x="267" y="703"/>
      <point x="294" y="727"/>
    </contour>
    <contour>
      <point x="476" y="727" type="curve" smooth="yes"/>
      <point x="506" y="727"/>
      <point x="521" y="712"/>
      <point x="521" y="690" type="curve" smooth="yes"/>
      <point x="521" y="664"/>
      <point x="489" y="647"/>
      <point x="459" y="647" type="curve" smooth="yes"/>
      <point x="437" y="647"/>
      <point x="420" y="661"/>
      <point x="420" y="681" type="curve" smooth="yes"/>
      <point x="420" y="703"/>
      <point x="447" y="727"/>
    </contour>
  </outline>
</glyph>
<glyph name="Thorn" format="1">
  <advance width="525"/>
  <unicode hex="00DE"/>
  <outline>
    <contour>
      <point x="258" y="583" type="curve"/>
      <point x="248" y="556"/>
      <point x="238" y="515"/>
      <point x="228" y="468" type="curve"/>
      <point x="253" y="468"/>
      <point x="278" y="469"/>
      <point x="303" y="469" type="curve" smooth="yes"/>
      <point x="407" y="469"/>
      <point x="529" y="472"/>
      <point x="527" y="367" type="curve" smooth="yes"/>
      <point x="526" y="266"/>
      <point x="422" y="176"/>
      <point x="248" y="135" type="curve"/>
      <point x="243" y="143"/>
      <point x="240" y="169"/>
      <point x="241" y="173" type="curve"/>
      <point x="364" y="208"/>
      <point x="396" y="275"/>
      <point x="399" y="347" type="curve" smooth="yes"/>
      <point x="401" y="395"/>
      <point x="364" y="421"/>
      <point x="300" y="421" type="curve" smooth="yes"/>
      <point x="261" y="421"/>
      <point x="236" y="418"/>
      <point x="217" y="415" type="curve"/>
      <point x="188" y="262"/>
      <point x="163" y="68"/>
      <point x="162" y="-2" type="curve"/>
      <point x="145" y="-1"/>
      <point x="51" y="1"/>
      <point x="29" y="-2" type="curve"/>
      <point x="60" y="138"/>
      <point x="115" y="414"/>
      <point x="120" y="583" type="curve"/>
      <point x="146" y="580"/>
      <point x="233" y="579"/>
    </contour>
  </outline>
</glyph>
<glyph name="germandbls" format="1">
  <advance width="503"/>
  <unicode hex="00DF"/>
  <outline>
    <contour>
      <point x="116" y="453" type="line"/>
      <point x="152" y="573"/>
      <point x="267" y="668"/>
      <point x="377" y="698" type="curve"/>
      <point x="444" y="655"/>
      <point x="468" y="593"/>
      <point x="467" y="544" type="curve" smooth="yes"/>
      <point x="466" y="478"/>
      <point x="422" y="425"/>
      <point x="370" y="378" type="curve"/>
      <point x="427" y="332"/>
      <point x="445" y="285"/>
      <point x="445" y="227" type="curve" smooth="yes"/>
      <point x="445" y="91"/>
      <point x="332" y="-5"/>
      <point x="234" y="-5" type="curve" smooth="yes"/>
      <point x="226" y="-5"/>
      <point x="202" y="-2"/>
      <point x="194" y="-1" type="curve"/>
      <point x="191" y="9"/>
      <point x="198" y="37"/>
      <point x="201" y="43" type="curve"/>
      <point x="210" y="42"/>
      <point x="223" y="39"/>
      <point x="236" y="40" type="curve" smooth="yes"/>
      <point x="275" y="42"/>
      <point x="329" y="97"/>
      <point x="331" y="186" type="curve" smooth="yes"/>
      <point x="332" y="248"/>
      <point x="303" y="304"/>
      <point x="266" y="331" type="curve"/>
      <point x="339" y="392"/>
      <point x="356" y="449"/>
      <point x="357" y="509" type="curve"/>
      <point x="359" y="552"/>
      <point x="344" y="589"/>
      <point x="314" y="615" type="curve"/>
      <point x="248" y="571"/>
      <point x="229" y="474"/>
      <point x="215" y="389" type="curve" smooth="yes"/>
      <point x="194" y="263"/>
      <point x="174" y="140"/>
      <point x="149" y="58" type="curve" smooth="yes"/>
      <point x="89" y="-142"/>
      <point x="-55" y="-279"/>
      <point x="-172" y="-279" type="curve" smooth="yes"/>
      <point x="-187" y="-279"/>
      <point x="-206" y="-267"/>
      <point x="-218" y="-257" type="curve"/>
      <point x="-215" y="-244"/>
      <point x="-209" y="-230"/>
      <point x="-202" y="-220" type="curve"/>
      <point x="-141" y="-243"/>
      <point x="-66" y="-206"/>
      <point x="-32" y="-157" type="curve" smooth="yes"/>
      <point x="7" y="-102"/>
      <point x="32" y="-42"/>
      <point x="52" y="57" type="curve" smooth="yes"/>
      <point x="69" y="141"/>
      <point x="87" y="305"/>
      <point x="93" y="343" type="curve"/>
      <point x="82" y="344"/>
      <point x="55" y="344"/>
      <point x="49" y="344" type="curve"/>
      <point x="53" y="356"/>
      <point x="57" y="380"/>
      <point x="59" y="391" type="curve"/>
      <point x="68" y="391"/>
      <point x="86" y="390"/>
      <point x="100" y="390" type="curve"/>
    </contour>
  </outline>
</glyph>
<glyph name="agrave" format="1">
  <advance width="449"/>
  <unicode hex="00E0"/>
  <outline>
    <contour>
      <point x="432" y="388" type="curve"/>
      <point x="420" y="375"/>
      <point x="411" y="353"/>
      <point x="402" y="324" type="curve" smooth="yes"/>
      <point x="370" y="224"/>
      <point x="344" y="53"/>
      <point x="350" y="0" type="curve"/>
      <point x="329" y="2"/>
      <point x="252" y="3"/>
      <point x="221" y="-4" type="curve"/>
      <point x="221" y="16"/>
      <point x="243" y="112"/>
      <point x="251" y="150" type="curve"/>
      <point x="189" y="96"/>
      <point x="153" y="56"/>
      <point x="71" y="-13" type="curve"/>
      <point x="37" y="11"/>
      <point x="18" y="72"/>
      <point x="18" y="119" type="curve" smooth="yes"/>
      <point x="18" y="216"/>
      <point x="86" y="386"/>
      <point x="270" y="391" type="curve" smooth="yes"/>
      <point x="313" y="392"/>
      <point x="397" y="391"/>
    </contour>
    <contour>
      <point x="293" y="348" type="curve"/>
      <point x="285" y="349"/>
      <point x="278" y="349"/>
      <point x="271" y="349" type="curve" smooth="yes"/>
      <point x="166" y="348"/>
      <point x="128" y="251"/>
      <point x="128" y="172" type="curve" smooth="yes"/>
      <point x="128" y="146"/>
      <point x="132" y="121"/>
      <point x="142" y="107" type="curve"/>
      <point x="180" y="135"/>
      <point x="235" y="183"/>
      <point x="262" y="211" type="curve"/>
      <point x="270" y="237"/>
      <point x="291" y="316"/>
    </contour>
    <contour>
      <point x="207" y="587" type="curve"/>
      <point x="239" y="558"/>
      <point x="301" y="513"/>
      <point x="362" y="480" type="curve"/>
      <point x="351" y="454" type="line"/>
      <point x="289" y="471"/>
      <point x="232" y="479"/>
      <point x="164" y="489" type="curve"/>
      <point x="176" y="507"/>
      <point x="202" y="567"/>
    </contour>
  </outline>
</glyph>
<glyph name="acircumflex" format="1">
  <advance width="449"/>
  <unicode hex="00E2"/>
  <outline>
    <contour>
      <point x="432" y="388" type="curve"/>
      <point x="420" y="375"/>
      <point x="411" y="353"/>
      <point x="402" y="324" type="curve" smooth="yes"/>
      <point x="370" y="224"/>
      <point x="344" y="53"/>
      <point x="350" y="0" type="curve"/>
      <point x="329" y="2"/>
      <point x="252" y="3"/>
      <point x="221" y="-4" type="curve"/>
      <point x="221" y="16"/>
      <point x="243" y="112"/>
      <point x="251" y="150" type="curve"/>
      <point x="189" y="96"/>
      <point x="153" y="56"/>
      <point x="71" y="-13" type="curve"/>
      <point x="37" y="11"/>
      <point x="18" y="72"/>
      <point x="18" y="119" type="curve" smooth="yes"/>
      <point x="18" y="216"/>
      <point x="86" y="386"/>
      <point x="270" y="391" type="curve" smooth="yes"/>
      <point x="313" y="392"/>
      <point x="397" y="391"/>
    </contour>
    <contour>
      <point x="293" y="348" type="curve"/>
      <point x="285" y="349"/>
      <point x="278" y="349"/>
      <point x="271" y="349" type="curve" smooth="yes"/>
      <point x="166" y="348"/>
      <point x="128" y="251"/>
      <point x="128" y="172" type="curve" smooth="yes"/>
      <point x="128" y="146"/>
      <point x="132" y="121"/>
      <point x="142" y="107" type="curve"/>
      <point x="180" y="135"/>
      <point x="235" y="183"/>
      <point x="262" y="211" type="curve"/>
      <point x="270" y="237"/>
      <point x="291" y="316"/>
    </contour>
    <contour>
      <point x="175" y="452" type="curve"/>
      <point x="172" y="455"/>
      <point x="165" y="474"/>
      <point x="165" y="484" type="curve"/>
      <point x="202" y="502"/>
      <point x="251" y="534"/>
      <point x="302" y="570" type="curve"/>
      <point x="329" y="541"/>
      <point x="367" y="507"/>
      <point x="399" y="483" type="curve"/>
      <point x="396" y="476"/>
      <point x="389" y="458"/>
      <point x="383" y="453" type="curve"/>
      <point x="352" y="465"/>
      <point x="317" y="476"/>
      <point x="286" y="482" type="curve"/>
      <point x="251" y="476"/>
      <point x="219" y="466"/>
    </contour>
  </outline>
</glyph>
<glyph name="atilde" format="1">
  <advance width="449"/>
  <unicode hex="00E3"/>
  <outline>
    <contour>
      <point x="432" y="388" type="curve"/>
      <point x="420" y="375"/>
      <point x="411" y="353"/>
      <point x="402" y="324" type="curve" smooth="yes"/>
      <point x="370" y="224"/>
      <point x="344" y="53"/>
      <point x="350" y="0" type="curve"/>
      <point x="329" y="2"/>
      <point x="252" y="3"/>
      <point x="221" y="-4" type="curve"/>
      <point x="221" y="16"/>
      <point x="243" y="112"/>
      <point x="251" y="150" type="curve"/>
      <point x="189" y="96"/>
      <point x="153" y="56"/>
      <point x="71" y="-13" type="curve"/>
      <point x="37" y="11"/>
      <point x="18" y="72"/>
      <point x="18" y="119" type="curve" smooth="yes"/>
      <point x="18" y="216"/>
      <point x="86" y="386"/>
      <point x="270" y="391" type="curve" smooth="yes"/>
      <point x="313" y="392"/>
      <point x="397" y="391"/>
    </contour>
    <contour>
      <point x="293" y="348" type="curve"/>
      <point x="285" y="349"/>
      <point x="278" y="349"/>
      <point x="271" y="349" type="curve" smooth="yes"/>
      <point x="166" y="348"/>
      <point x="128" y="251"/>
      <point x="128" y="172" type="curve" smooth="yes"/>
      <point x="128" y="146"/>
      <point x="132" y="121"/>
      <point x="142" y="107" type="curve"/>
      <point x="180" y="135"/>
      <point x="235" y="183"/>
      <point x="262" y="211" type="curve"/>
      <point x="270" y="237"/>
      <point x="291" y="316"/>
    </contour>
    <contour>
      <point x="317" y="463" type="curve" smooth="yes"/>
      <point x="300" y="463"/>
      <point x="260" y="479"/>
      <point x="241" y="480" type="curve"/>
      <point x="220" y="480"/>
      <point x="201" y="472"/>
      <point x="175" y="457" type="curve"/>
      <point x="167" y="466"/>
      <point x="162" y="478"/>
      <point x="161" y="486" type="curve"/>
      <point x="193" y="517"/>
      <point x="254" y="556"/>
      <point x="274" y="556" type="curve" smooth="yes"/>
      <point x="293" y="556"/>
      <point x="328" y="541"/>
      <point x="350" y="540" type="curve"/>
      <point x="375" y="540"/>
      <point x="394" y="550"/>
      <point x="418" y="564" type="curve"/>
      <point x="424" y="556"/>
      <point x="432" y="543"/>
      <point x="432" y="533" type="curve"/>
      <point x="394" y="499"/>
      <point x="338" y="462"/>
    </contour>
  </outline>
</glyph>
<glyph name="adieresis" format="1">
  <advance width="449"/>
  <unicode hex="00E4"/>
  <outline>
    <contour>
      <point x="432" y="388" type="curve"/>
      <point x="420" y="375"/>
      <point x="411" y="353"/>
      <point x="402" y="324" type="curve" smooth="yes"/>
      <point x="370" y="224"/>
      <point x="344" y="53"/>
      <point x="350" y="0" type="curve"/>
      <point x="329" y="2"/>
      <point x="252" y="3"/>
      <point x="221" y="-4" type="curve"/>
      <point x="221" y="16"/>
      <point x="243" y="112"/>
      <point x="251" y="150" type="curve"/>
      <point x="189" y="96"/>
      <point x="153" y="56"/>
      <point x="71" y="-13" type="curve"/>
      <point x="37" y="11"/>
      <point x="18" y="72"/>
      <point x="18" y="119" type="curve" smooth="yes"/>
      <point x="18" y="216"/>
      <point x="86" y="386"/>
      <point x="270" y="391" type="curve" smooth="yes"/>
      <point x="313" y="392"/>
      <point x="397" y="391"/>
    </contour>
    <contour>
      <point x="293" y="348" type="curve"/>
      <point x="285" y="349"/>
      <point x="278" y="349"/>
      <point x="271" y="349" type="curve" smooth="yes"/>
      <point x="166" y="348"/>
      <point x="128" y="251"/>
      <point x="128" y="172" type="curve" smooth="yes"/>
      <point x="128" y="146"/>
      <point x="132" y="121"/>
      <point x="142" y="107" type="curve"/>
      <point x="180" y="135"/>
      <point x="235" y="183"/>
      <point x="262" y="211" type="curve"/>
      <point x="270" y="237"/>
      <point x="291" y="316"/>
    </contour>
    <contour>
      <point x="208" y="535" type="curve" smooth="yes"/>
      <point x="238" y="535"/>
      <point x="254" y="520"/>
      <point x="254" y="498" type="curve" smooth="yes"/>
      <point x="254" y="472"/>
      <point x="222" y="455"/>
      <point x="192" y="455" type="curve" smooth="yes"/>
      <point x="170" y="455"/>
      <point x="153" y="469"/>
      <point x="153" y="489" type="curve" smooth="yes"/>
      <point x="153" y="511"/>
      <point x="180" y="535"/>
    </contour>
    <contour>
      <point x="362" y="535" type="curve" smooth="yes"/>
      <point x="392" y="535"/>
      <point x="407" y="520"/>
      <point x="407" y="498" type="curve" smooth="yes"/>
      <point x="407" y="472"/>
      <point x="375" y="455"/>
      <point x="345" y="455" type="curve" smooth="yes"/>
      <point x="323" y="455"/>
      <point x="306" y="469"/>
      <point x="306" y="489" type="curve" smooth="yes"/>
      <point x="306" y="511"/>
      <point x="333" y="535"/>
    </contour>
  </outline>
</glyph>
<glyph name="aring" format="1">
  <advance width="449"/>
  <unicode hex="00E5"/>
  <outline>
    <contour>
      <point x="432" y="388" type="curve"/>
      <point x="420" y="375"/>
      <point x="411" y="353"/>
      <point x="402" y="324" type="curve" smooth="yes"/>
      <point x="370" y="224"/>
      <point x="344" y="53"/>
      <point x="350" y="0" type="curve"/>
      <point x="329" y="2"/>
      <point x="252" y="3"/>
      <point x="221" y="-4" type="curve"/>
      <point x="221" y="16"/>
      <point x="243" y="112"/>
      <point x="251" y="150" type="curve"/>
      <point x="189" y="96"/>
      <point x="153" y="56"/>
      <point x="71" y="-13" type="curve"/>
      <point x="37" y="11"/>
      <point x="18" y="72"/>
      <point x="18" y="119" type="curve" smooth="yes"/>
      <point x="18" y="216"/>
      <point x="86" y="386"/>
      <point x="270" y="391" type="curve" smooth="yes"/>
      <point x="313" y="392"/>
      <point x="397" y="391"/>
    </contour>
    <contour>
      <point x="293" y="348" type="curve"/>
      <point x="285" y="349"/>
      <point x="278" y="349"/>
      <point x="271" y="349" type="curve" smooth="yes"/>
      <point x="166" y="348"/>
      <point x="128" y="251"/>
      <point x="128" y="172" type="curve" smooth="yes"/>
      <point x="128" y="146"/>
      <point x="132" y="121"/>
      <point x="142" y="107" type="curve"/>
      <point x="180" y="135"/>
      <point x="235" y="183"/>
      <point x="262" y="211" type="curve"/>
      <point x="270" y="237"/>
      <point x="291" y="316"/>
    </contour>
    <contour>
      <point x="301" y="572" type="curve" smooth="yes"/>
      <point x="361" y="572"/>
      <point x="390" y="543"/>
      <point x="390" y="520" type="curve" smooth="yes"/>
      <point x="390" y="465"/>
      <point x="322" y="435"/>
      <point x="266" y="435" type="curve" smooth="yes"/>
      <point x="212" y="435"/>
      <point x="182" y="464"/>
      <point x="182" y="494" type="curve" smooth="yes"/>
      <point x="182" y="538"/>
      <point x="245" y="572"/>
    </contour>
    <contour>
      <point x="290" y="538" type="curve" smooth="yes"/>
      <point x="266" y="538"/>
      <point x="250" y="521"/>
      <point x="250" y="499" type="curve" smooth="yes"/>
      <point x="250" y="486"/>
      <point x="257" y="471"/>
      <point x="279" y="471" type="curve" smooth="yes"/>
      <point x="307" y="471"/>
      <point x="320" y="488"/>
      <point x="320" y="509" type="curve" smooth="yes"/>
      <point x="320" y="530"/>
      <point x="304" y="538"/>
    </contour>
  </outline>
</glyph>
<glyph name="ae" format="1">
  <advance width="585"/>
  <unicode hex="00E6"/>
  <outline>
    <contour>
      <point x="411" y="390" type="curve"/>
      <point x="405" y="375" type="line"/>
      <point x="429" y="387"/>
      <point x="455" y="395"/>
      <point x="479" y="395" type="curve" smooth="yes"/>
      <point x="549" y="395"/>
      <point x="566" y="373"/>
      <point x="566" y="334" type="curve" smooth="yes"/>
      <point x="566" y="237"/>
      <point x="427" y="201"/>
      <point x="366" y="212" type="curve"/>
      <point x="364" y="198"/>
      <point x="362" y="183"/>
      <point x="362" y="166" type="curve" smooth="yes"/>
      <point x="363" y="135"/>
      <point x="374" y="99"/>
      <point x="392" y="78" type="curve"/>
      <point x="422" y="94"/>
      <point x="461" y="114"/>
      <point x="501" y="144" type="curve"/>
      <point x="508" y="136"/>
      <point x="516" y="122"/>
      <point x="521" y="112" type="curve"/>
      <point x="470" y="79"/>
      <point x="392" y="29"/>
      <point x="333" y="-16" type="curve"/>
      <point x="278" y="16"/>
      <point x="248" y="85"/>
      <point x="253" y="148" type="curve"/>
      <point x="192" y="95"/>
      <point x="158" y="55"/>
      <point x="77" y="-13" type="curve"/>
      <point x="42" y="11"/>
      <point x="18" y="72"/>
      <point x="18" y="119" type="curve" smooth="yes"/>
      <point x="18" y="269"/>
      <point x="122" y="387"/>
      <point x="268" y="391" type="curve" smooth="yes"/>
      <point x="311" y="392"/>
      <point x="376" y="391"/>
    </contour>
    <contour>
      <point x="287" y="348" type="curve"/>
      <point x="189" y="360"/>
      <point x="130" y="273"/>
      <point x="130" y="172" type="curve" smooth="yes"/>
      <point x="130" y="146"/>
      <point x="137" y="121"/>
      <point x="148" y="107" type="curve"/>
      <point x="186" y="135"/>
      <point x="230" y="173"/>
      <point x="257" y="201" type="curve"/>
      <point x="264" y="227"/>
      <point x="285" y="316"/>
    </contour>
    <contour>
      <point x="444" y="346" type="curve" smooth="yes"/>
      <point x="419" y="346"/>
      <point x="387" y="305"/>
      <point x="375" y="250" type="curve"/>
      <point x="449" y="237"/>
      <point x="467" y="289"/>
      <point x="467" y="319" type="curve" smooth="yes"/>
      <point x="467" y="342"/>
      <point x="456" y="346"/>
    </contour>
  </outline>
</glyph>
<glyph name="ccedilla" format="1">
  <advance width="340"/>
  <unicode hex="00E7"/>
  <outline>
    <contour>
      <point x="323" y="387" type="curve"/>
      <point x="321" y="375"/>
      <point x="318" y="358"/>
      <point x="313" y="346" type="curve"/>
      <point x="298" y="349"/>
      <point x="272" y="350"/>
      <point x="260" y="350" type="curve" smooth="yes"/>
      <point x="206" y="350"/>
      <point x="130" y="308"/>
      <point x="130" y="166" type="curve" smooth="yes"/>
      <point x="130" y="135"/>
      <point x="141" y="100"/>
      <point x="159" y="79" type="curve"/>
      <point x="189" y="94"/>
      <point x="223" y="115"/>
      <point x="262" y="144" type="curve"/>
      <point x="269" y="139"/>
      <point x="280" y="123"/>
      <point x="284" y="113" type="curve"/>
      <point x="233" y="79"/>
      <point x="160" y="29"/>
      <point x="100" y="-16" type="curve"/>
      <point x="49" y="13"/>
      <point x="25" y="82"/>
      <point x="25" y="131" type="curve" smooth="yes"/>
      <point x="25" y="272"/>
      <point x="108" y="393"/>
      <point x="270" y="393" type="curve" smooth="yes"/>
      <point x="285" y="393"/>
      <point x="312" y="390"/>
    </contour>
    <contour>
      <point x="17" y="-107" type="curve"/>
      <point x="37" y="-86"/>
      <point x="54" y="-55"/>
      <point x="66" y="-32" type="curve"/>
      <point x="103" y="-45"/>
      <point x="143" y="-89"/>
      <point x="140" y="-131" type="curve" smooth="yes"/>
      <point x="139" y="-159"/>
      <point x="79" y="-226"/>
      <point x="30" y="-263" type="curve"/>
      <point x="22" y="-259"/>
      <point x="12" y="-247"/>
      <point x="8" y="-241" type="curve"/>
      <point x="37" y="-215"/>
      <point x="62" y="-191"/>
      <point x="62" y="-166" type="curve" smooth="yes"/>
      <point x="62" y="-147"/>
      <point x="51" y="-127"/>
    </contour>
  </outline>
</glyph>
<glyph name="egrave" format="1">
  <advance width="352"/>
  <unicode hex="00E8"/>
  <outline>
    <contour>
      <point x="91" y="312" type="curve" smooth="yes"/>
      <point x="126" y="353"/>
      <point x="186" y="395"/>
      <point x="243" y="395" type="curve" smooth="yes"/>
      <point x="312" y="395"/>
      <point x="334" y="373"/>
      <point x="334" y="334" type="curve" smooth="yes"/>
      <point x="334" y="237"/>
      <point x="195" y="201"/>
      <point x="134" y="212" type="curve"/>
      <point x="131" y="198"/>
      <point x="129" y="183"/>
      <point x="130" y="166" type="curve" smooth="yes"/>
      <point x="131" y="135"/>
      <point x="141" y="99"/>
      <point x="159" y="78" type="curve"/>
      <point x="189" y="94"/>
      <point x="228" y="114"/>
      <point x="268" y="144" type="curve"/>
      <point x="275" y="136"/>
      <point x="284" y="122"/>
      <point x="288" y="112" type="curve"/>
      <point x="238" y="79"/>
      <point x="160" y="29"/>
      <point x="100" y="-16" type="curve"/>
      <point x="49" y="13"/>
      <point x="25" y="82"/>
      <point x="25" y="131" type="curve" smooth="yes"/>
      <point x="25" y="205"/>
      <point x="49" y="262"/>
    </contour>
    <contour>
      <point x="211" y="346" type="curve" smooth="yes"/>
      <point x="186" y="346"/>
      <point x="155" y="305"/>
      <point x="143" y="250" type="curve"/>
      <point x="216" y="237"/>
      <point x="235" y="289"/>
      <point x="235" y="319" type="curve" smooth="yes"/>
      <point x="235" y="342"/>
      <point x="223" y="346"/>
    </contour>
    <contour>
      <point x="174" y="587" type="curve"/>
      <point x="206" y="558"/>
      <point x="268" y="513"/>
      <point x="329" y="480" type="curve"/>
      <point x="318" y="454" type="line"/>
      <point x="256" y="471"/>
      <point x="199" y="479"/>
      <point x="131" y="489" type="curve"/>
      <point x="143" y="507"/>
      <point x="169" y="567"/>
    </contour>
  </outline>
</glyph>
